<svg fill="none" height="28" viewBox="0 0 23 28" width="23" xmlns="http://www.w3.org/2000/svg"><g fill="#fff"><path d="m19.0267 14.8904c.0138-1.0732.2989-2.1255.8287-3.059.5298-.9334 1.2871-1.7177 2.2014-2.2798-.5808-.82956-1.3471-1.51226-2.238-1.99386-.8908-.48161-1.8817-.74886-2.8939-.78053-2.1592-.22664-4.2525 1.29203-5.3528 1.29203-1.1215 0-2.81561-1.26953-4.63984-1.232-1.17996.03813-2.32993.38125-3.33786.99595-1.00792.6147-1.83943 1.48-2.41351 2.51161-2.48678 4.3055-.631868 10.633 1.75026 14.1133 1.19182 1.7041 2.58473 3.6077 4.40731 3.5402 1.78352-.074 2.44962-1.1373 4.60244-1.1373 2.1329 0 2.7578 1.1373 4.6174 1.0944 1.9138-.0311 3.1196-1.7117 4.2696-3.432.8563-1.2143 1.5153-2.5564 1.9524-3.9765-1.1118-.4702-2.0607-1.2574-2.7282-2.2633-.6675-1.0058-1.0241-2.186-1.0254-3.3932z"/><path d="m15.5143 4.48831c1.0435-1.25266 1.5576-2.86273 1.4331-4.48831-1.5942.16744-3.0668.929365-4.1244 2.13396-.517.58848-.9131 1.27309-1.1654 2.01472-.2523.74162-.356 1.5257-.3052 2.30743.7974.00821 1.5863-.16463 2.3072-.50548s1.3551-.84085 1.8547-1.46232z"/></g></svg>