<svg width="148" height="33" viewBox="0 0 148 33" fill="none" xmlns="http://www.w3.org/2000/svg">
<path d="M22.6247 17.5173C22.6405 16.2908 22.9663 15.0882 23.5718 14.0214C24.1773 12.9546 25.0428 12.0583 26.0877 11.4158C25.4239 10.4678 24.5481 9.68754 23.53 9.13713C22.5119 8.58673 21.3795 8.2813 20.2227 8.2451C17.755 7.98609 15.3627 9.72171 14.1053 9.72171C12.8234 9.72171 10.8874 8.27082 8.80253 8.31371C7.454 8.35728 6.13975 8.74943 4.98783 9.45194C3.83592 10.1544 2.88562 11.1434 2.22953 12.3223C-0.612501 17.2429 1.5074 24.4744 4.22983 28.4518C5.59192 30.3994 7.18381 32.575 9.26676 32.4978C11.3051 32.4133 12.0663 31.1981 14.5267 31.1981C16.9643 31.1981 17.6785 32.4978 19.8037 32.4488C21.9909 32.4132 23.369 30.4925 24.6833 28.5264C25.6619 27.1387 26.415 25.6049 26.9146 23.982C25.6439 23.4445 24.5595 22.5449 23.7967 21.3953C23.0338 20.2457 22.6262 18.897 22.6247 17.5173Z" fill="white"/>
<path d="M18.6106 5.6295C19.8031 4.19789 20.3906 2.3578 20.2484 0.5C18.4264 0.69136 16.7435 1.56213 15.5348 2.93881C14.9438 3.61136 14.4912 4.39378 14.2029 5.24135C13.9145 6.08891 13.796 6.98501 13.8541 7.87841C14.7654 7.88779 15.667 7.69027 16.4909 7.30072C17.3148 6.91117 18.0395 6.33975 18.6106 5.6295Z" fill="white"/>
<path d="M48.3902 23.1588H41.4344L39.764 28.0911H36.8178L43.4062 9.84277H46.4672L53.0556 28.0911H50.0592L48.3902 23.1588ZM42.1548 20.8828H47.6684L44.9504 12.878H44.8743L42.1548 20.8828Z" fill="white"/>
<path d="M67.2843 21.4397C67.2843 25.5741 65.0714 28.2304 61.732 28.2304C60.8861 28.2747 60.0448 28.0798 59.3045 27.6681C58.5642 27.2565 57.9547 26.6446 57.5459 25.9027H57.4828V32.4925H54.7518V14.7867H57.3953V16.9996H57.4455C57.873 16.2612 58.4928 15.6525 59.2387 15.2383C59.9847 14.8242 60.829 14.62 61.6818 14.6475C65.0585 14.6475 67.2843 17.3167 67.2843 21.4397ZM64.4773 21.4397C64.4773 18.7461 63.0853 16.9752 60.9614 16.9752C58.8748 16.9752 57.4713 18.7833 57.4713 21.4397C57.4713 24.1204 58.8748 25.9156 60.9614 25.9156C63.0853 25.9156 64.4773 24.1577 64.4773 21.4397Z" fill="white"/>
<path d="M81.9278 21.4397C81.9278 25.5741 79.7149 28.2304 76.3755 28.2304C75.5296 28.2746 74.6883 28.0798 73.9479 27.6681C73.2076 27.2564 72.5982 26.6446 72.1894 25.9027H72.1262V32.4925H69.3953V14.7867H72.0386V16.9995H72.0889C72.5164 16.2612 73.1362 15.6525 73.8821 15.2383C74.6281 14.8242 75.4724 14.62 76.3252 14.6475C79.702 14.6475 81.9278 17.3167 81.9278 21.4397ZM79.1208 21.4397C79.1208 18.746 77.7287 16.9751 75.6048 16.9751C73.5183 16.9751 72.1148 18.7833 72.1148 21.4397C72.1148 24.1204 73.5183 25.9156 75.6048 25.9156C77.7287 25.9156 79.1208 24.1577 79.1208 21.4397H79.1208Z" fill="white"/>
<path d="M91.6059 23.0068C91.8082 24.8164 93.5662 26.0046 95.9685 26.0046C98.2703 26.0046 99.9264 24.8163 99.9264 23.1846C99.9264 21.7682 98.9276 20.9201 96.5626 20.3389L94.1976 19.7692C90.8467 18.9598 89.2911 17.3927 89.2911 14.8498C89.2911 11.7012 92.035 9.53857 95.9312 9.53857C99.7872 9.53857 102.431 11.7012 102.52 14.8498H99.7628C99.5977 13.0287 98.0923 11.9294 95.8924 11.9294C93.6924 11.9294 92.187 13.0416 92.187 14.6603C92.187 15.9505 93.1485 16.7096 95.5006 17.2908L97.5111 17.7844C101.255 18.6699 102.811 20.1739 102.811 22.843C102.811 26.2571 100.091 28.3953 95.7661 28.3953C91.7192 28.3953 88.9868 26.3073 88.8103 23.0066L91.6059 23.0068Z" fill="white"/>
<path d="M108.705 11.6382V14.7867H111.235V16.9494H108.705V24.284C108.705 25.4234 109.211 25.9544 110.323 25.9544C110.624 25.9492 110.924 25.9281 111.222 25.8912V28.041C110.722 28.1344 110.214 28.1767 109.705 28.1673C107.011 28.1673 105.961 27.1555 105.961 24.5753V16.9494H104.026V14.7867H105.961V11.6382H108.705Z" fill="white"/>
<path d="M112.7 21.4396C112.7 17.2535 115.165 14.623 119.01 14.623C122.867 14.623 125.321 17.2535 125.321 21.4396C125.321 25.6372 122.88 28.2562 119.01 28.2562C115.141 28.2562 112.7 25.6372 112.7 21.4396ZM122.539 21.4396C122.539 18.568 121.223 16.8732 119.01 16.8732C116.797 16.8732 115.483 18.581 115.483 21.4396C115.483 24.3227 116.797 26.0046 119.01 26.0046C121.223 26.0046 122.539 24.3227 122.539 21.4396H122.539Z" fill="white"/>
<path d="M127.573 14.7866H130.178V17.0511H130.241C130.417 16.3438 130.831 15.7188 131.414 15.281C131.997 14.8433 132.713 14.6195 133.441 14.6473C133.756 14.6462 134.07 14.6804 134.377 14.7492V17.3036C133.979 17.1822 133.565 17.1265 133.15 17.1386C132.753 17.1225 132.357 17.1925 131.99 17.3437C131.623 17.4949 131.293 17.7237 131.023 18.0145C130.752 18.3053 130.548 18.6512 130.424 19.0284C130.3 19.4055 130.259 19.8051 130.304 20.1996V28.0911H127.573L127.573 14.7866Z" fill="white"/>
<path d="M146.968 24.1835C146.601 26.5987 144.248 28.2562 141.239 28.2562C137.369 28.2562 134.966 25.663 134.966 21.5028C134.966 17.3296 137.382 14.623 141.124 14.623C144.805 14.623 147.12 17.1516 147.12 21.1856V22.1213H137.723V22.2863C137.68 22.7759 137.741 23.2692 137.903 23.7333C138.065 24.1975 138.324 24.6218 138.662 24.9783C139.001 25.3347 139.411 25.615 139.866 25.8006C140.322 25.9862 140.811 26.0729 141.302 26.0548C141.948 26.1153 142.595 25.9658 143.149 25.6286C143.702 25.2915 144.132 24.7846 144.375 24.1835L146.968 24.1835ZM137.736 20.2126H144.388C144.412 19.7724 144.345 19.3318 144.192 18.9186C144.038 18.5053 143.8 18.1283 143.494 17.8113C143.187 17.4942 142.819 17.2439 142.411 17.076C142.003 16.9082 141.565 16.8265 141.124 16.8359C140.68 16.8333 140.239 16.9187 139.827 17.0873C139.416 17.2559 139.042 17.5044 138.727 17.8183C138.412 18.1323 138.162 18.5055 137.992 18.9164C137.822 19.3274 137.735 19.7679 137.736 20.2126V20.2126Z" fill="white"/>
</svg>
