<svg width="80" height="80" viewBox="0 0 80 80" fill="none" xmlns="http://www.w3.org/2000/svg">
<circle cx="40" cy="40" r="40" fill="#0080FF"/>
<path fill-rule="evenodd" clip-rule="evenodd" d="M52.447 19.958C52.0978 19.5478 51.5803 19.3105 51.0346 19.3103H28.9656C28.4199 19.3105 27.9025 19.5478 27.5532 19.958L18.3578 30.7526C17.8169 31.3872 17.7873 32.3006 18.2861 32.9673L38.516 59.9538C38.8637 60.4147 39.4145 60.6867 40.0001 60.6867C40.5857 60.6867 41.1365 60.4147 41.4843 59.9538L61.7141 32.9673C62.2129 32.3006 62.1833 31.3872 61.6424 30.7526L52.447 19.958ZM52.8737 31.9041C52.8737 32.8977 52.0682 33.7032 51.0746 33.7032H28.9257C27.932 33.7032 27.1266 32.8977 27.1266 31.9041C27.1266 30.9104 27.932 30.105 28.9257 30.105H51.0746C52.0682 30.105 52.8737 30.9104 52.8737 31.9041Z" fill="white"/>
</svg>
