<svg width="310" height="128" viewBox="0 0 310 128" fill="none" xmlns="http://www.w3.org/2000/svg">
<path fill-rule="evenodd" clip-rule="evenodd" d="M133.278 30.25H147.5V67.5835C147.5 85.244 133.161 99.5836 115.5 99.5836C97.8396 99.5836 83.5 85.244 83.5 67.5835V30.25H97.7223V67.5835C97.7223 78.3764 105.689 87.1391 115.5 87.1391C125.312 87.1391 133.278 78.3764 133.278 67.5835V30.25Z" fill="white"/>
<path fill-rule="evenodd" clip-rule="evenodd" d="M211.527 97.75L225.749 97.75V60.4165C225.749 42.756 211.41 28.4164 193.749 28.4164C176.089 28.4164 161.749 42.756 161.749 60.4165V97.75H175.971V60.4165C175.971 49.6236 183.938 40.8609 193.749 40.8609C203.561 40.8609 211.527 49.6236 211.527 60.4165V97.75Z" fill="white"/>
<path fill-rule="evenodd" clip-rule="evenodd" d="M12.4445 97.7782H0V65.7781H0.0533336C0.0177779 65.1896 0 64.5959 0 64.0003V0H14.2223V35.5611C20.1601 31.0935 27.5557 28.4446 35.5557 28.4446C55.1825 28.4446 71.1114 44.3771 71.1114 64.0003C71.1114 83.6235 55.1825 99.556 35.5557 99.556C27.0579 99.556 19.2534 96.5676 13.1378 91.5862L12.4445 97.7782ZM34.7223 40.9998C46.989 40.9998 56.9446 51.3554 56.9446 64.111C56.9446 76.8666 46.989 87.2222 34.7223 87.2222C22.4555 87.2222 12.4999 76.8666 12.4999 64.111C12.4999 51.3554 22.4555 40.9998 34.7223 40.9998Z" fill="white"/>
<path fill-rule="evenodd" clip-rule="evenodd" d="M296.804 30.2198H309.248V62.22H309.195C309.23 62.8084 309.248 63.4022 309.248 63.9977V127.998H295.026V92.437C289.088 96.9046 281.692 99.5535 273.692 99.5535C254.066 99.5535 238.137 83.6209 238.137 63.9977C238.137 44.3745 254.066 28.442 273.692 28.442C282.19 28.442 289.995 31.4305 296.11 36.4118L296.804 30.2198ZM274.526 86.9982C262.259 86.9982 252.303 76.6426 252.303 63.887C252.303 51.1314 262.259 40.7758 274.526 40.7758C286.793 40.7758 296.748 51.1314 296.748 63.887C296.748 76.6426 286.793 86.9982 274.526 86.9982Z" fill="white"/>
</svg>
