<svg width="505" height="160" viewBox="0 0 505 160" fill="none" xmlns="http://www.w3.org/2000/svg">
<path d="M107.882 1.14557C111.52 1.14557 115.176 1.14557 118.829 1.12034C118.789 14.1923 118.961 27.2668 118.749 40.3388C118.655 48.7759 115.095 57.7681 107.362 61.9539C98.6222 66.4045 87.5409 66.3793 78.9726 61.5426C71.6784 57.2736 68.1335 48.4958 68.3303 40.311C68.3707 27.2517 68.3429 14.1923 68.3581 1.13296H78.9827C79.0104 12.4388 78.9574 23.732 78.9953 35.0378C79.182 40.2328 79.1946 45.887 82.3182 50.315C86.5165 56.0953 95.3245 56.6403 101.241 53.3855C106.595 50.156 107.738 43.422 107.844 37.6694C107.935 25.4982 107.854 13.3168 107.882 1.14557V1.14557ZM155.31 1.38526C164.514 -1.34973 174.786 0.31044 182.983 5.21275C182.933 9.03771 182.933 12.8501 182.933 16.6649C176.052 11.5355 166.899 7.76356 158.356 10.7509C154.662 11.856 152.245 16.3016 154.024 19.8793C155.484 23.3056 159.458 24.3022 162.602 25.5789C169.376 28.276 177.188 29.7243 182.211 35.4491C188.668 43.2479 187.033 57.1323 177.574 61.8756C166.932 67.3885 153.632 65.635 143.429 59.895C143.417 55.9616 143.417 52.0433 143.376 48.1098C151.056 54.0239 161.711 57.5309 171.117 53.9305C176.247 52.071 176.898 44.0906 172.248 41.3354C165.032 36.9655 156.171 36.0748 149.25 31.1195C143.167 26.7445 141.373 18.0728 143.898 11.2429C145.783 6.28757 150.342 2.84612 155.31 1.38526V1.38526ZM254.083 0.189333C268.563 13.4758 282.647 27.2138 296.862 40.7904V1.13296H307.489V65.2767C292.994 51.5109 278.9 37.3364 264.324 23.6462V63.8764C260.885 63.9017 257.456 63.9017 254.03 63.9143C254.048 42.6777 253.942 21.4461 254.083 0.189333V0.189333ZM335.406 1.12034C348.229 1.12034 361.036 1.18594 373.843 1.07997C373.921 4.30949 373.921 7.53648 373.921 10.766C364.729 10.766 355.548 10.7509 346.354 10.766V25.6849C354.551 25.7126 362.736 25.6849 370.934 25.7126V35.3305C362.735 35.3423 354.542 35.3423 346.354 35.3305C346.354 41.6382 346.354 47.966 346.382 54.2762C355.548 54.2358 364.729 54.2762 373.883 54.2484C373.896 57.5713 373.908 60.9043 373.908 64.2271H335.381C335.406 43.1949 335.368 22.1652 335.406 1.12034V1.12034ZM405.063 3.59042C415.027 -2.17477 427.755 -0.408632 437.532 4.90746C437.719 8.81315 437.719 12.7289 437.706 16.6372C430.612 11.3236 421.054 7.52387 412.345 11.0057C407.402 12.7718 406.829 20.225 411.32 22.801C418.637 26.9994 427.581 27.8471 434.424 33.0043C443.618 39.8594 442.939 56.4536 432.431 61.7671C421.788 67.3482 408.358 65.7006 398.18 59.8017C398.18 55.9212 398.18 52.0433 398.114 48.1628C405.527 53.4612 414.961 57.0642 424.102 54.5941C427.475 53.7438 430.571 50.7136 430.092 46.9946C430.16 44.1511 428.167 41.6533 425.669 40.4851C418.493 36.7636 410.026 35.714 403.521 30.6805C395.031 24.1029 395.591 9.02509 405.063 3.59042V3.59042ZM468.833 3.80488C478.716 -2.17477 491.657 -0.567585 501.421 4.89232C501.462 8.76017 501.462 12.6129 501.489 16.4782C494.46 11.1646 484.867 7.56424 476.274 11.0713C471.48 12.9308 470.933 20.172 475.315 22.801C482.809 27.1609 492.136 27.8471 498.992 33.418C504.89 38.068 506.071 46.6893 503.785 53.4915C501.646 59.5469 495.548 63.0791 489.555 64.3709C480.361 66.2708 470.544 64.5703 462.374 59.9758C462.241 56.0297 462.241 52.0836 462.228 48.1376C469.959 53.8775 480.495 57.5562 489.888 53.9406C495.003 52.0811 495.787 44.242 491.178 41.3985C483.762 36.7611 474.409 36.1001 467.461 30.5973C459.268 24.0247 459.652 9.33543 468.833 3.80488V3.80488ZM0.263184 1.13296C11.4025 1.78391 22.9707 -0.504509 33.7492 3.00759C45.7186 6.84517 47.4192 25.5663 36.4994 31.6494C46.4503 35.7695 48.7337 49.8785 41.9063 57.6899C37.7079 62.6855 30.8528 64.0127 24.6486 64.1994C16.5167 64.3331 8.40005 64.1994 0.26823 64.2397V1.13296H0.263184ZM10.9105 10.7786C10.897 16.3058 10.897 21.8321 10.9105 27.3576C16.6227 27.0801 22.5494 28.1549 28.1279 26.5477C34.8644 24.5949 34.9174 13.501 28.2212 11.4826C22.5746 10.0469 16.6631 11.0309 10.9105 10.7786V10.7786ZM10.9105 36.6728C10.8853 42.6499 10.8979 48.6296 10.9105 54.5865C17.4705 54.1223 24.5148 55.8758 30.719 53.1257C36.8703 50.1232 36.3127 39.8922 29.8688 37.5937C23.7579 35.6888 17.2081 37.0891 10.9105 36.6728ZM213.169 1.13296H223.806V64.2397H213.169V1.13296ZM169.619 99.1135C179.542 92.8285 192.775 94.572 202.58 100.244C202.527 104.044 202.527 107.843 202.539 111.64C195.366 106.395 185.509 102.343 176.872 106.367C172.608 108.401 172.051 114.736 175.888 117.486C183.755 122.482 194.211 122.722 200.998 129.552C205.539 133.841 206.296 140.683 205.131 146.529C203.776 152.375 198.674 156.733 193.053 158.388C183.213 161.415 172.169 159.783 163.321 154.641C163.349 150.748 163.361 146.857 163.321 142.964C170.802 148.583 180.965 152.277 190.159 148.982C195.71 147.493 196.815 138.965 191.791 136.175C184.366 131.537 174.92 130.955 168.09 125.215C160.346 118.67 160.851 104.586 169.619 99.1135V99.1135ZM42.4513 96.4567H53.0658C53.091 117.262 53.0952 138.075 53.0784 158.897H42.4513V96.4567ZM83.2895 94.9959C97.4262 108.492 111.53 122.043 125.79 135.41C125.843 122.311 125.803 109.223 125.816 96.1388C129.348 96.1237 132.891 96.1186 136.445 96.1237C136.471 117.421 136.418 138.703 136.471 160C122.056 146.338 107.922 132.367 93.6164 118.584C93.5483 132.017 93.6164 145.46 93.5887 158.905H83.2921C83.2786 137.595 83.2778 116.292 83.2895 94.9959V94.9959ZM232.763 96.4567H243.393V158.897H232.763V96.4567ZM273.962 96.4567C282.519 96.4567 291.084 96.4475 299.657 96.4289C309.394 96.3104 319.45 101.293 324.209 109.995C329.323 119.134 329.654 130.493 326.48 140.338C323.079 150.682 312.954 157.999 302.168 158.698C292.774 159.177 283.368 158.766 273.962 158.897V96.4567ZM284.91 106.087V149.252C292.522 148.974 300.719 150.422 307.799 146.862C314.611 143.353 317.725 135.382 317.525 128.048C317.803 120.635 315.187 112.319 308.359 108.519C301.196 104.52 292.709 106.594 284.91 106.087V106.087ZM350.34 96.4567C363.067 96.4449 375.799 96.4449 388.537 96.4567C388.537 99.6711 388.522 102.885 388.522 106.102C379.331 106.075 370.146 106.075 360.967 106.102V120.688C369.152 120.703 377.346 120.708 385.547 120.703V130.003C377.35 130.003 369.147 129.988 360.967 130.003V149.239C370.149 149.267 379.343 149.239 388.537 149.254V158.885H350.34V96.4567ZM419.77 96.4441C428.391 96.5223 437.015 96.3633 445.624 96.4971C452.941 96.6813 460.676 100.895 462.781 108.28C464.668 114.698 464.216 122.311 460.096 127.796C457.573 131.076 453.481 132.314 449.656 133.364C457.12 141.798 464.529 150.292 471.881 158.847C467.676 158.928 463.487 158.928 459.314 158.847C452.191 150.385 444.932 142.041 437.777 133.631C435.413 133.647 433.061 133.647 430.712 133.647C430.687 142.056 430.7 150.465 430.7 158.877C427.046 158.889 423.393 158.889 419.74 158.877V96.4239L419.77 96.4441ZM430.7 105.759C430.675 111.951 430.687 118.142 430.7 124.331C436.374 124.014 442.306 125.222 447.799 123.456C454.588 120.731 454.734 109.831 448.051 106.927C442.556 104.826 436.483 106.062 430.73 105.769" fill="white"/>
</svg>
