<svg width="608" height="608" viewBox="0 0 608 608" fill="none" xmlns="http://www.w3.org/2000/svg">
<path d="M591.999 304.003C592.017 327.824 589.042 351.553 583.141 374.641C571.255 420.93 547.858 463.516 515.093 498.494L514.05 499.595C504.279 509.934 493.748 519.539 482.544 528.329C466.528 540.918 449.207 551.776 430.873 560.72C428.813 561.727 426.739 562.708 424.651 563.663C421.775 564.986 418.868 566.262 415.932 567.489C380.506 582.323 342.44 589.942 303.993 589.894C249.575 589.979 196.257 574.688 150.265 545.806C146.84 543.652 143.465 541.43 140.141 539.14C131.313 533.07 122.834 526.516 114.742 519.509C113.308 518.265 111.894 517.002 110.5 515.718C96.4438 503.064 83.6802 489.062 72.3955 473.917V473.917C64.8867 463.855 58.0555 453.311 51.9465 442.355C51.686 441.886 51.4254 441.417 51.171 440.947C29.0016 400.708 16.9655 355.74 16.0897 309.881C16.0453 307.928 16.025 305.967 16.0291 303.997C15.9667 261.251 25.5983 219.039 44.2092 180.494C50.7638 166.924 58.3918 153.892 67.0213 141.52V141.52C87.8584 111.63 114.216 85.9351 144.697 65.7986C186.463 38.1818 234.803 21.9471 284.877 18.7208C291.21 18.3197 297.595 18.1192 304.029 18.1192C320.115 18.1133 336.175 19.4354 352.04 22.0719C379.267 26.6076 405.689 35.0315 430.486 47.0817C526.108 93.5399 591.999 191.131 591.999 304.003Z" fill="#0080FF"/>
<path d="M294.956 230.882L285.382 328.365C284.926 333.008 288.347 337.14 293.023 337.592L477.147 355.422C481.823 355.875 485.983 352.478 486.439 347.835L496.013 250.352C496.469 245.708 493.048 241.578 488.372 241.125L304.248 223.295C299.572 222.842 295.412 226.239 294.956 230.882Z" fill="white"/>
<path d="M294.956 230.882L285.382 328.365C284.926 333.008 288.347 337.14 293.023 337.592L477.147 355.422C481.823 355.875 485.983 352.478 486.439 347.835L496.013 250.352C496.469 245.708 493.048 241.578 488.372 241.125L304.248 223.295C299.572 222.842 295.412 226.239 294.956 230.882Z" fill="#E33095"/>
<path d="M293.913 241.53L291.302 268.116L492.362 287.585L494.973 260.999L293.913 241.53Z" fill="black"/>
<path d="M458.732 321.583C457.259 321.787 455.85 322.318 454.611 323.136C453.372 323.955 452.335 325.04 451.577 326.311C450.557 325.621 449.315 325.334 448.093 325.505C447.445 325.594 446.821 325.809 446.257 326.137C445.693 326.466 445.2 326.901 444.806 327.42C444.412 327.938 444.125 328.528 443.961 329.156C443.797 329.785 443.76 330.44 443.852 331.082C443.942 331.725 444.158 332.344 444.489 332.904C444.82 333.464 445.259 333.953 445.781 334.344C446.303 334.735 446.897 335.02 447.529 335.183C448.162 335.346 448.821 335.384 449.468 335.294C449.938 335.228 450.395 335.094 450.825 334.897C451.63 336.983 453.123 338.736 455.061 339.87C456.999 341.005 459.268 341.453 461.495 341.142C462.791 340.964 464.038 340.535 465.166 339.878C466.294 339.221 467.28 338.35 468.068 337.313C468.857 336.277 469.431 335.096 469.758 333.839C470.086 332.582 470.161 331.273 469.978 329.987C469.796 328.702 469.361 327.464 468.698 326.346C468.034 325.227 467.155 324.25 466.11 323.469C465.066 322.688 463.877 322.12 462.611 321.796C461.345 321.473 460.027 321.4 458.732 321.583V321.583Z" fill="black"/>
<path d="M305.321 363.674C305.321 363.674 301.843 372.481 292.797 384.496C280.443 400.921 257.655 423.332 219.156 437.47C216.317 440.394 213.759 443.574 211.516 446.97L151.532 524.46L140.16 539.146L114.76 519.515C113.327 518.271 111.913 517.008 110.519 515.724C96.4627 503.07 83.6992 489.068 72.4145 473.923V473.923C64.9057 463.861 58.0745 453.317 51.9655 442.361C51.705 441.892 51.4444 441.423 51.1899 440.953L115.154 389.778C123.528 382.727 131.283 350.672 130.017 339.843L125.212 299.672C124.602 294.504 125.367 289.269 127.43 284.486L142.117 243.948C143.898 239.835 146.591 236.172 149.993 233.233L184.045 206.16C184.397 205.877 184.81 205.677 185.252 205.576C185.694 205.475 186.154 205.476 186.595 205.578C187.037 205.68 187.45 205.881 187.801 206.165C188.153 206.45 188.435 206.81 188.625 207.219L188.771 207.544C188.789 207.576 188.805 207.611 188.819 207.646C189.565 209.324 190.157 211.066 190.588 212.85C192.206 219.51 192.339 229.485 185.214 241.283C182.145 246.235 178.463 250.785 174.253 254.826L169.194 269.175C168.84 270.2 168.758 271.298 168.958 272.364C169.564 276.058 172.951 280.143 177.071 284.318C178.325 285.587 179.652 286.869 180.991 288.15L181.936 287.236L187.91 281.448L190.661 278.795L207.765 262.244L210.244 259.838L216.496 253.803L218.974 251.397L234.594 236.283L235.2 235.682L236.291 237.673L245.07 253.695L245.264 254.05L246.979 257.178L255.401 272.544L257.116 275.667L264.338 288.848L285.477 327.425L286.271 328.881L286.986 330.18L288.719 333.345L290.718 336.991L300.982 355.72L305.321 363.674Z" fill="white"/>
<path d="M165.396 324.224C165.396 324.224 181.622 360.574 167.389 388.346C167.389 388.346 182.633 371.031 180.828 349.492C179.398 332.448 165.396 324.224 165.396 324.224Z" fill="black"/>
<path d="M235.195 235.717L181.119 288.486C174.048 281.868 167.298 275.178 169.243 269.667L174.302 255.318C193.794 236.216 193.794 217.271 188.759 207.524C188.474 213.607 192.728 238.154 159.615 253.802L168.449 255.444C168.449 255.444 149.758 284.774 157.786 310.157C165.814 335.54 195.957 355.707 195.957 355.707L286.284 328.916L235.195 235.717Z" fill="black"/>
<path d="M140.152 539.152L151.525 524.466L211.508 446.976C213.752 443.58 216.31 440.4 219.149 437.476C257.665 423.338 280.435 400.927 292.789 384.502C301.835 372.47 305.313 363.68 305.313 363.68L300.975 355.762L290.711 337.033L288.711 333.387L286.979 330.223L286.264 328.923L285.47 327.467L264.33 288.891L257.326 317.769L250.764 323.515L249.425 324.718L226.001 345.234L223.269 347.64L200.445 367.626L266.56 389.58C266.56 389.58 265.348 404.019 233.605 414.018C192.877 426.881 170.392 402.238 170.392 402.238C171.271 416.84 188.648 425.6 188.648 425.6L123.072 509.227L118.267 515.352C115.609 518.401 114.746 519.497 114.746 519.497L140.152 539.152Z" fill="black"/>
<path d="M312.155 334.603C312.155 334.603 313.585 334.603 320.032 338.694C324.491 341.509 330.096 349.77 328.102 356.087C323.704 369.997 312.531 377.92 306.405 364.913L312.155 334.603Z" fill="white"/>
<path d="M211.419 102.449L164.912 348.499C163.652 355.164 168.072 361.582 174.784 362.832L290.055 384.315C296.767 385.566 303.23 381.177 304.49 374.512L350.997 128.462C352.257 121.797 347.837 115.379 341.124 114.128L225.854 92.6456C219.142 91.3946 212.679 95.7838 211.419 102.449Z" fill="black"/>
<path d="M164.937 348.482C164.332 351.682 165.034 354.99 166.886 357.678C168.738 360.365 171.589 362.212 174.813 362.812L290.084 384.297C293.308 384.897 296.639 384.2 299.346 382.361C302.052 380.522 303.912 377.691 304.517 374.49L351.019 128.422L164.937 348.482Z" fill="black"/>
<path d="M215.003 112.121L174.358 327.15C173.505 331.667 176.5 336.015 181.049 336.863L293.699 357.857C298.247 358.705 302.626 355.731 303.48 351.214L344.124 136.185C344.978 131.668 341.983 127.32 337.434 126.472L224.784 105.478C220.236 104.63 215.856 107.604 215.003 112.121Z" fill="#A22FB6"/>
<path d="M192.169 270.648L186.098 302.309C184.947 308.312 188.914 314.104 194.959 315.247L225.303 320.984C231.348 322.127 237.182 318.187 238.333 312.184L244.404 280.524C245.555 274.521 241.587 268.728 235.542 267.585L205.198 261.849C199.153 260.706 193.32 264.646 192.169 270.648Z" fill="black"/>
<path d="M190.536 267.474L184.465 299.135C183.314 305.138 187.282 310.93 193.327 312.073L223.67 317.81C229.716 318.953 235.549 315.013 236.7 309.011L242.771 277.35C243.922 271.347 239.955 265.555 233.909 264.412L203.566 258.675C197.521 257.532 191.687 261.472 190.536 267.474Z" fill="#E33095"/>
<path d="M252.145 282.982L246.075 314.643C244.924 320.646 248.891 326.438 254.936 327.581L285.28 333.318C291.325 334.461 297.158 330.521 298.309 324.518L304.38 292.858C305.531 286.855 301.564 281.062 295.519 279.919L265.175 274.183C259.13 273.04 253.296 276.979 252.145 282.982Z" fill="black"/>
<path d="M250.517 279.81L244.446 311.471C243.295 317.474 247.263 323.266 253.308 324.409L283.651 330.146C289.697 331.289 295.53 327.349 296.681 321.347L302.752 289.686C303.903 283.683 299.936 277.89 293.89 276.748L263.547 271.011C257.502 269.868 251.668 273.808 250.517 279.81Z" fill="#34CC8D"/>
<path d="M266.169 220.283L260.098 251.944C258.947 257.946 262.914 263.739 268.96 264.882L299.303 270.619C305.348 271.761 311.182 267.822 312.333 261.819L318.404 230.158C319.555 224.156 315.587 218.363 309.542 217.22L279.199 211.484C273.153 210.341 267.32 214.28 266.169 220.283Z" fill="black"/>
<path d="M264.545 217.111L258.474 248.772C257.323 254.775 261.29 260.567 267.336 261.71L297.679 267.447C303.724 268.59 309.558 264.65 310.709 258.647L316.78 226.987C317.931 220.984 313.963 215.191 307.918 214.048L277.575 208.312C271.529 207.169 265.696 211.108 264.545 217.111Z" fill="#E33095"/>
<path d="M206.65 207.945L200.579 239.606C199.428 245.608 203.396 251.401 209.441 252.544L239.784 258.281C245.83 259.424 251.663 255.484 252.814 249.481L258.885 217.821C260.036 211.818 256.069 206.025 250.023 204.882L219.68 199.146C213.635 198.003 207.801 201.942 206.65 207.945Z" fill="black"/>
<path d="M205.022 204.77L198.951 236.431C197.8 242.434 201.768 248.226 207.813 249.369L238.156 255.106C244.201 256.249 250.035 252.309 251.186 246.307L257.257 214.646C258.408 208.643 254.44 202.85 248.395 201.707L218.052 195.971C212.007 194.828 206.173 198.767 205.022 204.77Z" fill="#34CC8D"/>
<path d="M219.083 145.235L213.012 176.896C211.861 182.899 215.828 188.691 221.873 189.834L252.217 195.571C258.262 196.714 264.096 192.774 265.247 186.771L271.318 155.111C272.469 149.108 268.501 143.315 262.456 142.172L232.112 136.436C226.067 135.293 220.234 139.232 219.083 145.235Z" fill="black"/>
<path d="M217.446 142.069L211.375 173.73C210.224 179.732 214.192 185.525 220.237 186.668L250.58 192.405C256.626 193.548 262.459 189.608 263.61 183.605L269.681 151.945C270.832 145.942 266.865 140.149 260.819 139.006L230.476 133.27C224.431 132.127 218.597 136.066 217.446 142.069Z" fill="#E33095"/>
<path d="M278.924 157.419L272.854 189.08C271.703 195.082 275.67 200.875 281.715 202.018L312.059 207.754C318.104 208.897 323.937 204.958 325.088 198.955L331.159 167.294C332.31 161.292 328.343 155.499 322.298 154.356L291.954 148.619C285.909 147.476 280.075 151.416 278.924 157.419Z" fill="black"/>
<path d="M277.292 154.24L271.221 185.901C270.07 191.903 274.038 197.696 280.083 198.839L310.426 204.576C316.471 205.719 322.305 201.779 323.456 195.776L329.527 164.115C330.678 158.113 326.71 152.32 320.665 151.177L290.322 145.44C284.277 144.298 278.443 148.237 277.292 154.24Z" fill="#34CC8D"/>
<path d="M260.078 107.16L301.836 114.945C302.174 115.006 302.523 114.933 302.807 114.74C303.091 114.547 303.286 114.251 303.351 113.916V113.916C303.383 113.75 303.381 113.579 303.346 113.413C303.311 113.248 303.243 113.09 303.147 112.951C303.051 112.811 302.928 112.692 302.785 112.599C302.642 112.507 302.483 112.443 302.315 112.412L260.557 104.633C260.39 104.601 260.218 104.602 260.052 104.636C259.886 104.67 259.728 104.736 259.587 104.831C259.447 104.927 259.327 105.048 259.235 105.19C259.142 105.331 259.079 105.49 259.048 105.656C259.016 105.822 259.017 105.992 259.051 106.158C259.085 106.324 259.152 106.481 259.248 106.621C259.344 106.76 259.466 106.88 259.609 106.973C259.751 107.065 259.911 107.129 260.078 107.16V107.16Z" fill="white"/>
<path d="M244.818 103.01C244.764 103.295 244.768 103.587 244.828 103.87C244.888 104.153 245.004 104.422 245.169 104.66C245.334 104.899 245.545 105.103 245.789 105.26C246.033 105.418 246.306 105.526 246.593 105.579C246.879 105.633 247.173 105.631 247.458 105.571C247.743 105.512 248.014 105.398 248.254 105.235C248.495 105.071 248.7 104.862 248.859 104.62C249.018 104.378 249.127 104.107 249.18 103.822C249.287 103.248 249.161 102.656 248.829 102.173C248.498 101.691 247.988 101.358 247.411 101.247C246.832 101.14 246.233 101.265 245.747 101.596C245.261 101.927 244.926 102.435 244.818 103.01V103.01Z" fill="white"/>
<path d="M312.157 334.603L308.479 354.065C308.479 354.065 311.164 343.525 322.282 344.108C322.282 344.108 316.005 341.666 313.702 343.681L315.053 341.064C314.078 340.302 313.305 339.315 312.801 338.189C312.296 337.063 312.075 335.832 312.157 334.603V334.603Z" fill="black"/>
<path d="M330.46 295.731L335.047 303.907C336.035 305.673 336.585 307.648 336.649 309.668C336.713 311.688 336.291 313.694 335.416 315.518C333.132 320.295 329.709 326.709 326.279 330.306C320.348 336.527 310.738 332.19 308.242 325.036C305.746 317.883 318.015 303.606 318.015 303.606L320.057 292.355L330.46 295.731Z" fill="white"/>
<path d="M329.249 326.552L329.491 326.197C329.403 326.31 329.322 326.429 329.249 326.552V326.552Z" fill="#FF7819"/>
<path d="M346.231 274.769C346.106 270.39 345.072 266.083 343.196 262.117C341.32 258.151 338.64 254.612 335.325 251.721L327.642 252.515L323.698 273.921L320.263 290.303C318.657 297.968 327.164 303.906 333.774 299.641C341.736 294.527 346.486 284.305 346.231 274.769Z" fill="white"/>
<path d="M328.077 277.447C324.896 270.486 327.653 252.605 327.653 252.605L320.158 290.942C318.947 300.514 328.568 301.133 328.568 301.133C313.845 295.472 328.077 277.447 328.077 277.447Z" fill="black"/>
<path d="M345.051 237.222L332.467 227.145L327.523 253.298C340.507 257.22 344.948 245.819 346.251 240.802C346.418 240.153 346.393 239.472 346.18 238.837C345.968 238.202 345.576 237.642 345.051 237.222V237.222Z" fill="white"/>
<path d="M510.357 383.834L519.627 387.727C519.963 387.868 520.33 387.927 520.694 387.896C521.058 387.866 521.409 387.748 521.717 387.552L530.2 382.179C530.554 381.955 530.965 381.833 531.385 381.827C531.806 381.822 532.219 381.934 532.579 382.15C532.939 382.366 533.231 382.677 533.422 383.049C533.613 383.421 533.695 383.839 533.659 384.255L532.793 394.212C532.76 394.574 532.817 394.938 532.958 395.272C533.1 395.607 533.322 395.902 533.605 396.131L541.372 402.485C541.696 402.75 541.939 403.1 542.073 403.495C542.207 403.89 542.227 404.315 542.132 404.721C542.036 405.126 541.828 405.498 541.531 405.793C541.234 406.087 540.86 406.294 540.452 406.389L530.648 408.645C530.293 408.728 529.962 408.895 529.686 409.131C529.41 409.368 529.195 409.668 529.061 410.005L525.377 419.306C525.223 419.695 524.963 420.034 524.625 420.283C524.288 420.533 523.887 420.684 523.468 420.719C523.048 420.754 522.628 420.672 522.253 420.482C521.878 420.292 521.565 420.001 521.348 419.643L516.155 411.082C515.965 410.767 515.7 410.504 515.383 410.316C515.066 410.128 514.706 410.021 514.337 410.005L504.292 409.403C503.872 409.379 503.468 409.238 503.125 408.997C502.782 408.756 502.514 408.424 502.351 408.04C502.189 407.655 502.138 407.233 502.204 406.821C502.271 406.409 502.453 406.024 502.728 405.709L509.321 398.159C509.562 397.886 509.732 397.558 509.815 397.205C509.898 396.851 509.893 396.482 509.799 396.131L507.279 386.457C507.168 386.05 507.176 385.621 507.301 385.218C507.426 384.816 507.663 384.457 507.985 384.182C508.307 383.908 508.701 383.73 509.12 383.668C509.54 383.606 509.969 383.664 510.357 383.834Z" fill="white"/>
<path d="M259.611 292.025H267.96C268.263 292.026 268.561 291.953 268.829 291.814C269.097 291.674 269.327 291.472 269.499 291.225L274.243 284.396C274.441 284.111 274.715 283.886 275.034 283.748C275.354 283.609 275.706 283.562 276.051 283.612C276.396 283.662 276.72 283.808 276.987 284.031C277.253 284.255 277.451 284.548 277.558 284.878L280.133 292.765C280.223 293.047 280.38 293.304 280.591 293.513C280.802 293.722 281.06 293.878 281.344 293.968L289.348 296.333C289.683 296.431 289.983 296.62 290.214 296.879C290.446 297.138 290.6 297.456 290.658 297.798C290.717 298.139 290.678 298.49 290.546 298.811C290.414 299.131 290.194 299.409 289.912 299.612L283.15 304.479C282.905 304.656 282.706 304.89 282.572 305.161C282.438 305.431 282.372 305.73 282.38 306.031L282.586 314.316C282.596 314.662 282.508 315.005 282.331 315.304C282.155 315.603 281.897 315.847 281.588 316.008C281.278 316.169 280.93 316.241 280.582 316.215C280.233 316.189 279.899 316.067 279.618 315.862L272.868 310.982C272.623 310.805 272.338 310.69 272.038 310.647C271.738 310.604 271.432 310.635 271.147 310.736L263.27 313.491C262.94 313.612 262.582 313.638 262.237 313.565C261.893 313.493 261.576 313.326 261.323 313.082C261.07 312.839 260.891 312.53 260.807 312.191C260.722 311.851 260.736 311.495 260.847 311.163L263.434 303.282C263.53 302.996 263.553 302.691 263.502 302.394C263.451 302.097 263.328 301.817 263.143 301.579L258.072 294.997C257.862 294.718 257.735 294.386 257.706 294.039C257.676 293.692 257.746 293.343 257.906 293.034C258.067 292.724 258.311 292.465 258.613 292.287C258.914 292.108 259.26 292.018 259.611 292.025Z" fill="white"/>
<path d="M60.7808 294.172L66.0037 296.362C66.1928 296.442 66.3986 296.475 66.6034 296.458C66.8081 296.441 67.0057 296.375 67.1791 296.266L71.9595 293.258C72.1588 293.129 72.3905 293.059 72.628 293.055C72.8655 293.051 73.0993 293.113 73.3028 293.235C73.5063 293.357 73.6712 293.533 73.7787 293.743C73.8862 293.954 73.9318 294.19 73.9105 294.425L73.4198 300.038C73.403 300.242 73.4359 300.447 73.5161 300.635C73.5963 300.824 73.7213 300.991 73.8803 301.121L78.2609 304.731C78.443 304.881 78.5793 305.078 78.6545 305.301C78.7298 305.524 78.7409 305.763 78.6868 305.992C78.6327 306.221 78.5153 306.43 78.348 306.596C78.1807 306.762 77.9701 306.879 77.7398 306.933L72.2141 308.202C72.0133 308.249 71.8269 308.344 71.6708 308.478C71.5147 308.612 71.3934 308.782 71.3172 308.972L69.2451 314.212C69.1577 314.431 69.0104 314.621 68.82 314.761C68.6296 314.901 68.4036 314.986 68.1674 315.005C67.9311 315.025 67.6942 314.978 67.4832 314.871C67.2722 314.764 67.0954 314.6 66.973 314.399L64.0465 309.586C63.9385 309.413 63.7903 309.268 63.6143 309.163C63.4382 309.058 63.2395 308.997 63.0347 308.984L57.3756 308.647C57.1388 308.633 56.9108 308.553 56.7173 308.417C56.5238 308.28 56.3725 308.093 56.2805 307.876C56.1885 307.659 56.1594 307.421 56.1966 307.188C56.2338 306.955 56.3358 306.738 56.491 306.56L60.2113 302.306C60.3451 302.151 60.4391 301.966 60.4855 301.767C60.532 301.568 60.5293 301.361 60.4778 301.163L59.0539 295.712C58.9792 295.48 58.9736 295.232 59.0378 294.997C59.102 294.762 59.2332 294.55 59.4156 294.387C59.598 294.225 59.824 294.118 60.0662 294.08C60.3084 294.041 60.5565 294.074 60.7808 294.172Z" fill="white"/>
<path d="M204.257 525.283L209.48 527.479C209.669 527.558 209.875 527.591 210.08 527.575C210.284 527.558 210.482 527.492 210.655 527.382L215.442 524.374C215.642 524.249 215.873 524.182 216.109 524.181C216.345 524.179 216.577 524.242 216.779 524.364C216.981 524.486 217.145 524.661 217.252 524.87C217.36 525.079 217.406 525.314 217.387 525.547L216.902 531.161C216.885 531.364 216.917 531.569 216.996 531.757C217.075 531.946 217.199 532.113 217.357 532.244L221.737 535.823C221.92 535.973 222.056 536.17 222.132 536.392C222.208 536.615 222.219 536.854 222.165 537.082C222.11 537.311 221.993 537.52 221.825 537.685C221.657 537.851 221.447 537.967 221.216 538.019L215.69 539.295C215.49 539.342 215.305 539.436 215.149 539.569C214.993 539.702 214.871 539.87 214.794 540.059L212.721 545.305C212.634 545.524 212.487 545.714 212.296 545.854C212.106 545.994 211.88 546.079 211.644 546.098C211.407 546.117 211.17 546.071 210.959 545.964C210.748 545.857 210.572 545.693 210.449 545.492L207.523 540.679C207.417 540.505 207.27 540.359 207.095 540.254C206.92 540.149 206.721 540.089 206.517 540.077L200.852 539.74C200.615 539.726 200.387 539.646 200.194 539.509C200 539.373 199.849 539.186 199.757 538.969C199.665 538.752 199.636 538.513 199.673 538.281C199.71 538.048 199.812 537.83 199.967 537.652L203.688 533.399C203.823 533.244 203.918 533.059 203.964 532.86C204.011 532.661 204.007 532.453 203.954 532.256L202.536 526.805C202.467 526.575 202.466 526.33 202.532 526.099C202.598 525.868 202.729 525.66 202.909 525.5C203.09 525.341 203.313 525.235 203.551 525.197C203.79 525.158 204.035 525.188 204.257 525.283V525.283Z" fill="white"/>
<path d="M526.807 218.824L532.03 221.02C532.225 221.103 532.437 221.137 532.649 221.119C532.86 221.101 533.064 221.032 533.242 220.918L538.022 217.91C538.221 217.783 538.452 217.714 538.689 217.711C538.925 217.708 539.158 217.771 539.36 217.892C539.563 218.014 539.727 218.189 539.834 218.398C539.942 218.608 539.988 218.843 539.967 219.077L539.482 224.69C539.464 224.894 539.496 225.099 539.575 225.287C539.654 225.476 539.779 225.642 539.937 225.773L544.317 229.353C544.5 229.503 544.636 229.7 544.711 229.923C544.786 230.146 544.798 230.385 544.743 230.614C544.689 230.843 544.572 231.052 544.405 231.218C544.237 231.384 544.027 231.501 543.796 231.555L538.271 232.824C538.071 232.872 537.885 232.967 537.73 233.101C537.575 233.235 537.455 233.404 537.38 233.594L535.302 238.835C535.216 239.054 535.07 239.245 534.88 239.386C534.691 239.527 534.465 239.612 534.229 239.632C533.993 239.653 533.756 239.606 533.545 239.499C533.334 239.392 533.158 239.229 533.036 239.027L530.103 234.214C529.998 234.04 529.851 233.894 529.676 233.789C529.5 233.684 529.302 233.624 529.097 233.612L523.432 233.27C523.196 233.255 522.968 233.176 522.775 233.04C522.582 232.904 522.432 232.717 522.34 232.5C522.249 232.284 522.22 232.046 522.258 231.814C522.296 231.582 522.398 231.365 522.554 231.188L526.268 226.928C526.403 226.774 526.498 226.589 526.545 226.39C526.593 226.191 526.591 225.983 526.54 225.785L525.117 220.334C525.052 220.108 525.052 219.868 525.118 219.642C525.184 219.416 525.312 219.213 525.488 219.056C525.664 218.899 525.881 218.794 526.114 218.753C526.347 218.712 526.587 218.737 526.807 218.824Z" fill="white"/>
<path d="M91.9469 359.173L95.5822 360.707C95.7146 360.764 95.8589 360.787 96.0025 360.776C96.1461 360.764 96.2848 360.718 96.4063 360.641L99.7448 358.523C99.8846 358.436 100.046 358.388 100.212 358.387C100.377 358.385 100.539 358.429 100.681 358.514C100.822 358.599 100.937 358.721 101.013 358.868C101.088 359.014 101.121 359.178 101.108 359.341L100.769 363.264C100.755 363.406 100.776 363.55 100.831 363.682C100.886 363.814 100.973 363.931 101.084 364.022L104.113 366.525C104.241 366.629 104.336 366.767 104.389 366.922C104.442 367.078 104.45 367.245 104.412 367.404C104.374 367.564 104.292 367.71 104.175 367.826C104.058 367.941 103.911 368.022 103.75 368.059L99.8902 368.949C99.7538 368.985 99.6277 369.052 99.5223 369.145C99.417 369.238 99.3354 369.354 99.2843 369.485L97.8301 373.149C97.7698 373.302 97.6677 373.434 97.5353 373.532C97.4029 373.631 97.2454 373.69 97.0809 373.703C96.9163 373.717 96.7512 373.685 96.6041 373.61C96.457 373.536 96.334 373.422 96.2488 373.281L94.2008 369.912C94.1277 369.789 94.0256 369.686 93.903 369.612C93.7805 369.537 93.6414 369.494 93.498 369.485L89.5415 369.244C89.3768 369.233 89.2185 369.177 89.0844 369.081C88.9503 368.986 88.8458 368.855 88.7828 368.703C88.7197 368.552 88.7008 368.386 88.7278 368.224C88.7548 368.062 88.8267 367.911 88.9356 367.788L91.5349 364.816C91.6286 364.708 91.6947 364.578 91.7274 364.439C91.7601 364.3 91.7585 364.155 91.7228 364.016L90.723 360.208C90.6797 360.046 90.6835 359.876 90.7336 359.717C90.7837 359.557 90.8783 359.415 91.0064 359.307C91.1344 359.199 91.2907 359.129 91.4571 359.105C91.6235 359.081 91.7933 359.105 91.9469 359.173V359.173Z" fill="white"/>
<path d="M269.854 447.908L273.49 449.443C273.622 449.497 273.765 449.518 273.908 449.506C274.05 449.493 274.187 449.447 274.308 449.37L277.652 447.253C277.792 447.165 277.954 447.118 278.119 447.116C278.284 447.115 278.447 447.159 278.588 447.244C278.73 447.329 278.845 447.451 278.92 447.597C278.996 447.743 279.029 447.907 279.016 448.071L278.67 451.993C278.659 452.136 278.682 452.279 278.738 452.411C278.794 452.543 278.881 452.66 278.991 452.752L282.021 455.254C282.148 455.359 282.244 455.496 282.297 455.652C282.35 455.807 282.358 455.974 282.32 456.134C282.282 456.293 282.2 456.439 282.083 456.555C281.966 456.671 281.818 456.752 281.657 456.788L277.798 457.679C277.661 457.714 277.535 457.781 277.43 457.874C277.324 457.967 277.243 458.084 277.192 458.214L275.738 461.878C275.677 462.031 275.575 462.164 275.443 462.262C275.31 462.36 275.153 462.419 274.988 462.433C274.824 462.447 274.659 462.414 274.512 462.34C274.365 462.265 274.241 462.151 274.156 462.011L272.108 458.642C272.034 458.519 271.931 458.415 271.807 458.341C271.684 458.267 271.544 458.223 271.399 458.214L267.443 457.98C267.278 457.969 267.12 457.912 266.986 457.817C266.852 457.721 266.747 457.59 266.684 457.439C266.621 457.287 266.602 457.121 266.629 456.96C266.656 456.798 266.728 456.647 266.837 456.524L269.43 453.546C269.525 453.439 269.591 453.31 269.624 453.172C269.657 453.033 269.655 452.889 269.618 452.752L268.624 448.937C268.579 448.775 268.582 448.604 268.632 448.443C268.682 448.282 268.778 448.139 268.907 448.031C269.037 447.923 269.195 447.854 269.363 447.832C269.531 447.81 269.701 447.837 269.854 447.908V447.908Z" fill="white"/>
<path fill-rule="evenodd" clip-rule="evenodd" d="M214.586 280.358C227.807 266.004 243.33 296.103 210.442 302.661C182.074 284.889 207.406 262.267 214.586 280.358Z" fill="white"/>
<path d="M235.711 147.916C235.793 147.488 235.959 147.08 236.2 146.716C236.441 146.352 236.752 146.039 237.115 145.794C237.478 145.549 237.885 145.378 238.315 145.29C238.745 145.202 239.188 145.199 239.619 145.281C240.489 145.446 241.259 145.947 241.757 146.675C242.256 147.402 242.444 148.297 242.279 149.162L241.776 151.766C241.693 152.194 241.527 152.602 241.286 152.966C241.045 153.33 240.735 153.644 240.372 153.888C240.009 154.133 239.601 154.304 239.171 154.392C238.741 154.481 238.298 154.484 237.868 154.402C237.437 154.32 237.026 154.155 236.659 153.916C236.293 153.677 235.977 153.368 235.731 153.008C235.484 152.647 235.312 152.242 235.223 151.816C235.134 151.389 235.131 150.949 235.214 150.521L235.711 147.916Z" fill="white"/>
<path d="M236.362 161.151C237.053 160.498 237.891 160.018 238.806 159.75C239.721 159.483 240.687 159.435 241.624 159.611C242.561 159.788 243.443 160.183 244.196 160.764C244.948 161.346 245.551 162.097 245.954 162.956L249.183 169.862C249.65 170.858 249.831 171.963 249.706 173.054C249.581 174.145 249.155 175.181 248.476 176.048C247.796 176.914 246.889 177.578 245.853 177.965C244.818 178.353 243.696 178.449 242.609 178.243L233.818 176.583C232.73 176.378 231.72 175.88 230.899 175.143C230.078 174.405 229.478 173.457 229.165 172.403C228.852 171.349 228.838 170.229 229.124 169.167C229.411 168.106 229.986 167.143 230.788 166.385L236.362 161.151Z" fill="white"/>
<path d="M248.801 146.989C248.371 146.907 247.928 146.91 247.499 146.998C247.07 147.086 246.662 147.258 246.3 147.503C245.937 147.747 245.627 148.061 245.387 148.425C245.147 148.789 244.981 149.196 244.899 149.624L244.397 152.229C244.232 153.094 244.419 153.988 244.918 154.716C245.416 155.444 246.186 155.945 247.056 156.11C247.487 156.192 247.93 156.188 248.36 156.1C248.79 156.011 249.197 155.839 249.56 155.594C249.922 155.348 250.233 155.034 250.473 154.67C250.713 154.305 250.878 153.897 250.958 153.468L251.461 150.863C251.543 150.436 251.539 149.996 251.449 149.57C251.36 149.143 251.187 148.739 250.94 148.379C250.693 148.019 250.377 147.711 250.01 147.473C249.643 147.234 249.232 147.07 248.801 146.989V146.989Z" fill="white"/>
<path d="M251.277 158.931C251.359 158.503 251.526 158.095 251.766 157.731C252.007 157.367 252.318 157.054 252.681 156.809C253.044 156.564 253.452 156.393 253.882 156.305C254.311 156.217 254.754 156.214 255.185 156.296C255.616 156.376 256.026 156.541 256.393 156.78C256.76 157.018 257.075 157.326 257.322 157.686C257.568 158.046 257.741 158.451 257.83 158.877C257.918 159.303 257.922 159.743 257.839 160.17L257.336 162.781C257.255 163.209 257.089 163.616 256.849 163.981C256.609 164.345 256.298 164.658 255.936 164.903C255.573 165.148 255.166 165.319 254.737 165.407C254.307 165.495 253.865 165.498 253.434 165.416C252.563 165.252 251.794 164.75 251.296 164.023C250.797 163.295 250.609 162.401 250.774 161.536L251.277 158.931Z" fill="white"/>
<path d="M230.242 151.579C229.811 151.497 229.368 151.5 228.939 151.588C228.509 151.676 228.101 151.847 227.738 152.092C227.375 152.337 227.064 152.65 226.823 153.014C226.582 153.378 226.416 153.786 226.334 154.214L225.837 156.825C225.755 157.253 225.758 157.692 225.847 158.118C225.935 158.544 226.108 158.949 226.355 159.309C226.601 159.669 226.917 159.977 227.283 160.216C227.65 160.454 228.06 160.619 228.491 160.7C228.922 160.782 229.365 160.779 229.794 160.69C230.224 160.602 230.632 160.431 230.995 160.186C231.358 159.942 231.669 159.628 231.91 159.264C232.151 158.9 232.317 158.492 232.399 158.064L232.896 155.459C232.978 155.032 232.975 154.592 232.887 154.165C232.798 153.738 232.625 153.333 232.379 152.973C232.133 152.613 231.817 152.304 231.45 152.065C231.084 151.825 230.673 151.66 230.242 151.579V151.579Z" fill="white"/>
<path fill-rule="evenodd" clip-rule="evenodd" d="M238.42 211.43C239.732 210.997 240.742 211.079 241.449 211.677C242.055 212.387 242.116 213.325 241.697 214.685C241.27 216.025 240.504 217.235 239.474 218.199L236.16 221.49L239.31 235.098C239.351 235.279 239.334 235.468 239.262 235.639C239.191 235.811 239.068 235.956 238.91 236.055L236.414 237.619H236.366C236.157 237.729 235.913 237.754 235.687 237.687C235.46 237.621 235.269 237.469 235.154 237.264L229.87 227.716L224.539 233.011L225.629 236.976C225.66 237.081 225.661 237.193 225.632 237.299C225.603 237.405 225.546 237.501 225.466 237.577L223.484 239.539C223.422 239.6 223.349 239.648 223.267 239.68C223.186 239.712 223.099 239.728 223.012 239.725H222.969C222.777 239.701 222.601 239.604 222.478 239.454L218.589 234.304L213.396 230.442C213.318 230.39 213.253 230.32 213.207 230.239C213.161 230.157 213.134 230.066 213.129 229.973C213.125 229.879 213.139 229.786 213.172 229.698C213.204 229.61 213.253 229.53 213.317 229.461L215.293 227.482C215.353 227.419 215.427 227.369 215.508 227.337C215.59 227.305 215.677 227.291 215.765 227.295C215.819 227.281 215.875 227.281 215.929 227.295L219.928 228.378L225.259 223.084L215.48 217.483C215.409 217.441 215.344 217.391 215.286 217.332C215.202 217.249 215.136 217.15 215.09 217.041C215.045 216.932 215.021 216.815 215.021 216.698C215.021 216.58 215.045 216.463 215.09 216.354C215.136 216.245 215.202 216.146 215.286 216.063L217.51 213.903C217.62 213.797 217.754 213.721 217.902 213.681C218.049 213.641 218.204 213.639 218.352 213.674L231.561 216.809L234.851 213.536C235.861 212.57 237.082 211.849 238.42 211.43Z" fill="white"/>
<path fill-rule="evenodd" clip-rule="evenodd" d="M286.701 236.673C286.859 235.894 286.7 235.086 286.259 234.423L279.061 223.593C278.946 223.422 278.902 223.213 278.938 223.01C278.974 222.808 279.088 222.626 279.255 222.504C279.34 222.441 279.439 222.396 279.543 222.373C279.648 222.35 279.756 222.35 279.861 222.372L301.515 226.728C301.616 226.748 301.711 226.788 301.796 226.845C301.881 226.902 301.954 226.975 302.01 227.06C302.067 227.145 302.106 227.24 302.125 227.34C302.144 227.44 302.142 227.543 302.121 227.642C302.1 227.747 302.059 227.846 301.998 227.934C301.938 228.022 301.86 228.097 301.77 228.154L290.912 235.331C290.246 235.771 289.782 236.454 289.622 237.233L287.665 246.829C287.597 247.177 287.653 247.539 287.825 247.851C287.996 248.162 288.272 248.405 288.604 248.537L292.348 250.09C292.625 250.201 292.87 250.378 293.061 250.606C293.252 250.834 293.384 251.105 293.445 251.395C293.546 251.749 293.591 252.116 293.578 252.484C293.536 252.682 293.417 252.856 293.247 252.969C293.077 253.081 292.87 253.123 292.669 253.086L277.71 250.077C277.609 250.058 277.513 250.019 277.427 249.962C277.342 249.905 277.269 249.832 277.213 249.747C277.156 249.662 277.117 249.566 277.099 249.466C277.08 249.366 277.082 249.263 277.104 249.163C277.234 248.818 277.418 248.495 277.649 248.206C277.823 247.974 278.051 247.786 278.314 247.659C278.577 247.532 278.866 247.47 279.158 247.478H283.211C283.568 247.485 283.915 247.369 284.195 247.149C284.474 246.93 284.669 246.621 284.744 246.275L286.701 236.673Z" fill="white"/>
<path fill-rule="evenodd" clip-rule="evenodd" d="M315.156 166.073C314.652 165.96 314.124 166.049 313.687 166.322C313.249 166.595 312.939 167.029 312.823 167.529C312.709 168.029 312.8 168.552 313.075 168.986C313.35 169.419 313.787 169.726 314.29 169.839C314.793 169.953 315.32 169.864 315.757 169.592C316.194 169.321 316.506 168.888 316.622 168.389C316.737 167.889 316.646 167.364 316.371 166.93C316.097 166.496 315.66 166.188 315.156 166.073V166.073ZM302.802 161.898C301.841 161.681 300.861 161.566 299.876 161.555L298.379 159.19C298.288 159.047 298.17 158.922 298.031 158.824C297.891 158.726 297.734 158.656 297.567 158.619C297.232 158.543 296.881 158.603 296.59 158.785C296.299 158.966 296.093 159.255 296.016 159.587L295.41 162.295C293.013 163.115 290.965 164.716 289.6 166.837L289.073 166.717C288.74 166.642 288.397 166.633 288.061 166.69C287.725 166.748 287.404 166.87 287.116 167.05C286.828 167.231 286.579 167.466 286.382 167.742C286.185 168.018 286.046 168.33 285.97 168.66L285.364 171.169C285.212 171.836 285.333 172.536 285.7 173.114C286.067 173.693 286.65 174.103 287.322 174.255L288.382 174.496C288.733 175.88 289.35 177.183 290.199 178.334C290.652 178.988 290.955 179.733 291.086 180.516C291.217 181.299 291.173 182.101 290.957 182.865C290.927 182.955 290.902 183.039 290.878 183.123L290.842 183.262C290.774 183.557 290.765 183.863 290.816 184.162C290.867 184.461 290.977 184.747 291.14 185.003C291.303 185.26 291.515 185.482 291.764 185.657C292.013 185.832 292.295 185.957 292.593 186.023L292.811 186.071C293.44 186.209 294.098 186.11 294.658 185.793C295.218 185.477 295.639 184.965 295.84 184.357L296.343 182.817C296.843 182.993 297.353 183.139 297.87 183.256C299.492 183.624 301.167 183.695 302.814 183.466L302.208 185.56C302.191 185.611 302.176 185.663 302.166 185.717C302.125 185.9 302.104 186.088 302.105 186.276C302.111 186.817 302.3 187.341 302.641 187.762C302.983 188.183 303.458 188.478 303.99 188.598L304.444 188.701C305.03 188.833 305.645 188.76 306.183 188.494C306.721 188.227 307.149 187.784 307.395 187.239C308.711 184.307 309.754 181.952 310.521 180.175C311.228 178.515 311.723 177.292 312.006 176.505C312.152 176.112 312.273 175.71 312.369 175.302C312.477 174.837 312.55 174.364 312.587 173.888C313.023 168.468 308.909 163.282 302.802 161.898V161.898ZM296.501 169.063C296.387 169.563 296.077 169.996 295.641 170.27C295.205 170.543 294.677 170.632 294.174 170.519C293.671 170.404 293.234 170.096 292.959 169.662C292.684 169.228 292.594 168.703 292.708 168.203C292.822 167.703 293.131 167.27 293.568 166.997C294.004 166.723 294.532 166.634 295.034 166.747C295.533 166.867 295.965 167.177 296.235 167.611C296.504 168.045 296.591 168.566 296.477 169.063H296.501Z" fill="white"/>
<path d="M514.038 499.606C504.266 509.945 493.735 519.55 482.531 528.34C466.515 540.929 449.194 551.787 430.86 560.732C428.8 561.738 426.726 562.719 424.638 563.674H420.784C408.08 547.237 391.661 533.997 372.852 525.025L360.879 519.279C348.556 513.41 338.046 504.363 330.445 493.084L303.877 448.064C301.952 444.769 300.81 441.082 300.538 437.282L297.975 404.193L297.866 402.815L296.939 390.86C296.903 390.563 296.891 390.263 296.903 389.964C296.977 388.52 297.46 387.125 298.296 385.941C299.132 384.757 300.287 383.83 301.629 383.268C302.525 382.849 303.508 382.646 304.498 382.676C305.488 382.707 306.456 382.969 307.324 383.442C314.88 387.726 324.35 396.931 330.07 416.737L330.748 418.241L335.28 428.252C337.925 434.113 341.285 439.629 345.284 444.677L344.617 441.139L334.699 388.544C332.736 378.136 330.34 367.88 327.513 357.777C325.877 351.929 324.1 346.145 322.181 340.425C321.373 338.043 320.549 335.67 319.709 333.308C319.57 332.911 319.43 332.514 319.285 332.105L314.819 319.813L311.966 311.962L311.257 310.019L304.592 291.621L302.992 287.217L301.459 283.006L300.647 280.767L296.758 270.07L296.224 268.596L295.618 266.996L295.188 265.793C293.437 260.98 295.479 255.102 300.114 251.666C302.495 249.847 305.444 248.919 308.445 249.043C309 249.077 309.551 249.153 310.093 249.272V249.272C310.869 249.432 311.622 249.686 312.335 250.03C313.054 250.367 313.725 250.798 314.329 251.311C315.185 252.009 315.909 252.852 316.467 253.802L320.569 260.865L324.647 267.898L324.774 268.115L326.725 271.484V271.532L339.794 294.045L351.627 314.435C357.062 323.833 361.182 333.923 363.873 344.426C363.909 344.541 363.939 344.661 363.97 344.781C364.429 344.682 364.895 344.612 365.363 344.571C368.806 344.251 372.279 344.586 375.597 345.557C381.023 347.157 386.001 349.987 390.138 353.824C390.138 353.824 411.429 349.227 417.906 362.199C417.906 362.199 446.571 369.418 449.049 379.556C451.527 389.693 502.435 442.727 504.071 490.756L514.038 499.606Z" fill="white"/>
<path d="M345.225 442.167C345.225 442.167 348.527 458.357 354.84 464.759C354.84 464.759 336.821 453.99 330.071 414.336L345.225 442.167Z" fill="black"/>
<path d="M312.009 251.091C309.331 246.524 304.526 250.639 302.042 253.292C301.542 253.829 301.202 254.493 301.06 255.21C300.918 255.927 300.979 256.669 301.236 257.353C302.557 260.921 305.417 267.545 308.507 267.666C312.663 267.84 321.352 267.04 312.009 251.091Z" fill="black"/>
<path d="M305.319 382.734C305.319 382.734 312.887 409.278 297.988 404.182L296.916 389.899C296.916 389.899 296.619 382.68 305.319 382.734Z" fill="black"/>
</svg>
