<svg width="32" height="32" viewBox="0 0 32 32" fill="none" xmlns="http://www.w3.org/2000/svg">
<path fill-rule="evenodd" clip-rule="evenodd" d="M20.5618 6.62453L18.1513 6.62067C15.4431 6.62067 13.6929 8.41627 13.6929 11.1954V13.3047H11.2692C11.0597 13.3047 10.8901 13.4745 10.8901 13.684V16.7401C10.8901 16.9495 11.0599 17.1191 11.2692 17.1191H13.6929V24.8306C13.6929 25.0401 13.8625 25.2097 14.0719 25.2097H17.2342C17.4437 25.2097 17.6133 25.0399 17.6133 24.8306V17.1191H20.4472C20.6566 17.1191 20.8262 16.9495 20.8262 16.7401L20.8274 13.684C20.8274 13.5834 20.7873 13.4871 20.7164 13.4159C20.6454 13.3448 20.5487 13.3047 20.4481 13.3047H17.6133V11.5167C17.6133 10.6573 17.8181 10.221 18.9376 10.221L20.5615 10.2204C20.7707 10.2204 20.9403 10.0506 20.9403 9.84135V7.00357C20.9403 6.79452 20.7709 6.62492 20.5618 6.62453Z" fill="white"/>
</svg>
