<svg width="479" height="120" viewBox="0 0 479 120" fill="none" xmlns="http://www.w3.org/2000/svg">
<path d="M291.743 34.1236C284.038 34.1236 277.986 35.7765 271.93 39.0761C271.93 21.4627 271.93 5.50237 272.483 0L235.601 6.60221V9.9049L239.453 10.4548C244.403 11.5547 246.062 14.3043 247.152 20.9128C248.262 34.1236 247.705 104.58 247.152 116.141C257.06 118.344 267.521 119.997 277.983 119.997C307.157 119.997 324.77 101.83 324.77 73.206C324.77 50.6403 310.46 34.1236 291.743 34.1236ZM279.082 113.938C276.88 113.938 274.124 113.938 272.477 113.391C271.924 105.686 271.377 73.206 271.924 44.5848C275.227 43.4818 277.426 42.9318 280.182 42.9318C292.3 42.9318 298.905 57.2425 298.905 74.8526C298.902 96.878 290.643 113.938 279.082 113.938ZM96.8812 2.19968H0V7.15213L5.50555 7.70205C12.6577 8.80189 15.4136 13.2044 16.5103 23.6624C18.1664 43.4786 17.6133 79.2615 16.5103 96.3185C15.4105 106.78 12.6609 111.735 5.50555 112.279L0 113.385V117.788H62.2013V113.385L55.5959 112.279C48.4406 111.732 45.6878 106.78 44.588 96.3185C44.0349 89.16 43.4849 77.599 43.4849 63.2916L56.6957 63.8415C64.954 63.8415 68.8035 70.4469 70.4564 79.8019H75.412V40.7322H70.4564C68.8003 50.0903 64.954 56.6925 56.6957 56.6925L43.4881 57.2456C43.4881 38.5293 44.038 20.916 44.5911 10.458H63.8542C78.7211 10.458 86.4263 19.813 91.9287 36.3296L97.4342 34.6767L96.8812 2.19968Z" fill="white"/>
<path d="M128.258 33.0237C155.783 33.0237 169.544 51.7401 169.544 76.5087C169.544 100.177 154.13 120 126.605 120C99.0839 120 85.3232 101.28 85.3232 76.5087C85.3232 52.8399 100.734 33.0237 128.258 33.0237V33.0237ZM126.605 38.5293C114.494 38.5293 111.192 55.0428 111.192 76.5087C111.192 97.4247 116.697 114.488 127.708 114.488C140.36 114.488 143.669 97.9746 143.669 76.5087C143.669 55.5927 138.17 38.5293 126.605 38.5293ZM331.922 77.0618C331.922 54.4928 346.233 33.0237 374.307 33.0237C397.42 33.0237 408.434 50.0903 408.434 72.6561H357.241C356.688 93.0222 366.596 107.886 386.415 107.886C395.223 107.886 399.626 105.689 405.135 101.834L407.331 104.583C401.826 112.288 389.718 120 374.307 120C349.536 119.997 331.922 102.384 331.922 77.0618V77.0618ZM357.241 66.6038L383.112 66.0507C383.112 55.0428 381.46 38.5293 372.105 38.5293C362.75 38.5293 357.788 53.9398 357.241 66.6038V66.6038ZM473.948 37.4295C467.342 34.6735 458.537 33.0237 448.629 33.0237C428.266 33.0237 415.599 45.1315 415.599 59.4453C415.599 73.7591 424.948 79.8114 438.174 84.2171C451.932 89.1664 455.788 93.0222 455.788 99.6276C455.788 106.233 450.832 112.285 442.024 112.285C431.569 112.285 423.857 106.233 417.805 89.7163L413.949 90.8225L414.502 115.041C421.108 117.791 433.216 119.997 443.677 119.997C465.146 119.997 478.91 108.983 478.91 91.9223C478.91 80.3613 472.851 73.7591 458.54 68.2504C443.124 62.1981 437.624 58.3455 437.624 51.187C437.624 44.0317 442.586 39.076 449.192 39.076C459.094 39.076 465.699 45.1315 470.661 59.9952L474.51 58.8954L473.948 37.4295V37.4295ZM241.1 35.2266C231.745 29.7274 215.228 32.4738 206.423 52.2932L206.97 33.0269L170.093 40.1822V43.4849L173.946 44.0348C178.905 44.5879 181.101 47.3375 181.654 54.496C182.754 67.7068 182.204 90.8288 181.654 102.387C181.101 108.986 178.905 112.288 173.946 112.842L170.093 113.395V117.797H221.284V113.395L214.678 112.842C209.176 112.288 207.523 108.986 206.97 102.387C205.87 91.9255 205.87 71.0095 206.423 57.7987C209.173 53.9429 221.284 50.6434 232.292 57.7987L241.1 35.2266V35.2266Z" fill="white"/>
</svg>
