<svg width="138" height="33" viewBox="0 0 138 33" fill="none" xmlns="http://www.w3.org/2000/svg">
<path fill-rule="evenodd" clip-rule="evenodd" d="M1.45324 0.990569C1.095 1.37719 0.889099 1.97224 0.889099 2.74547V30.249C0.889099 31.0222 1.095 31.6173 1.46664 31.9904L1.56373 32.0728L16.9112 16.662V16.3157L1.55034 0.908203L1.45324 0.990569Z" fill="url(#paint0_linear_5044_13738)"/>
<path fill-rule="evenodd" clip-rule="evenodd" d="M22.017 21.8195L16.8978 16.6775V16.3178L22.0186 11.1758L22.1291 11.2447L28.1857 14.7007C29.92 15.6824 29.92 17.2994 28.1857 18.2946L22.1291 21.7506C22.1274 21.7506 22.017 21.8195 22.017 21.8195Z" fill="url(#paint1_linear_5044_13738)"/>
<path fill-rule="evenodd" clip-rule="evenodd" d="M22.1274 21.7505L16.8978 16.4976L1.45325 32.0059C2.01739 32.6144 2.96656 32.6833 4.02789 32.0883L22.1274 21.7505Z" fill="url(#paint2_linear_5044_13738)"/>
<path fill-rule="evenodd" clip-rule="evenodd" d="M22.1274 11.246L4.02789 0.921671C2.96824 0.313171 2.01739 0.395537 1.45325 1.00404L16.8961 16.4973L22.1274 11.246Z" fill="url(#paint3_linear_5044_13738)"/>
<path opacity="0.2" fill-rule="evenodd" clip-rule="evenodd" d="M22.0169 21.6392L4.04126 31.8946C3.03685 32.4745 2.14124 32.4342 1.56371 31.908L1.46661 32.0055L1.56371 32.0879C2.14124 32.6123 3.03685 32.6544 4.04126 32.0744L22.1408 21.7501L22.0169 21.6392Z" fill="black"/>
<path opacity="0.12" fill-rule="evenodd" clip-rule="evenodd" d="M28.184 18.1146L22.0035 21.6396L22.114 21.7505L28.1706 18.2945C29.0378 17.7969 29.4647 17.1481 29.4647 16.4976C29.4094 17.0926 28.9691 17.6591 28.184 18.1146Z" fill="black"/>
<path opacity="0.25" fill-rule="evenodd" clip-rule="evenodd" d="M4.02789 1.10164L28.184 14.882C28.9691 15.3241 29.4094 15.904 29.478 16.499C29.478 15.8502 29.0512 15.1997 28.184 14.7021L4.02789 0.921777C2.2936 -0.0733396 0.889099 0.755364 0.889099 2.7456V2.92546C0.889099 0.935224 2.2936 0.119968 4.02789 1.10164Z" fill="white"/>
<path fill-rule="evenodd" clip-rule="evenodd" d="M35.374 15.6247C35.374 11.219 39.0618 7.63184 43.4494 7.63184C45.8751 7.63184 47.601 8.58829 48.9034 9.83387L47.37 11.3736C46.4392 10.4962 45.177 9.81538 43.4478 9.81538C40.2437 9.81538 37.7393 12.4057 37.7393 15.623C37.7393 18.8403 40.2437 21.434 43.4461 21.434C45.5235 21.434 46.7054 20.5969 47.4637 19.8338C48.0848 19.2101 48.4916 18.3142 48.6489 17.0854H43.4494V14.9069H50.7683C50.8453 15.2969 50.8854 15.7642 50.8854 16.2702C50.8854 17.9057 50.4385 19.9346 49.0005 21.3786C47.601 22.841 45.8165 23.6209 43.4478 23.6209C39.0585 23.6209 35.3706 20.0372 35.3706 15.6281L35.374 15.6247ZM56.8014 13.3252C53.9673 13.3252 51.6538 15.4902 51.6538 18.4705C51.6538 21.4357 53.9656 23.6159 56.8014 23.6159C59.6372 23.6159 61.9457 21.4323 61.9457 18.4689C61.9457 15.4885 59.6355 13.3235 56.8014 13.3252ZM56.8014 21.592C55.2496 21.592 53.9087 20.3061 53.9087 18.4722C53.9087 16.6198 55.2479 15.3524 56.8014 15.3524C58.3533 15.3524 59.6925 16.6181 59.6925 18.4722C59.6925 20.3044 58.3549 21.592 56.8014 21.592ZM68.0257 13.3252C65.1916 13.3252 62.8815 15.4902 62.8815 18.4705C62.8815 21.4357 65.1916 23.6159 68.0257 23.6159C70.8599 23.6159 73.17 21.4323 73.17 18.4689C73.17 15.4885 70.8615 13.3235 68.0257 13.3252ZM68.0257 21.592C66.4739 21.592 65.133 20.3061 65.133 18.4722C65.133 16.6198 66.4723 15.3524 68.0257 15.3524C69.5776 15.3524 70.9185 16.6181 70.9185 18.4722C70.9185 20.3044 69.5776 21.592 68.0257 21.592ZM81.8013 13.6378V14.4749H81.7243C81.2204 13.8681 80.2495 13.3235 79.0274 13.3235C76.4645 13.3235 74.1125 15.586 74.1125 18.4924C74.1125 21.3752 76.4628 23.6193 79.0274 23.6193C80.2495 23.6193 81.2204 23.0746 81.7243 22.451H81.8013V23.1906C81.8013 25.159 80.7533 26.2129 79.0642 26.2129C77.6849 26.2129 76.8311 25.2178 76.4812 24.3824L74.5193 25.201C75.0817 26.5643 76.5783 28.2418 79.0626 28.2418C81.7008 28.2418 83.934 26.6802 83.934 22.8796V13.6362L81.8013 13.6378ZM79.2199 21.592C77.6681 21.592 76.3641 20.2843 76.3641 18.4924C76.3641 16.6803 77.6664 15.3541 79.2199 15.3541C80.7533 15.3541 81.957 16.6787 81.957 18.4924C81.9586 20.2843 80.755 21.592 79.2199 21.592ZM85.4891 8.17814H87.7424V23.3066H85.4891V8.17814ZM93.9178 21.592C92.7728 21.592 91.9559 21.0642 91.4353 20.0338L98.2887 17.1846L98.0527 16.5996C97.6275 15.4516 96.3251 13.3252 93.6651 13.3252C91.0251 13.3252 88.8305 15.4112 88.8305 18.4722C88.8305 21.355 91.005 23.6176 93.9178 23.6176C96.2682 23.6176 97.6275 22.177 98.1899 21.3365L96.4423 20.1683C95.858 21.0272 95.0612 21.5937 93.9178 21.592ZM93.7421 15.3137C94.6343 15.3137 95.391 15.7625 95.6438 16.4047L91.0603 18.3159C91.0034 16.3273 92.5954 15.3137 93.7421 15.3137Z" fill="white"/>
<path fill-rule="evenodd" clip-rule="evenodd" d="M108.175 8.17822H102.788V23.3067H105.037V17.5764H108.177C110.67 17.5764 113.121 15.7643 113.121 12.8764C113.121 9.99364 110.671 8.1799 108.181 8.1799L108.175 8.17822ZM108.234 15.4701H105.037V10.2828H108.234C109.915 10.2828 110.872 11.683 110.872 12.8764C110.872 14.0497 109.915 15.4701 108.234 15.4701ZM116.608 23.3067V8.17822H114.359V23.3067H116.608ZM126.707 23.2798V17.4805C126.707 14.7944 124.708 13.2967 122.128 13.2967C120.503 13.2967 118.817 14.0178 118.119 15.613L120.115 16.4484C120.541 15.613 121.335 15.339 122.17 15.339C123.332 15.339 124.514 16.04 124.532 17.2872V17.4436C124.126 17.2099 123.255 16.8586 122.187 16.8586C120.036 16.8586 117.846 18.0453 117.846 20.2642C117.846 22.2897 119.611 23.5924 121.588 23.5924C123.101 23.5924 123.933 22.9117 124.455 22.1149H124.532V23.2831H126.705L126.707 23.2798ZM121.861 21.5888C121.124 21.5888 120.096 21.219 120.096 20.3062C120.096 19.1379 121.377 18.6875 122.482 18.6875C123.471 18.6875 123.935 18.9009 124.537 19.1934C124.365 20.5516 123.222 21.5719 121.861 21.5888ZM134.613 13.6278L132.035 20.1852H131.958L129.283 13.6278H126.861L130.872 22.7957L128.583 27.894H130.929L137.111 13.6278H134.613Z" fill="white"/>
<defs>
<linearGradient id="paint0_linear_5044_13738" x1="15.533" y1="2.44983" x2="-9.06429" y2="8.97684" gradientUnits="userSpaceOnUse">
<stop stop-color="#00A0FF"/>
<stop offset="0.007" stop-color="#00A1FF"/>
<stop offset="0.26" stop-color="#00BEFF"/>
<stop offset="0.512" stop-color="#00D2FF"/>
<stop offset="0.76" stop-color="#00DFFF"/>
<stop offset="1" stop-color="#00E3FF"/>
</linearGradient>
<linearGradient id="paint1_linear_5044_13738" x1="30.4425" y1="16.4984" x2="0.467625" y2="16.4984" gradientUnits="userSpaceOnUse">
<stop stop-color="#FFE000"/>
<stop offset="0.409" stop-color="#FFBD00"/>
<stop offset="0.775" stop-color="#FFA500"/>
<stop offset="1" stop-color="#FF9C00"/>
</linearGradient>
<linearGradient id="paint2_linear_5044_13738" x1="19.2837" y1="19.3552" x2="-0.57293" y2="52.6376" gradientUnits="userSpaceOnUse">
<stop stop-color="#FF3A44"/>
<stop offset="1" stop-color="#C31162"/>
</linearGradient>
<linearGradient id="paint3_linear_5044_13738" x1="-2.43452" y1="-8.15842" x2="6.42415" y2="6.7061" gradientUnits="userSpaceOnUse">
<stop stop-color="#32A071"/>
<stop offset="0.069" stop-color="#2DA771"/>
<stop offset="0.476" stop-color="#15CF74"/>
<stop offset="0.801" stop-color="#06E775"/>
<stop offset="1" stop-color="#00F076"/>
</linearGradient>
</defs>
</svg>
