<svg width="64" height="65" viewBox="0 0 64 65" fill="none" xmlns="http://www.w3.org/2000/svg">
<path d="M0 32.4023C0 14.7292 14.3269 0.402344 32 0.402344V0.402344C49.6731 0.402344 64 14.7292 64 32.4023V32.4023C64 50.0755 49.6731 64.4023 32 64.4023V64.4023C14.3269 64.4023 0 50.0755 0 32.4023V32.4023Z" fill="#34CC8D"/>
<path d="M38.421 19.2862C38.0162 16.1077 35.161 13.6445 31.699 13.6445C27.9594 13.6445 24.9279 16.5185 24.9279 20.0638C24.9279 20.2336 24.9348 20.4019 24.9487 20.5683C24.6488 20.518 24.3402 20.4918 24.0251 20.4918C21.1165 20.4918 18.7586 22.7271 18.7586 25.4846C18.7586 27.159 19.628 28.6408 20.9622 29.5466C20.1442 30.6076 19.6614 31.9155 19.6614 33.3303C19.6614 36.8756 22.693 39.7496 26.4326 39.7496C27.3631 39.7496 28.2498 39.5717 29.0568 39.2497C29.7027 40.6879 30.4953 42.8404 30.4953 44.7425C30.4953 46.9579 29.7784 49.1733 29.3343 50.3332C29.1849 50.7235 29.4704 51.1618 29.8883 51.1618H34.0044C34.4473 51.1618 34.7454 50.6666 34.5745 50.2581C34.1301 49.1961 33.5047 47.2552 33.5047 44.7425C33.5047 42.3217 34.3753 40.1567 35.0351 38.8634C36.0422 39.4266 37.2164 39.7496 38.4702 39.7496C42.2098 39.7496 45.2414 36.8756 45.2414 33.3303C45.2414 31.3067 44.2537 29.5018 42.7104 28.3253C44.228 27.4491 45.2414 25.8657 45.2414 24.058C45.2414 21.3006 42.8835 19.0653 39.9749 19.0653C39.434 19.0653 38.9121 19.1426 38.421 19.2862Z" fill="white"/>
</svg>
