<svg width="32" height="32" viewBox="0 0 32 32" fill="none" xmlns="http://www.w3.org/2000/svg">
<path fill-rule="evenodd" clip-rule="evenodd" d="M24.5977 13.6551H24.2741C23.4636 10.7788 21.2219 8.53639 18.3448 7.72586V7.40228C18.3448 6.97083 17.9954 6.62067 17.5632 6.62067H14.4368C14.0045 6.62067 13.6551 6.97083 13.6551 7.40228V7.72586C10.778 8.53639 8.53639 10.7788 7.72586 13.6551H7.40228C6.97005 13.6551 6.62067 14.0053 6.62067 14.4368V17.5632C6.62067 17.9946 6.97005 18.3448 7.40228 18.3448H7.72586C8.53639 21.2211 10.778 23.4636 13.6551 24.2741V24.5977C13.6551 25.0291 14.0045 25.3793 14.4368 25.3793H17.5632C17.9954 25.3793 18.3448 25.0291 18.3448 24.5977V24.2741C21.2219 23.4636 23.4636 21.2211 24.2741 18.3448H24.5977C25.0299 18.3448 25.3793 17.9946 25.3793 17.5632V14.4368C25.3793 14.0053 25.0299 13.6551 24.5977 13.6551ZM16 19.1264C14.2757 19.1264 12.8735 17.7242 12.8735 16C12.8735 14.2757 14.2757 12.8735 16 12.8735C17.7242 12.8735 19.1264 14.2757 19.1264 16C19.1264 17.7242 17.7242 19.1264 16 19.1264ZM22.6296 13.6551H20.055C19.6438 12.9462 19.0537 12.3561 18.3448 11.945V9.37037C20.3512 10.0754 21.9246 11.6488 22.6296 13.6551ZM13.6551 9.37037V11.945C12.9462 12.3561 12.3561 12.9462 11.945 13.6551H9.37037C10.0754 11.6488 11.6488 10.0754 13.6551 9.37037ZM9.37037 18.3448H11.945C12.3561 19.0537 12.9462 19.6438 13.6551 20.055V22.6296C11.6488 21.9246 10.0754 20.3512 9.37037 18.3448ZM18.3448 22.6296V20.055C19.0537 19.6438 19.6438 19.0529 20.055 18.3448H22.6296C21.9246 20.3512 20.3512 21.9246 18.3448 22.6296Z" fill="white"/>
</svg>
