<svg width="608" height="609" viewBox="0 0 608 609" fill="none" xmlns="http://www.w3.org/2000/svg">
<g clip-path="url(#clip0_1976_83918)">
<path d="M302.564 574.81C435.015 574.81 542.387 467.438 542.387 334.987C542.387 202.537 435.015 95.1641 302.564 95.1641C170.114 95.1641 62.7412 202.537 62.7412 334.987C62.7412 467.438 170.114 574.81 302.564 574.81Z" fill="#0080FF"/>
<path d="M287.62 427.631C291.426 413.676 291.383 394.943 290.784 389.554C290.186 384.165 279.289 366.669 275.923 357.643C272.557 348.617 276.614 345.909 273.767 343.602C272.422 342.507 271.324 342.388 270.544 342.567C274.068 309.852 278.832 265.454 283.177 224.404C283.62 224.434 283.99 224.457 284.228 224.477L294.9 117.823C294.719 117.846 294.431 117.869 294.074 117.896C294.302 115.271 294.404 113.598 294.404 113.029C294.404 113.029 292.279 111.611 289.819 112.474L289.201 118.398C288.837 118.458 288.49 118.524 288.172 118.597C283.461 119.691 275.645 122.039 264.067 127.051C242.848 136.242 207.455 138.328 185.866 139.029C177.673 139.297 169.778 139.74 162.723 140.15C149.115 149.933 136.563 161.108 125.271 173.492C125.271 173.793 125.271 174.097 125.271 174.402C125.189 179.986 125.43 185.571 125.991 191.128C126.395 195.123 127.001 199.096 127.806 203.03C128.19 204.888 128.537 206.624 128.848 208.25C130.296 215.755 131.03 220.883 131.43 224.583C132.399 233.582 131.407 234.171 133.9 240.059C133.9 240.059 174.523 236.207 187.486 238.148C200.45 240.089 219.401 226.94 230.893 224.017C239.605 221.806 265.588 223.24 277.642 224.067L278.155 224.1L266.041 339.767C265.575 339.277 265.084 338.813 264.57 338.375C262.817 336.933 258.886 337.505 256.37 337.356C253.854 337.208 249.404 338.818 248.009 343.017C246.614 347.215 250.227 355.993 250.227 355.993C247.721 359.59 244.547 370.64 243.658 374.068C242.769 377.497 242.081 377.454 237.928 381.755C233.776 386.056 235.541 387.233 234.454 390.113C233.366 392.993 230.175 396.55 230.665 403.804C231.154 411.058 245.566 438.932 248.009 444.159C250.452 449.386 248.465 479.237 243.767 523.914C242.238 538.239 241.589 552.645 241.823 567.049C259.065 571.544 276.754 574.102 294.563 574.677C292.441 547.543 285.798 518.29 284.007 492.975C281.619 459.387 283.818 441.59 287.62 427.631Z" fill="black"/>
<g style="mix-blend-mode:multiply">
<path d="M362.581 496.835C359.371 455.277 358.204 427.535 360.373 422.747C362.542 417.96 375.28 392.456 375.826 385.741C376.371 379.026 373.72 375.644 372.85 372.946C371.981 370.248 373.512 369.204 370.047 365.107C366.582 361.011 366.01 361.031 365.312 357.834C364.615 354.637 362.112 344.305 360.046 340.903C360.046 340.903 363.269 332.852 362.158 328.925C361.047 324.997 357.292 323.39 355.152 323.463C354.045 323.503 352.623 323.357 351.297 323.38C351.169 319.277 351.02 314.589 350.858 309.425C352.138 310.501 353.353 311.654 354.495 312.876C357.986 316.649 357.51 318.166 358.363 318.53C358.363 318.53 358.994 307.325 359.593 292.011C359.595 292.005 359.595 291.998 359.593 291.991C359.943 282.989 360.294 272.561 360.508 262.157C360.839 245.774 360.839 229.445 359.966 218.816C359.553 213.705 358.974 207.129 358.293 199.607V199.584C357.139 187.166 355.648 172.169 353.919 156.908V156.888C352.656 145.753 351.274 134.479 349.8 123.962C348.533 114.923 347.208 106.439 345.832 99.0861C343.271 98.6167 340.695 98.1902 338.102 97.8066L338.896 114.288C336.971 119.796 334.733 125.189 332.194 130.442C316.738 162.793 312.635 183.592 306.076 214.197C299.516 244.802 290.067 277.312 290.067 277.312C290.067 277.312 296.316 279.339 305.735 283.409C309.577 285.062 313.958 287.085 318.652 289.446C323.347 291.806 328.455 294.547 333.619 297.628C334.376 298.075 335.13 298.531 335.887 298.997C339.855 301.431 343.082 303.576 345.71 305.467L346.427 325.933C345.227 327.255 344.113 328.697 344.113 328.697C344.113 328.697 342.682 326.762 340.225 328.832C337.769 330.902 341.167 333.514 338.145 341.806C335.124 350.097 325.559 366.06 324.957 371.042C324.355 376.024 323.985 393.398 326.974 406.441C329.963 419.484 331.517 436.048 328.908 467.146C326.888 491.195 321.172 539.336 319.366 574.239C334.261 573.212 349.027 570.794 363.471 567.015C364.066 546.127 364.281 518.815 362.581 496.835Z" fill="black"/>
</g>
<path d="M538.623 292.428C521.556 277.527 503.703 262.54 503.703 262.54L490.217 250.085L448.625 210.682C448.807 207.108 448.89 204.857 448.843 204.179C448.843 204.179 446.281 202.857 443.451 203.816L443.223 207.075C442.503 206.879 441.757 206.793 441.011 206.821L434.399 313.61C434.81 314.053 435.252 314.466 435.721 314.847L429.555 403.27C429.152 402.791 427.948 401.773 425.737 403.27C422.953 405.138 426.067 408.097 421.858 416.211C417.65 424.324 405.757 439.595 404.465 444.584C403.172 449.573 400.431 467.136 401.691 480.621C402.95 494.107 402.276 511.038 395.383 542.275C394.411 546.679 393.207 551.883 391.845 557.662C404.359 552.638 416.426 546.564 427.915 539.504C429.638 517.495 431.46 503.427 433.404 500.267C436.263 495.618 452.685 470.987 454.153 464.229C455.621 457.472 453.389 453.808 452.87 451.005C452.351 448.201 454.037 447.275 451.085 442.805C448.133 438.336 447.534 438.302 447.263 434.996C446.992 431.69 445.855 420.995 444.218 417.358C444.218 417.358 448.589 409.506 447.997 405.423C447.405 401.339 443.801 399.362 441.616 399.24C439.861 399.141 437.378 398.509 435.582 398.873C437.394 374.014 439.394 346.331 441.285 319.816C463.255 339.359 495.808 357.893 521.893 365.243C527.203 366.74 533.293 368.942 539.641 371.524C543.637 345.294 543.302 318.586 538.649 292.464L538.623 292.428Z" fill="black"/>
<path d="M202.892 494.577C204.169 484.506 201.501 471.817 200.247 468.263C198.994 464.709 187.258 454.599 183.128 449.021C178.999 443.444 182.067 440.958 179.323 439.85C179.032 439.731 178.731 439.638 178.423 439.572C176.463 413.854 174.218 384.607 172.043 356.647C172.719 355.973 173.27 355.183 173.669 354.316L163.751 245.391C163.477 245.195 163.17 245.05 162.845 244.964C162.693 243.592 162.577 242.693 162.494 242.319C160.779 241.803 158.932 241.962 157.33 242.762L157.72 247.665C152.166 254.129 142.76 265.436 131.297 279.362C123.058 289.369 113.775 300.726 104.064 312.609C95.2401 323.423 86.0886 334.671 77.1057 345.727C72.7548 351.089 68.4403 356.409 64.2117 361.613C66.161 379.297 70.0822 396.707 75.9023 413.52C78.6332 408.481 81.5228 403.356 83.2949 400.255C101.565 391.659 123.144 382.504 135.331 378.398C151.352 372.999 162.471 364.843 166.739 361.368L172.889 438.888C172.198 438.484 171.485 438.12 170.753 437.797C169.06 437.103 165.794 438.127 163.638 438.422C161.483 438.716 157.922 440.531 157.327 443.602C156.732 446.674 161.033 452.04 161.033 452.04C159.41 454.88 158.262 462.877 157.988 465.344C157.714 467.81 157.122 467.89 154.196 471.473C151.27 475.057 152.936 475.57 152.417 477.696C151.898 479.822 149.683 482.744 151.118 487.581C152.553 492.418 168.723 508.995 171.537 512.146C173.395 514.226 175.117 523.906 176.731 539.181C189.216 546.897 202.386 553.446 216.074 558.743C213.373 552.131 210.864 545.667 208.989 539.448C202.231 517.059 201.606 504.644 202.892 494.577Z" fill="black"/>
<path d="M137.663 245.927C137.663 245.927 134.975 245.246 132.552 246.77L176.378 512.636L181.49 511.793C181.49 511.793 140.129 253.978 137.663 245.927Z" fill="white"/>
<path d="M149.995 341.409L146.861 323.714L143.571 305.127L140.218 286.097L137.005 267.939L133.95 250.684C136.595 247.123 139.16 248.816 139.16 248.816L157.84 354.369C157.51 355.424 156.389 357.176 153.301 360.033L149.995 341.409Z" fill="white"/>
<path d="M57.8283 414.283C51.5465 418.072 46.4914 421.394 43.5754 423.752C41.9223 425.074 39.9154 426.549 37.6871 428.076C31.6103 432.232 23.8904 436.861 17.2384 440.696C9.08536 445.387 2.53914 448.892 2.53914 448.892C2.53914 448.892 -1.42827 444.475 0.555437 440.719C0.978627 439.916 6.29165 432.123 14.6067 420.108C14.6067 420.108 45.7806 403.396 62.4999 392.455C79.2192 381.515 90.6024 373.838 100.567 370.873C110.532 367.907 111.362 367.474 111.362 367.474C111.362 367.474 123.767 359.493 132.935 351.73C138.069 347.45 143.821 343.971 149.994 341.408L153.301 360.022C153.301 360.022 141.729 372.41 121.594 380.894C109.778 385.853 89.0088 396.499 71.496 406.351C66.593 409.099 61.9511 411.79 57.8283 414.283Z" fill="#238647"/>
<path d="M56.1648 404.986C49.8831 408.775 44.828 412.098 41.9119 414.455C40.2588 415.778 38.252 417.256 36.0236 418.78C29.9469 422.939 22.227 427.564 15.5749 431.399L0.554988 440.733C0.224371 440.815 5.94736 432.19 14.6062 420.119C14.6062 420.119 45.7801 403.409 62.4994 392.466C79.2188 381.522 90.6019 373.852 100.567 370.883C110.532 367.914 111.361 367.484 111.361 367.484C111.361 367.484 123.766 359.503 132.934 351.744C138.069 347.464 143.82 343.984 149.994 341.422L151.647 350.732C151.647 350.732 140.076 363.12 119.941 371.601C108.125 376.56 87.3553 387.206 69.8392 397.058C64.9295 399.806 60.2876 402.497 56.1648 404.986Z" fill="#2F9B47"/>
<path d="M146.874 323.715L149.995 341.409C143.818 343.969 138.063 347.447 132.925 351.725C123.757 359.488 117.121 364.11 111.352 367.469C108.906 368.89 110.529 367.899 100.558 370.867C90.5861 373.836 79.2129 381.507 62.4903 392.45C45.7676 403.394 14.597 420.103 14.597 420.103C21.0011 410.846 29.1905 399.056 38.2924 385.993C38.2924 385.993 64.4112 370.808 76.9746 362.602C89.5381 354.396 119.35 344.21 129.735 334.407C140.119 324.604 146.874 323.715 146.874 323.715Z" fill="#62B64F"/>
<path d="M146.87 323.711L148.46 332.687C142.279 335.248 136.52 338.728 131.377 343.009C122.209 350.769 115.574 355.394 109.805 358.75C107.358 360.175 108.981 359.183 99.01 362.149C89.0386 365.114 77.6653 372.788 60.946 383.731C44.2267 394.675 26.0295 403.608 26.0295 403.608C32.4336 394.351 29.1836 399.055 38.2855 385.993C38.2855 385.993 64.4043 370.807 76.9678 362.601C89.5312 354.396 119.343 344.213 129.728 334.41C140.112 324.607 146.87 323.711 146.87 323.711Z" fill="#89CC53"/>
<path d="M143.584 305.127L146.873 323.714C146.873 323.714 140.109 324.61 129.721 334.413C119.333 344.216 89.4915 354.399 76.9611 362.608C64.4307 370.817 38.2789 385.999 38.2789 385.999C45.3938 375.79 53.0707 364.8 60.8931 353.619C74.4022 341.991 109.421 326.277 112.02 323.827C114.618 321.377 130.204 315.614 133.209 311.554C136.214 307.494 143.584 305.127 143.584 305.127Z" fill="#3DB8AD"/>
<path d="M143.583 305.127L145.213 314.616C145.213 314.616 138.449 315.508 128.061 325.314C117.673 335.121 87.8378 345.3 75.2975 353.506C62.7572 361.712 49.6813 369.667 49.6813 369.667C56.7962 359.457 53.0833 364.8 60.9057 353.622C74.4147 341.994 109.434 326.28 112.032 323.83C114.631 321.38 130.216 315.621 133.222 311.557C136.227 307.494 143.583 305.127 143.583 305.127Z" fill="#3394D7"/>
<path d="M140.218 286.096L143.583 305.126C143.583 305.126 136.221 307.497 133.225 311.557C130.23 315.617 114.631 321.379 112.036 323.829C109.44 326.279 74.4182 341.993 60.9092 353.621C68.9663 342.119 77.1822 330.415 85.1038 319.161C96.6588 308.25 124.262 297.264 128.434 293.601C131.38 291.002 137.1 287.769 140.218 286.096Z" fill="#2872BC"/>
<path d="M140.219 286.096L141.908 295.611C141.908 295.611 133.494 297.611 130.499 301.674C127.503 305.738 108.463 316.291 105.16 317.647C97.4468 322.097 89.1979 324.17 76.0856 331.979L77.937 329.334C85.9942 317.828 77.1799 330.405 85.1015 319.151C96.6566 308.24 124.26 297.254 128.432 293.591C131.381 291.002 137.101 287.769 140.219 286.096Z" fill="#1D5C84"/>
<path d="M61.8626 427.509C57.9547 436.876 55.9114 440.274 55.9114 440.274C55.9114 440.274 54.6088 439.963 52.354 439.583C54.9989 430.657 56.9264 419.822 57.8224 414.284C61.9452 411.792 66.5871 409.1 71.4901 406.35C69.1956 411.167 64.6959 420.755 61.8626 427.509Z" fill="#F28825"/>
<path d="M61.8616 427.509C57.9537 436.875 55.9105 440.274 55.9105 440.274C55.9105 440.274 55.4476 440.171 54.2277 439.917C56.8726 430.99 62.7311 416.38 63.6271 410.842C67.7499 408.349 66.6027 409.1 71.4892 406.346C69.1947 411.166 64.695 420.754 61.8616 427.509Z" fill="#F5C836"/>
<path d="M137.004 267.939L140.218 286.097C137.11 287.77 131.381 291.003 128.432 293.595C124.259 297.259 96.6559 308.248 85.1008 319.155C93.806 306.79 102.157 294.964 109.567 284.543C116.103 278.367 124.537 275.554 126.937 273.907C128.62 272.747 133.979 269.665 137.004 267.939Z" fill="#993233"/>
<path d="M137.002 267.941L138.605 277.004C135.498 278.677 130.393 282.879 126.819 284.502C118.851 288.132 106.149 293.534 100.403 297.502C109.104 285.137 102.171 294.969 109.574 284.548C116.11 278.372 124.548 275.559 126.945 273.912C128.617 272.749 133.977 269.667 137.002 267.941Z" fill="#E13030"/>
<path d="M57.8277 414.283C56.9318 419.821 55.001 430.669 52.3593 439.582C46.5092 438.617 40.5828 438.191 34.6548 438.309L37.6865 428.06C39.9149 426.533 41.9251 425.085 43.5748 423.736C46.4909 421.395 51.5559 418.072 57.8277 414.283Z" fill="#E13030"/>
<path d="M48.7854 419.992C47.8894 425.53 47.1323 429.699 44.4873 438.613C41.218 438.329 37.9354 438.227 34.6548 438.308L37.6865 428.059C39.4421 426.965 44.451 422.921 48.7854 419.992Z" fill="#993233"/>
<path d="M133.95 250.684L137.005 267.939C133.98 269.664 128.621 272.746 126.934 273.89C124.534 275.543 116.1 278.35 109.564 284.526C120.292 269.433 129.03 257.273 133.95 250.684Z" fill="#F28825"/>
<path d="M133.95 250.684L135.726 260.87C132.7 262.596 127.344 265.677 125.655 266.821C123.258 268.474 121.731 269.053 119.496 270.59C123.281 265.3 127.378 259.627 127.378 259.627C127.378 259.627 129.031 257.273 133.95 250.684Z" fill="#F5C836"/>
<path d="M37.6872 428.076L34.6555 438.325C28.7747 438.414 22.9263 439.215 17.2385 440.712C23.8905 436.861 31.6105 432.232 37.6872 428.076Z" fill="#1D5C84"/>
<path d="M30.1723 432.963L28.2679 438.706C23.8906 439.036 22.5317 439.486 17.2385 440.689C23.8905 436.861 25.0213 436.061 30.1723 432.963Z" fill="#2872BC"/>
<path d="M198.321 488.965C198.777 479.046 195.091 466.86 193.543 463.507C191.996 460.155 179.492 451.195 174.923 446.077C170.354 440.959 173.214 438.291 170.39 437.428C167.567 436.565 166.522 438.274 166.522 438.274C166.522 438.274 163.428 436.621 161.688 436.092C159.949 435.563 156.776 436.796 154.65 437.266C152.524 437.735 149.118 439.775 148.775 442.82C148.431 445.865 153.152 450.755 153.152 450.755C151.76 453.658 151.264 461.556 151.188 463.98C151.112 466.403 150.527 466.536 147.908 470.262C145.29 473.988 146.983 474.358 146.636 476.474C146.288 478.59 144.321 481.618 146.14 486.227C147.958 490.836 165.418 505.734 168.476 508.59C170.698 510.666 173.501 521.725 176.702 539.169C191.027 548.024 206.25 555.339 222.115 560.99C216.968 551.167 211.708 541.483 208.025 532.282C199.498 510.964 197.865 498.893 198.321 488.965Z" fill="white"/>
<path d="M271.477 106.525C271.477 106.525 268.892 105.225 266.078 106.237L251.2 387.014L256.596 387.298C256.596 387.298 272.185 115.293 271.477 106.525Z" fill="white"/>
<path d="M260.318 201.762L261.151 184.299L262.07 164.991L262.894 147.759L263.7 130.812L264.577 112.469C267.132 111.808 271.318 111.477 272.376 111.299L267.255 218.779C265.978 218.759 261.74 218.779 259.508 218.746L260.318 201.762Z" fill="white"/>
<path d="M260.318 201.762L259.508 218.746C245.364 218.634 214.898 218.746 204.867 221.461C191.642 225.068 170.394 239.36 155.109 238.18C139.825 237 92.6226 243.261 92.6226 243.261C89.3164 237.519 90.4206 236.861 88.6552 227.901C112.946 220.138 149.545 219.807 165.534 218.644C183.222 217.371 190.485 213.542 204.437 205.951C216.313 199.484 250.453 201.131 260.318 201.762Z" fill="#238647"/>
<path d="M260.318 201.763L259.895 210.689C245.748 210.577 215.282 210.673 205.251 213.404C192.026 217.011 172.305 230.312 157.02 229.128C141.736 227.944 89.8388 235.456 89.8388 235.456C89.5445 233.092 89.3726 231.611 88.6552 227.895C112.946 220.135 144.477 220.069 160.462 218.922C178.15 217.649 190.479 213.536 204.434 205.945C216.313 199.485 250.453 201.131 260.318 201.763Z" fill="#2F9B47"/>
<path d="M261.151 184.301L260.318 201.764C250.452 201.132 216.312 199.486 204.443 205.953C190.491 213.557 183.228 217.372 165.539 218.645C149.557 219.792 112.971 220.143 88.6677 227.902C87.9469 224.219 86.7368 219.125 84.5283 211.702C89.643 210.095 96.381 208.379 101.621 208.485C111.378 208.68 138.383 200.22 160.038 200.838C181.693 201.456 188.898 199.311 200.532 194.252C212.071 189.223 229.616 178.733 261.151 184.301Z" fill="#62B64F"/>
<path d="M261.151 184.301L260.728 193.422C250.862 192.791 223.368 190.305 211.502 196.772C197.553 204.376 183.624 209.031 165.936 210.304C149.951 211.454 111.196 212.552 86.9187 220.308C85.9632 216.708 85.454 214.83 84.5283 211.692C89.643 210.086 96.381 208.37 101.621 208.475C111.378 208.67 138.383 200.21 160.038 200.828C181.693 201.447 188.898 199.301 200.532 194.242C212.071 189.224 229.616 178.733 261.151 184.301Z" fill="#89CC53"/>
<path d="M262.073 164.991L261.154 184.299C229.62 178.732 212.074 189.222 200.522 194.241C188.888 199.3 181.677 201.432 160.028 200.827C138.379 200.222 111.368 208.669 101.611 208.474C96.3712 208.368 89.6332 210.084 84.5186 211.691C84.0425 210.08 83.5168 208.357 82.9415 206.524C81.7323 202.648 80.7498 198.704 79.999 194.714C91.4747 190.793 117.881 190.237 121.561 190.274C125.423 190.313 133.949 186.095 141.996 184.538C150.044 182.98 179.571 180.511 188.283 178.772C196.995 177.033 221.926 174.255 230.205 169.035C236.808 164.853 255.064 164.833 262.073 164.991Z" fill="#3DB8AD"/>
<path d="M262.073 164.991L261.587 175.241C230.05 169.673 211.39 181.595 199.841 186.614C188.203 191.676 180.996 193.808 159.344 193.2C137.692 192.591 110.684 201.042 100.927 200.847C95.6868 200.741 87.4941 203.052 82.3795 204.659C81.9034 203.049 80.7264 198.615 79.999 194.707C91.4747 190.786 116.982 186.217 120.665 186.253C124.523 186.293 133.665 186.088 141.715 184.531C149.766 182.974 179.287 180.504 187.982 178.765C196.677 177.026 221.626 174.249 229.904 169.028C236.52 164.853 255.064 164.833 262.073 164.991Z" fill="#3394D7"/>
<path d="M262.894 147.76L262.074 164.992C255.068 164.833 236.812 164.853 230.183 169.035C221.917 174.256 196.956 177.033 188.26 178.772C179.565 180.511 150.038 182.981 141.974 184.538C133.91 186.095 91.4756 190.793 79.9965 194.714C78.9626 189.194 78.2999 183.61 78.0128 178.001C83.6664 176.96 95.2049 174.98 105.563 174.103C119.922 172.887 139.947 175.287 149.621 169.805C159.295 164.324 183.721 161.057 198.222 158.819C212.723 156.581 225.974 157.444 231.376 151.545C235.955 146.527 256.622 147.38 262.894 147.76Z" fill="#2872BC"/>
<path d="M263.194 138.925L262.371 156.156C255.365 155.998 237.109 156.018 230.48 160.2C222.214 165.42 197.253 168.198 188.558 169.937C179.862 171.676 150.325 174.142 142.288 175.703C134.25 177.263 90.1757 182.315 78.7 186.243C77.447 178.308 78.2735 174.489 78.3 169.163C83.9535 168.125 95.5086 166.144 105.85 165.265C120.209 164.052 140.234 166.452 149.908 160.967C159.582 155.482 184.008 152.215 198.509 149.981C213.01 147.746 226.261 148.602 231.66 142.69C236.242 137.691 256.923 138.544 263.194 138.925Z" fill="#1D5C84"/>
<path d="M263.7 130.812L262.893 147.76C256.612 147.38 235.941 146.527 231.372 151.529C225.97 157.44 212.729 156.577 198.218 158.803C183.707 161.028 157.357 161.5 147.68 166.985C138.003 172.47 119.908 172.887 105.556 174.104C95.2142 174.98 83.6591 176.96 78.0056 178.001C77.6889 171.984 77.7386 165.952 78.1544 159.94C86.3801 156.244 96.1366 159.682 110.244 157.464C124.352 155.245 169.22 150.907 181.763 149.972C194.307 149.036 234.662 139.412 238.064 136.109C240.808 133.444 257.418 131.47 263.7 130.812Z" fill="#993233"/>
<path d="M264.058 123.682L263.212 140.596C256.93 140.213 235.959 139.396 231.39 144.398C225.987 150.31 212.746 149.447 198.235 151.672C183.725 153.897 157.358 154.37 147.681 159.854C138.003 165.339 119.909 165.756 105.557 166.973C95.215 167.849 83.455 169.829 77.7849 170.871C77.4212 164.182 77.4542 165.144 77.8113 159.94C86.0338 156.244 96.1209 152.551 110.212 150.333C124.303 148.114 169.214 143.767 181.757 142.841C194.301 141.915 234.656 132.281 238.058 128.978C240.809 126.313 257.776 124.34 264.058 123.682Z" fill="#E13030"/>
<path d="M264.577 112.469L263.701 130.811C257.419 131.473 240.809 133.456 238.058 136.101C234.653 139.407 194.301 149.028 181.757 149.964C169.214 150.9 124.345 155.234 110.238 157.456C96.1306 159.678 86.0434 156.236 77.8375 159.932C79.1435 150.225 80.251 143.6 80.251 143.6L89.3992 143.824C98.5474 144.046 121.241 140.955 146.427 138.974C171.614 136.994 212.812 132.825 236.983 122.361C250.172 116.654 259.141 113.844 264.577 112.469Z" fill="#F5C836"/>
<path d="M264.236 119.607L263.701 130.812C257.419 131.473 240.481 133.457 237.727 136.102C234.322 139.408 193.97 149.029 181.427 149.965C168.883 150.9 124.015 155.235 109.907 157.456C95.8 159.678 86.0434 156.237 77.8375 159.933C77.8375 157.01 79.0079 151.281 79.0079 151.281C79.0079 151.281 79.2096 151.651 88.3578 151.872C97.506 152.094 120.2 149.003 145.383 147.022C170.566 145.042 211.787 140.866 235.972 130.405C249.127 124.706 258.801 120.983 264.236 119.607Z" fill="#F28825"/>
<path d="M285.217 422.11C288.701 407.893 287.362 389.137 286.288 383.758C285.213 378.379 271.278 361.511 266.722 352.68C262.166 343.85 266.722 340.884 263.237 338.741C259.752 336.599 257.875 338.741 257.875 338.741C257.875 338.741 254.238 335.389 252.112 334.05C249.986 332.711 245.41 333.514 242.461 333.514C239.512 333.514 234.417 335.389 233.078 339.68C231.739 343.972 236.563 352.545 236.563 352.545C233.882 356.301 230.942 367.558 230.129 371.059C229.316 374.561 228.522 374.544 223.963 379.1C219.404 383.656 221.553 384.72 220.478 387.696C219.404 390.672 215.923 394.398 216.994 401.635C218.065 408.872 236.831 435.946 240.048 441.041C243.265 446.136 242.997 476.156 240.583 521.193C239.734 536.433 240.045 551.717 241.512 566.91C261.553 572.193 282.193 574.86 302.918 574.845H304.303C300.534 546.161 289.601 514.894 285.484 487.823C280.393 454.276 281.732 436.317 285.217 422.11Z" fill="white"/>
<path d="M362.252 36.4474C362.252 36.4474 359.607 35.2869 356.846 36.4474V317.618H362.252C362.252 317.618 363.409 45.1658 362.252 36.4474Z" fill="white"/>
<path d="M370.407 292.544C370.407 292.544 371.551 280.499 372.814 264.031C370.169 274.019 367.749 281.842 366.311 286.308C370.06 290.504 369.472 292.121 370.407 292.544Z" fill="#238647"/>
<path d="M368.02 288.524C368.02 288.524 371.554 280.503 372.82 264.035C370.175 274.023 367.755 281.845 366.317 286.312C366.317 286.312 367.299 287.532 368.02 288.524Z" fill="#2F9B47"/>
<path d="M376.1 185.242C375.839 179.721 375.459 172.623 374.983 164.496C374.93 165.369 373.475 188.423 364.548 212.409C356.379 234.356 346.215 256.176 343.65 269.1C344.476 269.606 345.303 270.128 346.126 270.657C350.59 273.511 354.193 276.013 357.099 278.195C361.067 270.763 368.635 254.91 375.009 231.929C376.017 214.3 376.642 196.718 376.1 185.242Z" fill="#3DB8AD"/>
<path d="M376.1 185.305C375.839 179.784 375.459 172.685 374.983 164.559C374.93 165.435 373.475 188.485 364.548 212.472C356.379 234.425 346.215 256.173 343.65 269.1L344.149 269.411C347.227 271.318 348.024 271.92 349.951 273.153C353.919 265.721 369.742 230.004 376.117 207.03C376.302 197.61 376.642 196.781 376.1 185.305Z" fill="#3394D7"/>
<path d="M363.041 41.8145L356.829 42.1054L357.332 78.9395L365.415 77.2467C365.415 77.2467 364.437 48.5227 363.041 41.8145Z" fill="white"/>
<path d="M374.983 164.494V164.468C374.183 151.055 373.105 134.851 371.773 118.354C370.665 145.758 358.217 168.822 348.719 194.878C340.784 216.699 330.432 249.582 327.271 259.719C332.465 262.453 338.01 265.581 343.65 269.098C346.216 256.175 356.379 234.354 364.565 212.408C373.492 188.421 374.93 165.367 374.983 164.494Z" fill="#2872BC"/>
<path d="M373.895 147.273C373.095 133.859 373.105 134.851 371.773 118.354C370.665 145.758 358.217 168.822 348.719 194.878C340.784 216.699 330.432 249.582 327.271 259.719C332.465 262.453 331.285 261.888 336.172 264.622C338.737 251.695 346.583 228.75 354.749 206.797C363.676 182.811 373.842 148.149 373.895 147.273Z" fill="#1D5C84"/>
<path d="M371.772 118.354V118.331C370.8 106.296 369.696 94.1064 368.466 82.7266C368.506 83.1167 369.352 93.5774 357.956 117.111C346.338 141.081 333.867 172.109 326.309 202.562C321.072 223.679 315.134 245.374 313.084 252.75C317.306 254.691 322.114 257.018 327.258 259.736C330.419 249.599 340.76 216.709 348.705 194.895C358.204 168.823 370.665 145.749 371.772 118.354Z" fill="#993233"/>
<path d="M366.82 118.354C366.82 118.354 370.549 106.551 370.738 105.916C370.152 99.0686 369.696 94.2548 368.463 82.875C368.503 83.2684 369.349 93.7259 357.953 117.259C346.335 141.232 333.864 172.257 326.306 202.711C321.069 223.83 315.131 245.36 313.081 252.749C314.301 253.298 315.158 253.741 320.355 256.211C323.516 246.074 333.666 213.915 341.614 192.101C351.116 166.029 356.911 142.773 366.82 118.354Z" fill="#E13030"/>
<path d="M366.31 286.311C367.749 281.844 370.155 274.022 372.814 264.034C372.814 264.034 372.814 264.034 372.814 264.014C373.554 254.334 374.354 243.122 374.999 231.928C368.625 254.909 361.05 270.762 357.089 278.194C361.649 281.613 364.492 284.278 366.31 286.311Z" fill="#62B64F"/>
<path d="M361.921 282.056C363.355 277.589 371.056 261.997 373.714 252.009C373.714 252.009 373.661 252.733 372.828 264.014C373.568 254.334 374.368 243.122 375.013 231.928C368.639 254.909 361.064 270.762 357.104 278.194C359.236 279.851 359.917 280.31 361.921 282.056Z" fill="#89CC53"/>
<path d="M357.953 117.094C369.349 93.5777 368.503 83.117 368.463 82.7268C366.714 66.5266 364.711 51.9794 362.512 41.8262C363.21 46.0845 363.884 60.7573 348.6 89.0416C330.085 123.29 324.703 145.534 316.199 178.239C307.696 210.944 295.863 245.596 295.863 245.596C295.863 245.596 302.753 248.012 313.098 252.75C315.132 245.374 321.069 223.679 326.323 202.562C333.864 172.093 346.335 141.064 357.953 117.094Z" fill="#F28825"/>
<path d="M348.894 113.155C360.287 89.6381 361.385 79.6171 361.385 79.6171C363.398 60.1966 364.691 51.9213 362.499 41.7812C363.196 46.0396 363.874 60.7124 348.59 88.9967C330.075 123.245 324.689 145.486 316.189 178.194C307.689 210.902 295.866 245.547 295.866 245.547C295.866 245.547 298.18 246.407 304.049 248.794C306.082 241.418 312.02 219.723 317.274 198.603C324.805 168.15 337.276 137.125 348.894 113.155Z" fill="#F5C836"/>
<path d="M368.133 484.691C366.179 439.823 365.96 409.909 368.569 404.834C371.178 399.759 386.379 372.784 387.249 365.573C388.118 358.362 385.295 354.623 384.425 351.687C383.556 348.751 385.295 347.68 381.602 343.137C377.909 338.595 377.258 338.598 376.606 335.127C375.955 331.655 373.565 320.437 371.392 316.698C371.392 316.698 375.304 308.152 374.216 303.877C373.128 299.602 369.002 297.734 366.612 297.734C364.221 297.734 360.532 296.934 358.793 298.269C357.054 299.605 354.124 302.944 354.124 302.944C354.124 302.944 352.603 300.805 349.78 302.944C346.957 305.083 350.65 308.019 346.957 316.83C343.264 325.641 331.966 342.473 331.087 347.812C330.207 353.152 329.133 371.852 331.956 386.005C334.78 400.159 335.868 418.055 331.741 451.441C328.313 479.163 319.046 536.628 316.249 574.431C333.061 573.516 349.729 570.83 365.977 566.416C367.597 543.429 369.267 510.661 368.133 484.691Z" fill="white"/>
<path d="M471.777 200.356C471.777 200.356 469.307 198.852 466.421 199.629L428.575 478.24L433.931 478.968C433.931 478.968 471.764 209.154 471.777 200.356Z" fill="white"/>
<path d="M457.71 298.931L459.786 282.73L462.302 263.092L464.901 242.805L467.294 224.142L469.704 205.33C468.958 204.484 468.05 203.797 467.034 203.308C466.017 202.82 464.913 202.54 463.786 202.486L450.086 309.405C451.299 310.929 452.892 311.927 455.63 315.144L457.71 298.931Z" fill="white"/>
<path d="M457.711 298.932L455.631 315.152C476.242 336.589 508.047 357.884 533.967 367.155C559.888 376.425 604.058 404.656 604.058 404.656C604.058 404.656 606.723 396.98 607.672 389.749C600.818 389.888 590.07 377.185 590.07 377.185L578.564 368.374C567.059 359.56 518.587 339.016 497.266 327.269C481.317 318.501 464.951 305.108 457.711 298.932Z" fill="#238647"/>
<path d="M458.758 290.936L456.682 307.156C477.289 328.593 509.095 349.891 535.015 359.158C560.935 368.426 606.263 397.09 606.263 397.09C606.906 394.679 607.377 392.225 607.671 389.747C600.818 389.886 591.117 369.203 591.117 369.203L579.612 360.392C568.11 351.581 519.638 331.033 498.313 319.289C482.364 310.505 465.999 297.125 458.758 290.936Z" fill="#2F9B47"/>
<path d="M459.783 282.734L457.706 298.935C464.947 305.124 481.312 318.504 497.261 327.285C518.583 339.032 567.055 359.576 578.56 368.391L590.066 377.202C590.066 377.202 600.814 389.891 607.668 389.765C607.998 387.259 608.121 384.806 607.856 382.749C607.682 381.517 607.299 380.323 606.725 379.218C602.632 378.795 597.23 378.147 595.977 377.545C593.891 376.554 581.341 359.312 581.341 359.312L581.321 359.292C580.537 358.475 555.278 332.281 535.365 324.862C515.144 317.327 492.917 303.309 482.364 295.9C474.522 290.368 464.434 285.078 459.783 282.734Z" fill="#62B64F"/>
<path d="M460.808 274.746L458.735 290.946C465.972 297.135 482.341 310.516 498.286 319.297C519.611 331.044 562.033 348.95 573.535 357.764C585.037 366.578 589.58 371.604 592.212 375.836C594.417 379.39 600.913 382.117 607.751 381.992C607.658 381.063 607.278 380.339 606.716 379.205C602.623 378.781 598.318 377.399 597.062 376.798C594.975 375.806 581.331 359.298 581.331 359.298C581.331 359.298 577.618 354.531 577.605 354.521C576.821 353.707 556.323 324.282 536.4 316.857C516.179 309.322 493.955 295.304 483.402 287.895C475.547 282.38 465.459 277.09 460.808 274.746Z" fill="#89CC53"/>
<path d="M462.302 263.096L459.786 282.734C464.435 285.078 474.522 290.368 482.377 295.883C492.931 303.292 515.158 317.31 535.379 324.845C555.282 332.264 580.541 358.459 581.334 359.276C578.491 356.168 557.623 327.153 552.24 319.291C551.671 318.709 551.106 318.091 550.531 317.429C539.829 307.584 492.494 281.64 486.722 276.063C481.964 271.45 468.293 265.549 462.302 263.096Z" fill="#3DB8AD"/>
<path d="M463.333 255.113L460.807 274.745C465.459 277.089 475.404 282.135 483.259 287.639C493.812 295.049 516.04 309.07 536.257 316.601C556.163 324.024 581.423 350.219 582.213 351.035C579.369 347.927 558.501 318.909 553.118 311.05C552.55 310.465 551.981 309.847 551.409 309.186C540.707 299.34 493.373 273.396 487.6 267.822C482.846 263.22 469.32 257.566 463.333 255.113Z" fill="#3394D7"/>
<path d="M464.901 242.809L462.302 263.095C468.293 265.548 481.964 271.45 486.732 276.062C492.494 281.64 539.829 307.583 550.541 317.429C549.436 316.159 548.316 314.728 547.096 313.071C539.677 302.988 530.4 288.401 523.764 283.17C517.129 277.94 498.581 267.532 490.464 258.784C483.468 251.253 472.092 248.432 464.901 242.809Z" fill="#1D5C84"/>
<path d="M467.294 224.146L464.9 242.81C472.091 248.43 483.468 251.254 490.454 258.785C498.57 267.533 517.118 277.941 523.754 283.172C530.389 288.402 539.666 302.989 547.085 313.073C548.305 314.726 549.426 316.161 550.53 317.43C551.164 317.988 551.737 318.612 552.24 319.292C557.268 324.443 562.608 327.005 575.052 333.369C587.259 339.595 600.057 348.098 605.981 352.168C606.312 351.302 606.451 350.786 606.451 350.786C606.451 350.786 593.682 336.629 580.154 320.935C577.112 317.404 573.935 317.959 568.655 312.484C558.809 300.582 532.7 282.14 526.141 277.769C516.222 271.157 501.401 254.471 496.296 248.586C492.401 244.093 475.328 233.794 472.822 232.257C471.496 231.437 469.155 227.545 467.294 224.146Z" fill="#E13030"/>
<path d="M466.323 231.645L464.915 242.803C472.105 248.423 483.482 251.247 490.468 258.775C498.585 267.526 514.801 278.774 521.437 284.004C528.072 289.235 539.68 302.982 547.099 313.066C548.319 314.719 549.443 316.154 550.544 317.423C551.179 317.981 551.752 318.605 552.254 319.285C557.282 324.436 562.622 326.998 575.066 333.359C587.273 339.588 600.071 348.091 605.996 352.161C606.087 351.685 606.24 351.222 606.452 350.786C606.452 350.786 598.788 341.7 593.508 336.239C575.896 329.593 562.07 323.014 556.267 312.193C551.034 302.43 500.006 261.05 495.378 254.864C491.814 250.1 474.261 241.117 471.762 239.583C470.429 238.756 468.184 235.043 466.323 231.645Z" fill="#993233"/>
<path d="M552.24 319.291C557.612 327.153 578.481 356.168 581.334 359.276L581.354 359.296C583.337 361.448 593.316 364.943 598.787 366.741C598.737 366.156 598.805 365.567 598.986 365.008C599.167 364.449 599.458 363.932 599.842 363.488C603.188 359.263 605.175 354.475 606.008 352.168C600.083 348.098 587.285 339.604 575.079 333.369C562.604 327.004 557.268 324.442 552.24 319.291Z" fill="#1D5C84"/>
<path d="M463.843 251.156L462.19 263.26C468.18 265.713 481.947 271.45 486.715 276.062C492.478 281.639 539.812 307.583 550.524 317.428C549.42 316.159 548.299 314.727 547.079 313.071C539.66 302.987 529.305 296.167 522.67 290.92C516.034 285.673 497.486 275.281 489.37 266.533C482.387 259.022 471.024 256.78 463.843 251.156Z" fill="#2872BC"/>
<path d="M552.659 319.787C558.035 327.649 578.9 356.664 581.753 359.772L581.773 359.792C583.757 361.944 593.735 365.439 599.21 367.237C599.156 366.652 599.222 366.062 599.403 365.503C599.583 364.944 599.875 364.427 600.261 363.984C602.513 361.184 601.845 361.604 602.678 359.296C596.754 355.226 589.219 354.069 577.059 345.149C565.765 336.877 557.688 324.945 552.659 319.787Z" fill="#2872BC"/>
<path d="M581.344 359.295C581.344 359.295 593.908 376.523 595.981 377.528C597.234 378.13 602.636 378.778 606.729 379.201C604.329 374.404 599.555 371.035 599.201 367.236C593.726 365.438 583.335 361.447 581.344 359.295Z" fill="#3394D7"/>
<path d="M550.53 317.43C551.105 318.091 551.67 318.709 552.239 319.291C551.737 318.612 551.164 317.988 550.53 317.43Z" fill="white"/>
<path d="M467.295 224.146L469.705 205.334L510.014 249.276L522.643 262.699C522.643 262.699 560.995 298.932 579.119 319.787C572.996 318.362 532.717 282.14 526.158 277.776C516.239 271.163 500.423 253.822 496.673 249.134C492.924 244.446 475.345 233.8 472.846 232.273C471.497 231.436 469.156 227.545 467.295 224.146Z" fill="#F28825"/>
<path d="M468.303 216.274L469.705 205.334L510.014 249.276L522.643 262.699C522.643 262.699 528.003 266.703 546.193 285.512C530.274 273.494 531.005 272.869 524.448 268.505C514.53 261.893 501.999 250.982 499.857 245.444C497.715 239.907 481.64 230.567 479.141 229.023C477.792 228.186 470.164 219.676 468.303 216.274Z" fill="#F5C836"/>
<path d="M459.808 462.15C461.723 455.458 459.736 451.62 459.405 448.757C459.074 445.894 460.817 445.084 458.168 440.392C455.52 435.701 454.925 435.628 454.862 432.285C454.799 428.943 454.383 418.115 452.991 414.349C452.991 414.349 457.874 406.745 457.553 402.603C457.233 398.46 453.771 396.228 451.602 395.957C449.433 395.686 446.197 394.516 444.411 395.574C442.626 396.632 439.452 399.445 439.452 399.445C439.452 399.445 438.401 397.263 435.485 398.953C432.569 400.642 435.485 403.826 430.757 411.704C426.029 419.583 413.138 434.137 411.518 439.066C409.898 443.996 405.997 461.469 406.361 475.104C406.724 488.738 404.926 505.712 395.976 536.668C394.23 542.712 391.933 550.266 389.331 558.746C402.816 553.531 415.801 547.104 428.125 539.544C431.514 515.522 434.44 500.181 436.701 496.974C439.875 492.511 457.897 468.845 459.808 462.15Z" fill="white"/>
</g>
<defs>
<clipPath id="clip0_1976_83918">
<rect width="608" height="608" fill="white" transform="translate(0 0.556641)"/>
</clipPath>
</defs>
</svg>
