<svg width="32" height="32" viewBox="0 0 32 32" fill="none" xmlns="http://www.w3.org/2000/svg">
<path fill-rule="evenodd" clip-rule="evenodd" d="M11.7973 6.62067H20.2025C23.0571 6.62067 25.3794 8.943 25.3793 11.7974V20.2026C25.3793 23.057 23.0571 25.3793 20.2025 25.3793H11.7973C8.94289 25.3793 6.62067 23.0571 6.62067 20.2026V11.7974C6.62067 8.943 8.94289 6.62067 11.7973 6.62067ZM20.2026 23.7149C22.1393 23.7149 23.715 22.1393 23.715 20.2026L23.7149 11.7974C23.7149 9.86072 22.1392 8.28502 20.2025 8.28502H11.7973C9.86061 8.28502 8.28502 9.86072 8.28502 11.7974V20.2026C8.28502 22.1393 9.86061 23.715 11.7973 23.7149H20.2026Z" fill="white"/>
<path fill-rule="evenodd" clip-rule="evenodd" d="M11.1664 16.0002C11.1664 13.3349 13.3347 11.1666 16 11.1666C18.6653 11.1666 20.8336 13.3349 20.8336 16.0002C20.8336 18.6654 18.6653 20.8336 16 20.8336C13.3347 20.8336 11.1664 18.6654 11.1664 16.0002ZM12.8307 16.0001C12.8307 17.7476 14.2525 19.1691 16 19.1691C17.7474 19.1691 19.1692 17.7476 19.1692 16.0001C19.1692 14.2525 17.7476 12.8308 16 12.8308C14.2524 12.8308 12.8307 14.2525 12.8307 16.0001Z" fill="white"/>
<path d="M21.0363 9.75531C20.7157 9.75531 20.4006 9.88513 20.1742 10.1126C19.9466 10.3389 19.8158 10.6541 19.8158 10.9758C19.8158 11.2966 19.9467 11.6116 20.1742 11.8391C20.4005 12.0654 20.7157 12.1964 21.0363 12.1964C21.3581 12.1964 21.6721 12.0654 21.8996 11.8391C22.127 11.6116 22.2568 11.2965 22.2568 10.9758C22.2568 10.6541 22.127 10.3389 21.8996 10.1126C21.6732 9.88513 21.3581 9.75531 21.0363 9.75531Z" fill="white"/>
</svg>
