<svg width="32" height="32" viewBox="0 0 32 32" fill="none" xmlns="http://www.w3.org/2000/svg">
<rect width="32" height="32" rx="16" fill="#47BFFF"/>
<path fill-rule="evenodd" clip-rule="evenodd" d="M14.1312 8.75173C14.7302 8.62104 15.3561 8.55176 16.0002 8.55176C20.3423 8.55176 23.8622 11.7012 23.8622 15.5862C23.8622 15.8594 23.8448 16.1289 23.811 16.394C23.7503 16.9261 23.6164 17.7621 23.4091 18.9021C23.187 20.1237 22.875 21.7466 22.4731 23.7707C22.3192 24.5454 21.6394 25.1035 20.8496 25.1035H20.5519C19.698 25.1035 19.0057 24.4112 19.0057 23.5573C19.0057 23.5222 19.0069 23.4871 19.0093 23.4521L19.1048 22.051C18.1524 22.4176 17.1028 22.6207 16.0002 22.6207C15.6578 22.6207 15.3205 22.6011 14.9897 22.5632L14.8956 23.5982C14.8181 24.4507 14.1033 25.1035 13.2472 25.1035H13.1036C12.285 25.1035 11.6213 24.4398 11.6213 23.6212C11.6213 23.5913 11.6222 23.5615 11.624 23.5317C11.6274 23.4753 11.6308 23.4176 11.634 23.3586C11.7017 22.1297 11.1115 21.1738 10.519 20.6294C9.81714 20.0186 9.2423 19.2914 8.8334 18.4828H8.13808C7.22396 18.4828 6.48291 17.7417 6.48291 16.8276V15.1724C6.48291 14.2583 7.22396 13.5173 8.13808 13.5173H8.48364C8.99756 12.0208 10.0544 10.737 11.4484 9.84988V8.06697C11.4484 7.6099 11.819 7.23938 12.276 7.23938C12.4955 7.23938 12.706 7.32657 12.8612 7.48177L14.1312 8.75173ZM11.8622 15.1724C12.5478 15.1724 13.1036 14.6167 13.1036 13.9311C13.1036 13.2455 12.5478 12.6897 11.8622 12.6897C11.1766 12.6897 10.6208 13.2455 10.6208 13.9311C10.6208 14.6167 11.1766 15.1724 11.8622 15.1724ZM24.276 11.8984C23.5904 11.8984 23.0346 11.3426 23.0346 10.657C23.0346 9.97145 23.5904 9.41566 24.276 9.41566C24.9616 9.41566 25.5174 9.97145 25.5174 10.657C25.5174 11.3426 24.9616 11.8984 24.276 11.8984Z" fill="white"/>
</svg>
