<svg width="32" height="32" viewBox="0 0 32 32" fill="none" xmlns="http://www.w3.org/2000/svg">
<path fill-rule="evenodd" clip-rule="evenodd" d="M8.22222 6H23.7778C25.0051 6 26 6.99492 26 8.22222V23.7778C26 25.0051 25.0051 26 23.7778 26H8.22222C6.99492 26 6 25.0051 6 23.7778V8.22222C6 6.99492 6.99492 6 8.22222 6ZM11.5556 22.6667C11.8624 22.6667 12.1111 22.4179 12.1111 22.1111V14.3333C12.1111 14.0266 11.8624 13.7778 11.5556 13.7778H9.88889C9.58207 13.7778 9.33333 14.0266 9.33333 14.3333V22.1111C9.33333 22.4179 9.58207 22.6667 9.88889 22.6667H11.5556ZM10.7222 12.6667C9.80174 12.6667 9.05556 11.9205 9.05556 11C9.05556 10.0795 9.80174 9.33333 10.7222 9.33333C11.6427 9.33333 12.3889 10.0795 12.3889 11C12.3889 11.9205 11.6427 12.6667 10.7222 12.6667ZM22.1111 22.6667C22.4179 22.6667 22.6667 22.4179 22.6667 22.1111V17C22.7028 15.2342 21.3973 13.7272 19.6444 13.5111C18.4189 13.3992 17.2314 13.9716 16.5556 15V14.3333C16.5556 14.0266 16.3068 13.7778 16 13.7778H14.3333C14.0266 13.7778 13.7778 14.0266 13.7778 14.3333V22.1111C13.7778 22.4179 14.0266 22.6667 14.3333 22.6667H16C16.3068 22.6667 16.5556 22.4179 16.5556 22.1111V17.9444C16.5556 17.024 17.3018 16.2778 18.2222 16.2778C19.1427 16.2778 19.8889 17.024 19.8889 17.9444V22.1111C19.8889 22.4179 20.1377 22.6667 20.4444 22.6667H22.1111Z" fill="white"/>
</svg>
