<svg width="714" height="180" viewBox="0 0 714 180" fill="none" xmlns="http://www.w3.org/2000/svg">
<path d="M183.078 108.799C181.479 108.779 179.902 109.175 178.502 109.948C177.102 110.72 175.927 111.843 175.09 113.206C174.074 114.911 173.648 116.902 173.877 118.873C174.106 120.845 174.978 122.685 176.358 124.112C177.738 125.538 179.548 126.47 181.511 126.765C183.473 127.059 185.478 126.699 187.216 125.741C188.953 124.782 190.327 123.278 191.124 121.461C191.922 119.644 192.099 117.615 191.628 115.687C191.157 113.759 190.065 112.04 188.519 110.795C186.974 109.55 185.062 108.849 183.078 108.799V108.799Z" fill="white"/>
<path d="M171.647 132.211C170.136 132.225 168.662 132.686 167.413 133.538C166.163 134.389 165.194 135.591 164.629 136.993C164.063 138.395 163.925 139.933 164.234 141.413C164.542 142.893 165.282 144.248 166.361 145.308C167.439 146.367 168.807 147.082 170.293 147.364C171.778 147.646 173.313 147.48 174.705 146.889C176.096 146.298 177.281 145.308 178.11 144.044C178.938 142.779 179.373 141.297 179.36 139.786C179.334 137.761 178.509 135.828 177.064 134.409C175.619 132.99 173.672 132.2 171.647 132.211V132.211Z" fill="white"/>
<path d="M154.694 163.735C158.345 163.735 161.304 160.776 161.304 157.125C161.304 153.474 158.345 150.514 154.694 150.514C151.043 150.514 148.083 153.474 148.083 157.125C148.083 160.776 151.043 163.735 154.694 163.735Z" fill="white"/>
<path d="M135.565 162.923C134.502 162.923 133.464 163.238 132.581 163.828C131.697 164.418 131.009 165.257 130.602 166.238C130.196 167.22 130.09 168.3 130.297 169.342C130.504 170.384 131.016 171.341 131.767 172.092C132.518 172.843 133.475 173.354 134.517 173.562C135.559 173.769 136.639 173.663 137.62 173.256C138.601 172.85 139.44 172.161 140.031 171.278C140.621 170.395 140.936 169.356 140.936 168.294C140.947 167.585 140.816 166.882 140.55 166.225C140.284 165.569 139.888 164.972 139.387 164.471C138.886 163.97 138.29 163.575 137.633 163.309C136.976 163.043 136.273 162.912 135.565 162.923V162.923Z" fill="white"/>
<path d="M116.835 169.396C115.936 169.396 115.057 169.662 114.31 170.161C113.562 170.661 112.98 171.371 112.636 172.201C112.292 173.032 112.202 173.945 112.377 174.827C112.553 175.709 112.986 176.518 113.621 177.154C114.257 177.79 115.067 178.222 115.948 178.398C116.83 178.573 117.743 178.483 118.574 178.139C119.404 177.795 120.114 177.213 120.614 176.465C121.113 175.718 121.38 174.839 121.38 173.94C121.399 173.338 121.294 172.739 121.073 172.179C120.851 171.619 120.517 171.11 120.091 170.684C119.665 170.258 119.156 169.924 118.596 169.703C118.036 169.481 117.437 169.376 116.835 169.396V169.396Z" fill="white"/>
<path d="M99.3443 172.012C98.5544 172.012 97.7822 172.246 97.1254 172.685C96.4686 173.124 95.9567 173.748 95.6544 174.478C95.3521 175.207 95.273 176.011 95.4271 176.785C95.5813 177.56 95.9616 178.272 96.5202 178.83C97.0787 179.389 97.7904 179.769 98.5651 179.923C99.3398 180.077 100.143 179.998 100.873 179.696C101.602 179.394 102.226 178.882 102.665 178.225C103.104 177.568 103.338 176.796 103.338 176.006C103.304 174.958 102.872 173.962 102.13 173.22C101.389 172.478 100.393 172.047 99.3443 172.012V172.012Z" fill="white"/>
<path d="M81.7161 169.396C80.8172 169.396 79.9385 169.662 79.1912 170.161C78.4438 170.661 77.8613 171.371 77.5173 172.201C77.1733 173.032 77.0833 173.945 77.2587 174.827C77.434 175.708 77.8669 176.518 78.5025 177.154C79.1381 177.789 79.9479 178.222 80.8294 178.398C81.711 178.573 82.6248 178.483 83.4553 178.139C84.2857 177.795 84.9955 177.213 85.4949 176.465C85.9943 175.718 86.2608 174.839 86.2608 173.94C86.2501 172.738 85.7678 171.589 84.9178 170.739C84.0678 169.889 82.9181 169.406 81.7161 169.396Z" fill="white"/>
<path d="M62.9862 162.785C61.9377 162.799 60.9167 163.123 60.0525 163.717C59.1882 164.311 58.5195 165.148 58.1309 166.122C57.7422 167.096 57.6511 168.163 57.8691 169.189C58.087 170.214 58.6042 171.153 59.3553 171.884C60.1064 172.616 61.0576 173.109 62.0886 173.3C63.1197 173.491 64.1843 173.372 65.1478 172.959C66.1114 172.545 66.9306 171.855 67.5019 170.975C68.0731 170.096 68.3708 169.067 68.3573 168.018C68.2576 166.64 67.6559 165.346 66.666 164.381C65.6761 163.417 64.3668 162.849 62.9862 162.785V162.785Z" fill="white"/>
<path d="M43.8431 150.528C42.6757 150.533 41.5294 150.84 40.5157 151.419C39.5021 151.998 38.6557 152.83 38.0589 153.833C37.4503 154.828 37.1283 155.972 37.1283 157.138C37.1283 158.305 37.4503 159.449 38.0589 160.444C38.635 161.458 39.4684 162.303 40.475 162.893C41.4816 163.483 42.6259 163.797 43.7927 163.804C44.9594 163.811 46.1073 163.51 47.1207 162.932C48.1341 162.354 48.9773 161.519 49.5652 160.511C50.153 159.503 50.4649 158.358 50.4694 157.191C50.4738 156.024 50.1706 154.877 49.5904 153.865C49.0102 152.853 48.1735 152.011 47.1645 151.425C46.1555 150.84 45.0099 150.53 43.8431 150.528V150.528Z" fill="white"/>
<path d="M26.9036 132.211C25.3783 132.211 23.8872 132.664 22.6189 133.511C21.3506 134.358 20.3621 135.563 19.7784 136.972C19.1946 138.381 19.0419 139.932 19.3395 141.428C19.6371 142.924 20.3716 144.298 21.4502 145.377C22.5288 146.456 23.903 147.19 25.399 147.488C26.8951 147.785 28.4457 147.632 29.855 147.049C31.2642 146.465 32.4687 145.477 33.3162 144.208C34.1636 142.94 34.6159 141.449 34.6159 139.923C34.5944 137.885 33.775 135.936 32.3333 134.494C30.8916 133.052 28.9424 132.233 26.9036 132.211V132.211Z" fill="white"/>
<path d="M15.4728 108.799C13.6967 108.771 11.9526 109.273 10.4625 110.24C8.97239 111.207 7.80361 112.595 7.1049 114.228C6.4062 115.861 6.20915 117.666 6.53885 119.411C6.86855 121.156 7.71008 122.764 8.95635 124.03C10.2026 125.296 11.7973 126.162 13.5374 126.519C15.2776 126.876 17.0845 126.707 18.7282 126.033C20.372 125.36 21.7783 124.213 22.7682 122.738C23.758 121.263 24.2867 119.527 24.2869 117.751C24.2525 115.411 23.3171 113.174 21.6753 111.507C20.0335 109.839 17.8118 108.869 15.4728 108.799V108.799Z" fill="white"/>
<path d="M11.3412 79.6022C9.27111 79.6022 7.24748 80.216 5.52624 81.3661C3.80499 82.5162 2.46345 84.1509 1.67125 86.0635C0.879047 87.976 0.671771 90.0805 1.07563 92.1108C1.47949 94.1412 2.47635 96.0062 3.94015 97.47C5.40394 98.9338 7.26893 99.9306 9.29928 100.334C11.3296 100.738 13.4341 100.531 15.3467 99.7389C17.2592 98.9467 18.8939 97.6051 20.044 95.8839C21.1941 94.1626 21.808 92.139 21.808 90.0689C21.808 87.2929 20.7052 84.6307 18.7423 82.6678C16.7794 80.7049 14.1172 79.6022 11.3412 79.6022V79.6022Z" fill="white"/>
<path d="M15.4728 53.16C13.8739 53.1407 12.2973 53.5366 10.8972 54.3091C9.49711 55.0816 8.32142 56.2041 7.48507 57.567C6.79339 58.7619 6.38565 60.0997 6.29335 61.4773C6.20104 62.8548 6.42666 64.2351 6.95275 65.5116C7.47884 66.788 8.29133 67.9264 9.32745 68.8389C10.3636 69.7513 11.5956 70.4134 12.9283 70.7739C14.261 71.1343 15.6588 71.1836 17.0136 70.9179C18.3684 70.6522 19.644 70.0786 20.7418 69.2414C21.8396 68.4042 22.7303 67.3258 23.345 66.0896C23.9597 64.8534 24.2819 63.4924 24.2869 62.1118C24.2525 59.772 23.3171 57.5356 21.6753 55.8681C20.0335 54.2007 17.8118 53.2306 15.4728 53.16V53.16Z" fill="white"/>
<path d="M26.9036 32.3642C25.5364 32.3433 24.1888 32.6902 23.0016 33.3686C21.8145 34.047 20.8314 35.0319 20.1553 36.2204C19.4784 37.3928 19.1221 38.7228 19.1221 40.0766C19.1221 41.4303 19.4784 42.7603 20.1553 43.9327C20.8538 45.1014 21.8417 46.0702 23.0238 46.7457C24.2059 47.4211 25.5422 47.7804 26.9036 47.7889C28.9205 47.7388 30.8389 46.906 32.2526 45.4665C33.6663 44.0271 34.4645 42.0941 34.4782 40.0766C34.4181 38.0737 33.6048 36.1671 32.2008 34.7375C30.7967 33.3079 28.9051 32.4604 26.9036 32.3642V32.3642Z" fill="white"/>
<path d="M43.8432 16.1133C42.5357 16.1133 41.2576 16.501 40.1705 17.2274C39.0834 17.9537 38.2361 18.9862 37.7358 20.1941C37.2355 21.402 37.1046 22.7312 37.3596 24.0135C37.6147 25.2958 38.2443 26.4737 39.1688 27.3982C40.0933 28.3227 41.2712 28.9523 42.5535 29.2074C43.8358 29.4624 45.165 29.3315 46.3729 28.8312C47.5808 28.3309 48.6133 27.4836 49.3396 26.3965C50.066 25.3094 50.4537 24.0313 50.4537 22.7238C50.4537 20.9706 49.7573 19.2892 48.5175 18.0495C47.2778 16.8097 45.5964 16.1133 43.8432 16.1133V16.1133Z" fill="white"/>
<path d="M62.9862 6.33508C61.9239 6.33508 60.8855 6.65009 60.0022 7.24027C59.1189 7.83045 58.4305 8.6693 58.024 9.65074C57.6174 10.6322 57.5111 11.7121 57.7183 12.754C57.9256 13.7959 58.4371 14.7529 59.1883 15.5041C59.9394 16.2552 60.8965 16.7668 61.9384 16.974C62.9802 17.1813 64.0602 17.0749 65.0416 16.6684C66.0231 16.2619 66.8619 15.5734 67.4521 14.6902C68.0423 13.8069 68.3573 12.7685 68.3573 11.7062C68.3224 10.2927 67.7453 8.9467 66.7455 7.94689C65.7457 6.94709 64.3997 6.37 62.9862 6.33508Z" fill="white"/>
<path d="M81.7161 1.37726C81.0997 1.37175 80.4883 1.4891 79.9177 1.72246C79.3471 1.95583 78.8287 2.30053 78.3928 2.73644C77.9569 3.17235 77.6122 3.69074 77.3788 4.26133C77.1455 4.83193 77.0281 5.44329 77.0336 6.05974C77.0281 6.67619 77.1455 7.28755 77.3788 7.85815C77.6122 8.42874 77.9569 8.94713 78.3928 9.38304C78.8287 9.81895 79.3471 10.1637 79.9177 10.397C80.4883 10.6304 81.0997 10.7477 81.7161 10.7422C82.9181 10.7314 84.0678 10.2492 84.9178 9.39917C85.7678 8.54919 86.2501 7.39947 86.2609 6.19746C86.2835 4.95946 85.8205 3.76181 84.9711 2.8609C84.1217 1.96 82.9533 1.42745 81.7161 1.37726V1.37726Z" fill="white"/>
<path d="M99.2065 0C98.4166 0 97.6444 0.234237 96.9876 0.67309C96.3309 1.11194 95.8189 1.7357 95.5167 2.46549C95.2144 3.19527 95.1353 3.99831 95.2894 4.77305C95.4435 5.54778 95.8239 6.25942 96.3824 6.81798C96.941 7.37653 97.6526 7.75691 98.4274 7.91102C99.2021 8.06512 100.005 7.98603 100.735 7.68374C101.465 7.38146 102.088 6.86955 102.527 6.21276C102.966 5.55597 103.2 4.78379 103.2 3.99388C103.2 3.4694 103.097 2.95005 102.896 2.46549C102.696 1.98093 102.401 1.54065 102.031 1.16978C101.66 0.798914 101.219 0.504727 100.735 0.304016C100.25 0.103305 99.731 0 99.2065 0V0Z" fill="white"/>
<path d="M116.835 1.37716C115.633 1.38794 114.483 1.87023 113.633 2.72021C112.783 3.57019 112.301 4.71991 112.29 5.92192C112.29 6.51875 112.408 7.10973 112.636 7.66112C112.864 8.21252 113.199 8.71353 113.621 9.13555C114.043 9.55757 114.544 9.89234 115.096 10.1207C115.647 10.3491 116.238 10.4667 116.835 10.4667C117.432 10.4667 118.023 10.3491 118.574 10.1207C119.125 9.89234 119.626 9.55757 120.048 9.13555C120.47 8.71353 120.805 8.21252 121.034 7.66112C121.262 7.10973 121.38 6.51875 121.38 5.92192C121.399 5.31992 121.294 4.72039 121.073 4.16034C120.851 3.6003 120.517 3.09162 120.091 2.66573C119.665 2.23984 119.156 1.90576 118.596 1.68414C118.036 1.46251 117.437 1.35804 116.835 1.37716V1.37716Z" fill="white"/>
<path d="M135.565 6.33509C134.621 6.31527 133.69 6.5476 132.866 7.0081C132.042 7.46861 131.356 8.1406 130.879 8.9547C130.402 9.7688 130.151 10.6955 130.151 11.6392C130.152 12.5829 130.404 13.5093 130.882 14.3228C131.49 15.3357 132.412 16.122 133.508 16.5617C134.605 17.0015 135.814 17.0706 136.954 16.7585C138.093 16.4464 139.099 15.7702 139.818 14.8332C140.537 13.8961 140.929 12.7495 140.936 11.5684C140.944 10.8673 140.809 10.1718 140.54 9.52416C140.271 8.87654 139.874 8.29028 139.372 7.80092C138.869 7.31157 138.273 6.92931 137.619 6.67734C136.964 6.42537 136.265 6.30893 135.565 6.33509V6.33509Z" fill="white"/>
<path d="M154.708 16.251C153.4 16.251 152.122 16.6387 151.035 17.3651C149.948 18.0914 149.101 19.1239 148.6 20.3318C148.1 21.5397 147.969 22.8689 148.224 24.1512C148.479 25.4335 149.109 26.6114 150.033 27.5359C150.958 28.4604 152.136 29.09 153.418 29.3451C154.7 29.6001 156.03 29.4692 157.237 28.9689C158.445 28.4686 159.478 27.6213 160.204 26.5342C160.931 25.4471 161.318 24.169 161.318 22.8615C161.318 21.1083 160.622 19.4269 159.382 18.1872C158.142 16.9474 156.461 16.251 154.708 16.251V16.251Z" fill="white"/>
<path d="M171.647 32.3641C170.122 32.3641 168.631 32.8165 167.363 33.6639C166.094 34.5113 165.106 35.7158 164.522 37.1251C163.938 38.5343 163.786 40.085 164.083 41.5811C164.381 43.0771 165.115 44.4513 166.194 45.5299C167.272 46.6085 168.647 47.343 170.143 47.6406C171.639 47.9382 173.189 47.7854 174.599 47.2017C176.008 46.618 177.212 45.6295 178.06 44.3612C178.907 43.0929 179.36 41.6018 179.36 40.0765C179.361 39.0632 179.163 38.0595 178.776 37.1229C178.389 36.1864 177.821 35.3355 177.105 34.619C176.388 33.9025 175.537 33.3345 174.601 32.9475C173.664 32.5606 172.661 32.3623 171.647 32.3641V32.3641Z" fill="white"/>
<path d="M183.078 53.16C181.479 53.1407 179.903 53.5366 178.502 54.3091C177.102 55.0816 175.927 56.2041 175.09 57.567C174.399 58.7619 173.991 60.0997 173.899 61.4773C173.806 62.8548 174.032 64.2351 174.558 65.5116C175.084 66.788 175.897 67.9264 176.933 68.8389C177.969 69.7513 179.201 70.4134 180.534 70.7739C181.866 71.1343 183.264 71.1836 184.619 70.9179C185.974 70.6522 187.249 70.0786 188.347 69.2414C189.445 68.4042 190.336 67.3258 190.95 66.0896C191.565 64.8534 191.887 63.4924 191.892 62.1118C191.91 60.9428 191.696 59.7818 191.261 58.6965C190.826 57.6111 190.18 56.6232 189.36 55.7901C188.539 54.957 187.562 54.2954 186.483 53.8438C185.405 53.3923 184.247 53.1598 183.078 53.16V53.16Z" fill="white"/>
<path d="M141.762 103.703C141.047 103.674 140.338 103.838 139.708 104.177C139.078 104.517 138.551 105.019 138.181 105.631C137.842 106.267 137.665 106.977 137.665 107.697C137.665 108.418 137.842 109.127 138.181 109.763C138.528 110.396 139.05 110.915 139.686 111.257C140.321 111.6 141.043 111.75 141.762 111.691C142.786 111.623 143.748 111.176 144.461 110.438C145.174 109.7 145.586 108.723 145.618 107.697C145.626 106.659 145.226 105.66 144.505 104.913C143.784 104.166 142.8 103.732 141.762 103.703V103.703Z" fill="white"/>
<path d="M131.708 118.715C130.994 118.686 130.284 118.85 129.654 119.189C129.024 119.528 128.497 120.03 128.128 120.643C127.789 121.279 127.612 121.988 127.612 122.709C127.612 123.429 127.789 124.138 128.128 124.774C128.487 125.396 129.012 125.906 129.644 126.247C130.277 126.587 130.991 126.745 131.708 126.702C132.768 126.702 133.784 126.282 134.533 125.533C135.282 124.784 135.702 123.768 135.702 122.709C135.702 121.649 135.282 120.633 134.533 119.884C133.784 119.135 132.768 118.715 131.708 118.715V118.715Z" fill="white"/>
<path d="M116.697 128.355C115.92 128.363 115.157 128.57 114.482 128.955C113.807 129.341 113.242 129.893 112.841 130.559C112.436 131.222 112.221 131.985 112.221 132.762C112.221 133.54 112.436 134.302 112.841 134.966C113.23 135.642 113.792 136.203 114.47 136.59C115.148 136.978 115.916 137.177 116.697 137.169C117.866 137.169 118.987 136.705 119.813 135.878C120.64 135.052 121.104 133.931 121.104 132.762C121.104 131.593 120.64 130.472 119.813 129.646C118.987 128.819 117.866 128.355 116.697 128.355V128.355Z" fill="white"/>
<path d="M99.0688 130.972C97.8976 130.972 96.7526 131.319 95.7787 131.97C94.8049 132.62 94.0458 133.545 93.5976 134.627C93.1494 135.71 93.0321 136.9 93.2606 138.049C93.4891 139.198 94.0531 140.253 94.8813 141.081C95.7095 141.909 96.7647 142.473 97.9135 142.702C99.0622 142.93 100.253 142.813 101.335 142.365C102.417 141.917 103.342 141.158 103.993 140.184C104.643 139.21 104.991 138.065 104.991 136.894C104.956 135.334 104.321 133.848 103.217 132.745C102.114 131.642 100.628 131.007 99.0688 130.972V130.972Z" fill="white"/>
<path d="M81.303 127.391C79.9683 127.391 78.6636 127.787 77.5538 128.528C76.4441 129.27 75.5791 130.324 75.0684 131.557C74.5576 132.79 74.424 134.147 74.6844 135.456C74.9447 136.765 75.5875 137.967 76.5312 138.911C77.475 139.855 78.6774 140.497 79.9864 140.758C81.2955 141.018 82.6523 140.885 83.8854 140.374C85.1185 139.863 86.1724 138.998 86.914 137.888C87.6555 136.779 88.0512 135.474 88.0512 134.139C88.0476 132.351 87.3355 130.636 86.0707 129.371C84.8059 128.107 83.0916 127.395 81.303 127.391V127.391Z" fill="white"/>
<path d="M65.3275 116.098C63.8566 116.098 62.4188 116.534 61.1958 117.351C59.9728 118.169 59.0196 119.33 58.4567 120.689C57.8938 122.048 57.7466 123.543 58.0335 124.986C58.3205 126.428 59.0288 127.753 60.0688 128.794C61.1089 129.834 62.434 130.542 63.8766 130.829C65.3193 131.116 66.8146 130.969 68.1735 130.406C69.5324 129.843 70.6939 128.89 71.511 127.667C72.3282 126.444 72.7644 125.006 72.7644 123.535C72.768 122.557 72.5781 121.589 72.2057 120.685C71.8332 119.781 71.2856 118.959 70.5943 118.268C69.903 117.577 69.0817 117.029 68.1778 116.657C67.2738 116.284 66.3051 116.094 65.3275 116.098V116.098Z" fill="white"/>
<path d="M54.723 100.949C53.4972 100.949 52.299 101.312 51.2799 101.993C50.2607 102.674 49.4664 103.642 48.9973 104.775C48.5283 105.907 48.4055 107.153 48.6447 108.355C48.8838 109.557 49.474 110.662 50.3408 111.528C51.2075 112.395 52.3117 112.985 53.5139 113.225C54.7161 113.464 55.9622 113.341 57.0946 112.872C58.227 112.403 59.1949 111.608 59.8759 110.589C60.5569 109.57 60.9204 108.372 60.9204 107.146C60.924 106.331 60.7662 105.524 60.4561 104.77C60.1459 104.017 59.6895 103.332 59.1133 102.756C58.5371 102.18 57.8525 101.723 57.0989 101.413C56.3454 101.103 55.5378 100.945 54.723 100.949V100.949Z" fill="white"/>
<path d="M52.244 84.4224C51.2907 84.4224 50.3587 84.7051 49.5661 85.2348C48.7734 85.7644 48.1556 86.5172 47.7907 87.398C47.4259 88.2788 47.3305 89.248 47.5164 90.183C47.7024 91.118 48.1615 91.9769 48.8356 92.651C49.5098 93.3251 50.3686 93.7842 51.3037 93.9702C52.2387 94.1562 53.2079 94.0607 54.0886 93.6959C54.9694 93.3311 55.7222 92.7132 56.2519 91.9206C56.7815 91.1279 57.0642 90.196 57.0642 89.2426C57.0793 88.6055 56.9649 87.9719 56.7281 87.3803C56.4912 86.7887 56.1367 86.2513 55.686 85.8006C55.2354 85.35 54.698 84.9955 54.1063 84.7586C53.5147 84.5217 52.8812 84.4073 52.244 84.4224Z" fill="white"/>
<path d="M56.5134 68.1714C55.7235 68.1714 54.9513 68.4057 54.2945 68.8445C53.6377 69.2834 53.1258 69.9071 52.8235 70.6369C52.5213 71.3667 52.4422 72.1697 52.5963 72.9445C52.7504 73.7192 53.1308 74.4308 53.6893 74.9894C54.2479 75.548 54.9595 75.9283 55.7342 76.0824C56.509 76.2365 57.312 76.1575 58.0418 75.8552C58.7716 75.5529 59.3953 75.041 59.8342 74.3842C60.2731 73.7274 60.5073 72.9552 60.5073 72.1653C60.5186 71.6377 60.423 71.1133 60.2262 70.6237C60.0295 70.134 59.7357 69.6892 59.3626 69.3161C58.9895 68.943 58.5447 68.6492 58.055 68.4525C57.5654 68.2558 57.041 68.1602 56.5134 68.1714V68.1714Z" fill="white"/>
<path d="M66.7047 53.2977C65.9899 53.2689 65.2804 53.4326 64.6505 53.7718C64.0206 54.111 63.4934 54.6131 63.124 55.2257C62.7852 55.8616 62.608 56.5711 62.608 57.2915C62.608 58.012 62.7852 58.7215 63.124 59.3573C63.4831 59.9794 64.0082 60.4891 64.6406 60.8297C65.273 61.1702 65.9877 61.328 66.7047 61.2854C67.7639 61.2854 68.7798 60.8646 69.5288 60.1156C70.2778 59.3666 70.6986 58.3508 70.6986 57.2915C70.6642 56.2432 70.2323 55.2472 69.4907 54.5056C68.749 53.7639 67.753 53.3321 66.7047 53.2977V53.2977Z" fill="white"/>
<path d="M81.5784 42.8309C80.7067 42.8309 79.8547 43.0894 79.1299 43.5737C78.4052 44.0579 77.8404 44.7462 77.5068 45.5515C77.1732 46.3568 77.086 47.2429 77.256 48.0977C77.4261 48.9526 77.8458 49.7379 78.4621 50.3542C79.0785 50.9706 79.8637 51.3903 80.7186 51.5603C81.5735 51.7304 82.4596 51.6431 83.2649 51.3095C84.0702 50.976 84.7584 50.4111 85.2427 49.6864C85.7269 48.9617 85.9854 48.1096 85.9854 47.238C85.9782 46.0714 85.5116 44.9546 84.6866 44.1297C83.8617 43.3048 82.745 42.8382 81.5784 42.8309V42.8309Z" fill="white"/>
<path d="M99.3167 48.9595C102.587 48.9595 105.239 46.3082 105.239 43.0376C105.239 39.767 102.587 37.1156 99.3167 37.1156C96.0461 37.1156 93.3948 39.767 93.3948 43.0376C93.3948 46.3082 96.0461 48.9595 99.3167 48.9595Z" fill="white"/>
<path d="M116.972 39.1124C115.638 39.1124 114.333 39.5082 113.223 40.2497C112.114 40.9912 111.249 42.0452 110.738 43.2782C110.227 44.5113 110.093 45.8682 110.354 47.1772C110.614 48.4863 111.257 49.6887 112.201 50.6325C113.144 51.5762 114.347 52.2189 115.656 52.4793C116.965 52.7397 118.322 52.6061 119.555 52.0953C120.788 51.5845 121.842 50.7196 122.583 49.6098C123.325 48.5001 123.721 47.1954 123.721 45.8607C123.717 44.0721 123.005 42.3577 121.74 41.093C120.475 39.8282 118.761 39.1161 116.972 39.1124V39.1124Z" fill="white"/>
<path d="M132.948 49.0282C131.477 49.0282 130.039 49.4644 128.816 50.2816C127.593 51.0988 126.64 52.2602 126.077 53.6192C125.514 54.9781 125.367 56.4734 125.654 57.916C125.941 59.3586 126.649 60.6837 127.689 61.7238C128.729 62.7639 130.055 63.4722 131.497 63.7591C132.94 64.0461 134.435 63.8988 135.794 63.3359C137.153 62.773 138.314 61.8198 139.132 60.5968C139.949 59.3739 140.385 57.936 140.385 56.4651C140.389 55.4875 140.199 54.5188 139.826 53.6149C139.454 52.7109 138.906 51.8896 138.215 51.1983C137.523 50.507 136.702 49.9594 135.798 49.5869C134.894 49.2145 133.926 49.0246 132.948 49.0282V49.0282Z" fill="white"/>
<path d="M143.552 66.5187C142.327 66.5187 141.128 66.8822 140.109 67.5632C139.09 68.2442 138.296 69.2121 137.827 70.3445C137.358 71.4769 137.235 72.723 137.474 73.9252C137.713 75.1274 138.303 76.2316 139.17 77.0984C140.037 77.9651 141.141 78.5553 142.343 78.7945C143.545 79.0336 144.792 78.9109 145.924 78.4418C147.056 77.9727 148.024 77.1784 148.705 76.1592C149.386 75.1401 149.75 73.9419 149.75 72.7161C149.753 71.9013 149.596 71.0937 149.285 70.3402C148.975 69.5866 148.519 68.902 147.943 68.3258C147.367 67.7496 146.682 67.2932 145.928 66.9831C145.175 66.6729 144.367 66.5151 143.552 66.5187Z" fill="white"/>
<path d="M127.301 101.362C129.355 101.362 131.02 99.6971 131.02 97.6435C131.02 95.5899 129.355 93.925 127.301 93.925C125.248 93.925 123.583 95.5899 123.583 97.6435C123.583 99.6971 125.248 101.362 127.301 101.362Z" fill="white"/>
<path d="M120.002 105.493C118.913 105.493 117.848 105.817 116.942 106.422C116.036 107.027 115.33 107.888 114.913 108.894C114.496 109.901 114.387 111.008 114.599 112.077C114.812 113.146 115.337 114.127 116.107 114.898C116.877 115.668 117.859 116.193 118.928 116.405C119.996 116.618 121.104 116.509 122.11 116.092C123.117 115.675 123.977 114.969 124.583 114.063C125.188 113.157 125.511 112.092 125.511 111.002C125.532 110.273 125.404 109.547 125.134 108.87C124.865 108.192 124.46 107.576 123.944 107.06C123.428 106.545 122.813 106.14 122.135 105.87C121.457 105.601 120.731 105.473 120.002 105.493V105.493Z" fill="white"/>
<path d="M105.817 112.93C104.673 112.93 103.555 113.27 102.604 113.905C101.652 114.541 100.911 115.444 100.473 116.501C100.035 117.558 99.9209 118.721 100.144 119.843C100.367 120.965 100.918 121.996 101.727 122.805C102.536 123.614 103.567 124.165 104.689 124.388C105.811 124.611 106.974 124.496 108.031 124.059C109.088 123.621 109.991 122.879 110.627 121.928C111.262 120.977 111.601 119.859 111.601 118.715C111.591 117.184 110.978 115.719 109.895 114.637C108.813 113.554 107.348 112.941 105.817 112.93V112.93Z" fill="white"/>
<path d="M89.0153 112.517C88.1115 112.507 87.2223 112.746 86.4451 113.208C85.6678 113.669 85.0324 114.336 84.6083 115.134C84.1353 115.9 83.8848 116.782 83.8848 117.682C83.8848 118.582 84.1353 119.464 84.6083 120.23C85.1533 121.215 86.0107 121.99 87.0454 122.434C88.08 122.878 89.2329 122.964 90.3222 122.68C91.4115 122.396 92.3752 121.757 93.0613 120.865C93.7473 119.972 94.1166 118.876 94.111 117.751C94.1391 117.067 94.0276 116.386 93.7833 115.747C93.539 115.109 93.167 114.527 92.69 114.037C92.213 113.547 91.6411 113.159 91.0093 112.898C90.3775 112.637 89.699 112.507 89.0153 112.517V112.517Z" fill="white"/>
<path d="M76.6205 104.116C75.885 104.116 75.1661 104.334 74.5546 104.743C73.9431 105.152 73.4665 105.732 73.1851 106.412C72.9036 107.091 72.83 107.839 72.9735 108.56C73.117 109.281 73.4711 109.944 73.9911 110.464C74.5112 110.984 75.1737 111.338 75.895 111.482C76.6164 111.625 77.364 111.552 78.0435 111.27C78.7229 110.989 79.3037 110.512 79.7122 109.901C80.1208 109.289 80.3389 108.57 80.3389 107.835C80.3407 107.346 80.2458 106.862 80.0596 106.41C79.8733 105.958 79.5995 105.547 79.2539 105.201C78.9082 104.856 78.4976 104.582 78.0456 104.396C77.5937 104.209 77.1093 104.114 76.6205 104.116V104.116Z" fill="white"/>
<path d="M71.6626 93.2364C71.1178 93.2364 70.5853 93.3979 70.1323 93.7006C69.6794 94.0033 69.3263 94.4334 69.1179 94.9367C68.9094 95.44 68.8549 95.9938 68.9611 96.5281C69.0674 97.0624 69.3297 97.5532 69.7149 97.9384C70.1002 98.3236 70.5909 98.586 71.1252 98.6923C71.6595 98.7985 72.2134 98.744 72.7167 98.5355C73.22 98.327 73.6501 97.974 73.9528 97.521C74.2555 97.0681 74.417 96.5356 74.417 95.9908C74.417 95.2603 74.1268 94.5597 73.6103 94.0431C73.0937 93.5266 72.3931 93.2364 71.6626 93.2364Z" fill="white"/>
<path d="M71.3871 79.0512C70.6517 79.0512 69.9328 79.2693 69.3213 79.6779C68.7098 80.0865 68.2332 80.6672 67.9518 81.3467C67.6703 82.0261 67.5967 82.7738 67.7402 83.4951C67.8836 84.2164 68.2378 84.879 68.7578 85.399C69.2778 85.919 69.9404 86.2732 70.6617 86.4167C71.383 86.5601 72.1307 86.4865 72.8101 86.2051C73.4896 85.9236 74.0703 85.447 74.4789 84.8355C74.8875 84.224 75.1056 83.5051 75.1056 82.7697C75.1074 82.2808 75.0125 81.7965 74.8262 81.3445C74.64 80.8926 74.3662 80.4819 74.0205 80.1363C73.6749 79.7906 73.2642 79.5168 72.8123 79.3306C72.3603 79.1443 71.876 79.0494 71.3871 79.0512V79.0512Z" fill="white"/>
<path d="M78.6863 63.7644C77.5968 63.7644 76.5317 64.0875 75.6258 64.6928C74.7198 65.2981 74.0138 66.1585 73.5968 67.1651C73.1799 68.1717 73.0708 69.2793 73.2833 70.3479C73.4959 71.4165 74.0206 72.3981 74.791 73.1685C75.5614 73.9389 76.543 74.4636 77.6116 74.6761C78.6802 74.8887 79.7878 74.7796 80.7944 74.3627C81.801 73.9457 82.6614 73.2396 83.2667 72.3337C83.872 71.4278 84.1951 70.3627 84.1951 69.2732C84.1951 67.8122 83.6147 66.411 82.5816 65.3779C81.5485 64.3448 80.1473 63.7644 78.6863 63.7644Z" fill="white"/>
<path d="M92.8715 55.7766C91.7275 55.7766 90.6092 56.1158 89.658 56.7514C88.7068 57.387 87.9654 58.2903 87.5276 59.3473C87.0898 60.4042 86.9752 61.5672 87.1984 62.6892C87.4216 63.8113 87.9725 64.8419 88.7814 65.6509C89.5904 66.4598 90.621 67.0107 91.7431 67.2339C92.8651 67.4571 94.0281 67.3425 95.0851 66.9047C96.142 66.4669 97.0454 65.7255 97.6809 64.7743C98.3165 63.8231 98.6558 62.7048 98.6558 61.5608C98.6449 60.0301 98.0321 58.5651 96.9496 57.4827C95.8672 56.4003 94.4023 55.7874 92.8715 55.7766V55.7766Z" fill="white"/>
<path d="M109.673 57.5669C108.767 57.5586 107.874 57.782 107.079 58.2158C106.283 58.6497 105.612 59.2796 105.128 60.0459C104.655 60.8367 104.405 61.741 104.405 62.6626C104.405 63.5841 104.655 64.4885 105.128 65.2793C105.579 66.0753 106.244 66.7294 107.047 67.1675C107.85 67.6056 108.76 67.8102 109.673 67.7582C111.025 67.7582 112.321 67.2214 113.276 66.2657C114.232 65.3101 114.769 64.014 114.769 62.6626C114.769 61.3111 114.232 60.015 113.276 59.0594C112.321 58.1038 111.025 57.5669 109.673 57.5669V57.5669Z" fill="white"/>
<path d="M121.93 68.5845C121.195 68.5845 120.476 68.8026 119.864 69.2112C119.253 69.6198 118.776 70.2005 118.495 70.88C118.213 71.5595 118.14 72.3071 118.283 73.0284C118.427 73.7497 118.781 74.4123 119.301 74.9323C119.821 75.4524 120.484 75.8065 121.205 75.95C121.926 76.0935 122.674 76.0198 123.353 75.7384C124.033 75.4569 124.613 74.9803 125.022 74.3688C125.431 73.7573 125.649 73.0384 125.649 72.303C125.674 71.8079 125.596 71.3129 125.418 70.8501C125.24 70.3873 124.967 69.967 124.617 69.6164C124.266 69.2659 123.846 68.9929 123.383 68.8151C122.92 68.6374 122.425 68.5588 121.93 68.5845V68.5845Z" fill="white"/>
<path d="M127.164 81.668C126.619 81.668 126.086 81.8295 125.634 82.1322C125.181 82.4348 124.828 82.865 124.619 83.3683C124.411 83.8716 124.356 84.4254 124.462 84.9597C124.569 85.494 124.831 85.9848 125.216 86.37C125.601 86.7552 126.092 87.0176 126.626 87.1238C127.161 87.2301 127.715 87.1756 128.218 86.9671C128.721 86.7586 129.151 86.4056 129.454 85.9526C129.757 85.4997 129.918 84.9671 129.918 84.4224C129.918 83.6919 129.628 82.9913 129.111 82.4747C128.595 81.9582 127.894 81.668 127.164 81.668Z" fill="white"/>
<path d="M146.031 85.9373C145.078 85.9373 144.146 86.22 143.353 86.7496C142.561 87.2793 141.943 88.0321 141.578 88.9128C141.213 89.7936 141.118 90.7628 141.304 91.6978C141.49 92.6329 141.949 93.4917 142.623 94.1659C143.297 94.84 144.156 95.2991 145.091 95.485C146.026 95.671 146.995 95.5756 147.876 95.2107C148.757 94.8459 149.51 94.2281 150.039 93.4354C150.569 92.6427 150.852 91.7108 150.852 90.7575C150.837 89.4835 150.325 88.2658 149.424 87.3649C148.523 86.464 147.305 85.9516 146.031 85.9373V85.9373Z" fill="white"/>
<path d="M166.001 91.8591C164.993 91.8591 164.008 92.158 163.17 92.7179C162.332 93.2778 161.679 94.0737 161.293 95.0048C160.907 95.9359 160.806 96.9604 161.003 97.9489C161.2 98.9374 161.685 99.8453 162.398 100.558C163.11 101.271 164.018 101.756 165.007 101.953C165.995 102.149 167.02 102.048 167.951 101.663C168.882 101.277 169.678 100.624 170.238 99.7858C170.798 98.9478 171.096 97.9626 171.096 96.9548C171.098 96.2851 170.968 95.6217 170.712 95.0026C170.457 94.3836 170.082 93.8211 169.608 93.3476C169.134 92.874 168.572 92.4988 167.953 92.2433C167.334 91.9879 166.67 91.8573 166.001 91.8591V91.8591Z" fill="white"/>
<path d="M160.905 109.901C159.952 109.901 159.02 110.183 158.227 110.713C157.435 111.243 156.817 111.995 156.452 112.876C156.087 113.757 155.992 114.726 156.178 115.661C156.364 116.596 156.823 117.455 157.497 118.129C158.171 118.803 159.03 119.262 159.965 119.448C160.9 119.634 161.869 119.539 162.75 119.174C163.631 118.809 164.383 118.191 164.913 117.399C165.443 116.606 165.725 115.674 165.725 114.721C165.729 114.087 165.607 113.458 165.366 112.872C165.125 112.285 164.77 111.753 164.322 111.304C163.873 110.856 163.341 110.501 162.754 110.26C162.168 110.019 161.539 109.897 160.905 109.901V109.901Z" fill="white"/>
<path d="M152.229 125.05C151.406 125.022 150.594 125.241 149.897 125.678C149.2 126.115 148.649 126.75 148.315 127.503C147.981 128.255 147.879 129.089 148.023 129.9C148.166 130.71 148.549 131.459 149.121 132.051C149.692 132.642 150.428 133.05 151.233 133.221C152.038 133.392 152.876 133.318 153.639 133.01C154.402 132.702 155.055 132.173 155.516 131.49C155.976 130.808 156.222 130.004 156.223 129.181C156.203 128.115 155.78 127.096 155.039 126.329C154.298 125.563 153.294 125.105 152.229 125.05V125.05Z" fill="white"/>
<path d="M141.762 136.343C141.127 136.354 140.504 136.523 139.951 136.836C139.398 137.149 138.932 137.595 138.594 138.133C138.257 138.669 138.078 139.29 138.078 139.923C138.078 140.557 138.257 141.178 138.594 141.714C138.92 142.263 139.383 142.718 139.939 143.032C140.495 143.346 141.124 143.509 141.762 143.504C142.233 143.508 142.701 143.418 143.137 143.239C143.573 143.06 143.969 142.797 144.302 142.464C144.635 142.13 144.899 141.734 145.078 141.298C145.256 140.862 145.346 140.395 145.343 139.923C145.325 138.979 144.942 138.079 144.274 137.411C143.607 136.743 142.706 136.36 141.762 136.343V136.343Z" fill="white"/>
<path d="M130.744 144.606C130.145 144.606 129.559 144.784 129.061 145.117C128.563 145.45 128.175 145.923 127.945 146.476C127.716 147.03 127.656 147.639 127.773 148.227C127.89 148.815 128.178 149.354 128.602 149.778C129.026 150.202 129.566 150.491 130.153 150.607C130.741 150.724 131.35 150.664 131.904 150.435C132.458 150.206 132.931 149.817 133.264 149.319C133.597 148.821 133.774 148.235 133.774 147.636C133.767 146.834 133.446 146.068 132.879 145.501C132.312 144.935 131.546 144.613 130.744 144.606V144.606Z" fill="white"/>
<path d="M118.212 149.288C117.504 149.288 116.811 149.498 116.223 149.892C115.634 150.285 115.175 150.845 114.904 151.499C114.633 152.153 114.562 152.873 114.7 153.568C114.838 154.262 115.179 154.9 115.68 155.401C116.181 155.902 116.819 156.243 117.513 156.381C118.208 156.519 118.928 156.448 119.582 156.177C120.236 155.906 120.796 155.447 121.189 154.859C121.583 154.27 121.793 153.577 121.793 152.869C121.775 151.925 121.392 151.024 120.724 150.357C120.057 149.689 119.156 149.306 118.212 149.288V149.288Z" fill="white"/>
<path d="M103.476 151.63C102.659 151.63 101.86 151.872 101.181 152.326C100.501 152.78 99.9716 153.425 99.6589 154.18C99.3461 154.935 99.2643 155.766 99.4238 156.567C99.5832 157.369 99.9767 158.105 100.554 158.683C101.132 159.261 101.868 159.654 102.67 159.813C103.471 159.973 104.302 159.891 105.057 159.578C105.812 159.266 106.457 158.736 106.911 158.057C107.365 157.377 107.608 156.578 107.608 155.761C107.583 154.673 107.14 153.636 106.37 152.867C105.601 152.097 104.564 151.654 103.476 151.63Z" fill="white"/>
<path d="M86.6741 149.977C85.639 149.977 84.6272 150.284 83.7666 150.859C82.906 151.434 82.2352 152.251 81.8391 153.208C81.443 154.164 81.3394 155.216 81.5413 156.231C81.7432 157.247 82.2417 158.179 82.9736 158.911C83.7055 159.643 84.6379 160.141 85.6531 160.343C86.6683 160.545 87.7205 160.441 88.6768 160.045C89.6331 159.649 90.4504 158.979 91.0255 158.118C91.6005 157.257 91.9074 156.245 91.9074 155.21C91.9074 153.822 91.3561 152.491 90.3746 151.51C89.3932 150.528 88.0621 149.977 86.6741 149.977V149.977Z" fill="white"/>
<path d="M68.9082 143.642C67.6825 143.642 66.4843 144.005 65.4651 144.686C64.446 145.367 63.6516 146.335 63.1826 147.468C62.7135 148.6 62.5908 149.846 62.8299 151.048C63.069 152.251 63.6593 153.355 64.526 154.222C65.3927 155.088 66.497 155.679 67.6992 155.918C68.9013 156.157 70.1474 156.034 71.2799 155.565C72.4123 155.096 73.3802 154.302 74.0612 153.282C74.7421 152.263 75.1056 151.065 75.1056 149.839C75.1206 149.021 74.9705 148.209 74.6643 147.45C74.3581 146.692 73.9022 146.002 73.3237 145.424C72.7452 144.845 72.0561 144.389 71.2974 144.083C70.5388 143.777 69.7262 143.627 68.9082 143.642V143.642Z" fill="white"/>
<path d="M53.3458 131.798C52.0527 131.802 50.7816 132.132 49.6502 132.758C48.5187 133.384 47.5635 134.286 46.8729 135.379C46.1979 136.502 45.8412 137.787 45.8412 139.097C45.8412 140.407 46.1979 141.693 46.8729 142.816C47.5191 143.949 48.465 144.883 49.6067 145.515C50.7485 146.146 52.0421 146.451 53.3458 146.396C55.2565 146.357 57.0759 145.571 58.4143 144.207C59.7528 142.842 60.504 141.008 60.5072 139.097C60.48 137.193 59.7209 135.373 58.3875 134.014C57.0541 132.655 55.2487 131.862 53.3458 131.798V131.798Z" fill="white"/>
<path d="M40.2624 114.17C38.6825 114.17 37.1382 114.638 35.8246 115.516C34.511 116.394 33.4872 117.641 32.8826 119.101C32.2781 120.56 32.1199 122.166 32.4281 123.716C32.7363 125.265 33.4971 126.689 34.6142 127.806C35.7313 128.923 37.1545 129.684 38.704 129.992C40.2535 130.3 41.8596 130.142 43.3191 129.537C44.7787 128.933 46.0262 127.909 46.9039 126.595C47.7816 125.282 48.2501 123.737 48.2501 122.158C48.2612 121.106 48.0621 120.062 47.6646 119.088C47.2671 118.114 46.6791 117.229 45.9352 116.485C45.1912 115.741 44.3063 115.153 43.3322 114.755C42.3581 114.358 41.3144 114.159 40.2624 114.17V114.17Z" fill="white"/>
<path d="M32.8807 108.317C36.3794 108.317 39.2158 105.48 39.2158 101.982C39.2158 98.4828 36.3794 95.6465 32.8807 95.6465C29.3819 95.6465 26.5455 98.4828 26.5455 101.982C26.5455 105.48 29.3819 108.317 32.8807 108.317Z" fill="white"/>
<path d="M32.495 88.0306C35.3092 88.0306 37.5906 85.7492 37.5906 82.9349C37.5906 80.1207 35.3092 77.8393 32.495 77.8393C29.6807 77.8393 27.3994 80.1207 27.3994 82.9349C27.3994 85.7492 29.6807 88.0306 32.495 88.0306Z" fill="white"/>
<path d="M37.6457 60.3214C36.6924 60.3214 35.7604 60.6041 34.9677 61.1337C34.1751 61.6634 33.5572 62.4162 33.1924 63.2969C32.8276 64.1777 32.7321 65.1469 32.9181 66.0819C33.1041 67.017 33.5632 67.8758 34.2373 68.55C34.9114 69.2241 35.7703 69.6832 36.7053 69.8691C37.6404 70.0551 38.6095 69.9597 39.4903 69.5948C40.3711 69.23 41.1239 68.6122 41.6536 67.8195C42.1832 67.0268 42.4659 66.0949 42.4659 65.1416C42.4516 63.8676 41.9391 62.6499 41.0383 61.749C40.1374 60.8481 38.9197 60.3357 37.6457 60.3214V60.3214Z" fill="white"/>
<path d="M46.3221 46.687C45.5904 46.6543 44.8647 46.8313 44.2303 47.1973C43.5959 47.5633 43.0793 48.103 42.7414 48.7528C42.4026 49.3887 42.2254 50.0981 42.2254 50.8186C42.2254 51.5391 42.4026 52.2485 42.7414 52.8844C43.1154 53.5029 43.6399 54.0167 44.266 54.3779C44.8921 54.7391 45.5994 54.936 46.3221 54.9502C47.3938 54.9145 48.4097 54.4634 49.155 53.6925C49.9003 52.9215 50.3166 51.8909 50.316 50.8186C50.3288 50.2841 50.2352 49.7524 50.0408 49.2543C49.8463 48.7563 49.5548 48.3019 49.1832 47.9175C48.8116 47.533 48.3673 47.2263 47.8762 47.0151C47.385 46.8038 46.8567 46.6923 46.3221 46.687V46.687Z" fill="white"/>
<path d="M56.7888 36.4957C55.8391 36.4957 54.9284 36.873 54.2568 37.5445C53.5853 38.216 53.2081 39.1268 53.2081 40.0764C53.2081 41.0261 53.5853 41.9369 54.2568 42.6084C54.9284 43.2799 55.8391 43.6572 56.7888 43.6572C57.2632 43.6725 57.7356 43.5903 58.177 43.4158C58.6183 43.2413 59.0192 42.9781 59.3548 42.6425C59.6904 42.3069 59.9536 41.906 60.1281 41.4646C60.3027 41.0233 60.3848 40.5508 60.3695 40.0764C60.3519 39.1323 59.9689 38.2318 59.3012 37.564C58.6335 36.8963 57.7329 36.5134 56.7888 36.4957V36.4957Z" fill="white"/>
<path d="M67.8064 29.3344C67.2071 29.3344 66.6214 29.5121 66.1231 29.845C65.6248 30.1779 65.2365 30.6511 65.0072 31.2048C64.7779 31.7584 64.7179 32.3676 64.8348 32.9553C64.9517 33.543 65.2402 34.0829 65.664 34.5066C66.0877 34.9304 66.6276 35.2189 67.2153 35.3358C67.803 35.4527 68.4122 35.3927 68.9659 35.1634C69.5195 34.9341 69.9927 34.5458 70.3256 34.0475C70.6585 33.5493 70.8362 32.9635 70.8362 32.3642C70.8437 31.9643 70.7705 31.5669 70.6208 31.196C70.4712 30.825 70.2483 30.488 69.9655 30.2051C69.6826 29.9223 69.3456 29.6994 68.9746 29.5498C68.6037 29.4002 68.2063 29.3269 67.8064 29.3344V29.3344Z" fill="white"/>
<path d="M80.3389 23.6878C79.6307 23.6878 78.9384 23.8978 78.3496 24.2913C77.7607 24.6847 77.3018 25.2439 77.0307 25.8982C76.7597 26.5525 76.6888 27.2725 76.827 27.9671C76.9651 28.6617 77.3062 29.2997 77.8069 29.8005C78.3077 30.3012 78.9457 30.6423 79.6403 30.7804C80.3349 30.9186 81.0549 30.8477 81.7092 30.5767C82.3635 30.3056 82.9227 29.8467 83.3162 29.2579C83.7096 28.669 83.9196 27.9767 83.9196 27.2685C83.9233 26.7973 83.8332 26.33 83.6545 25.8939C83.4759 25.4578 83.2123 25.0616 82.879 24.7284C82.5458 24.3951 82.1496 24.1315 81.7135 23.9529C81.2774 23.7742 80.8101 23.6841 80.3389 23.6878V23.6878Z" fill="white"/>
<path d="M95.075 20.1071C94.3433 20.0744 93.6175 20.2514 92.9831 20.6174C92.3487 20.9834 91.8322 21.5231 91.4943 22.1729C91.1555 22.8088 90.9783 23.5182 90.9783 24.2387C90.9783 24.9592 91.1555 25.6686 91.4943 26.3045C91.8683 26.923 92.3928 27.4368 93.0189 27.798C93.645 28.1592 94.3523 28.3561 95.075 28.3703C96.1467 28.3346 97.1625 27.8835 97.9078 27.1126C98.6531 26.3416 99.0695 25.311 99.0689 24.2387C99.0494 23.1725 98.6265 22.1533 97.8853 21.3866C97.1442 20.6199 96.1399 20.1627 95.075 20.1071V20.1071Z" fill="white"/>
<path d="M111.877 19.4185C110.822 19.4049 109.788 19.706 108.905 20.2834C108.023 20.8607 107.333 21.6881 106.923 22.6597C106.513 23.6313 106.402 24.703 106.605 25.7379C106.807 26.7728 107.314 27.7239 108.059 28.4695C108.805 29.2152 109.756 29.7216 110.791 29.924C111.826 30.1263 112.897 30.0155 113.869 29.6057C114.841 29.1959 115.668 28.5057 116.245 27.6233C116.823 26.7408 117.124 25.7063 117.11 24.6519C117.11 23.2639 116.559 21.9328 115.577 20.9513C114.596 19.9699 113.265 19.4185 111.877 19.4185V19.4185Z" fill="white"/>
<path d="M129.092 23.4124C127.839 23.4124 126.614 23.784 125.572 24.4801C124.53 25.1762 123.718 26.1656 123.239 27.3232C122.759 28.4808 122.634 29.7546 122.878 30.9835C123.123 32.2123 123.726 33.3412 124.612 34.2271C125.498 35.1131 126.627 35.7165 127.856 35.9609C129.085 36.2054 130.359 36.0799 131.516 35.6004C132.674 35.1209 133.663 34.3089 134.359 33.2671C135.055 32.2253 135.427 31.0005 135.427 29.7475C135.409 28.0729 134.736 26.4719 133.552 25.2877C132.367 24.1035 130.766 23.4303 129.092 23.4124Z" fill="white"/>
<path d="M145.343 33.3282C144.383 33.3228 143.431 33.5078 142.543 33.8727C141.655 34.2376 140.848 34.775 140.169 35.4539C139.49 36.1328 138.953 36.9396 138.588 37.8277C138.223 38.7157 138.038 39.6673 138.044 40.6274C138.058 42.5588 138.832 44.407 140.197 45.7728C141.563 47.1385 143.411 47.9121 145.343 47.9266C146.303 47.932 147.254 47.747 148.142 47.3821C149.031 47.0172 149.837 46.4798 150.516 45.8009C151.195 45.122 151.733 44.3152 152.097 43.4271C152.462 42.5391 152.647 41.5875 152.642 40.6274C152.627 38.696 151.854 36.8478 150.488 35.482C149.122 34.1163 147.274 33.3427 145.343 33.3282V33.3282Z" fill="white"/>
<path d="M158.288 49.8547C156.874 49.8634 155.485 50.2353 154.255 50.9346C153.025 51.6339 151.996 52.6373 151.265 53.8486C150.522 55.0483 150.129 56.4314 150.129 57.8424C150.129 59.2535 150.522 60.6365 151.265 61.8363C151.996 63.0476 153.025 64.051 154.255 64.7503C155.485 65.4496 156.874 65.8214 158.288 65.8302C160.385 65.8012 162.386 64.946 163.856 63.4503C165.326 61.9547 166.146 59.9394 166.138 57.8424C166.072 55.7686 165.227 53.7957 163.773 52.3158C162.319 50.8359 160.361 49.9574 158.288 49.8547Z" fill="white"/>
<path d="M165.588 71.7521C164.485 71.7354 163.398 72.006 162.432 72.5372C161.466 73.0685 160.655 73.8421 160.079 74.7819C159.537 75.7498 159.253 76.8404 159.253 77.9495C159.253 79.0586 159.537 80.1492 160.079 81.117C160.633 82.0766 161.44 82.8662 162.411 83.4002C163.382 83.9343 164.48 84.1925 165.588 84.1469C167.231 84.1469 168.808 83.4939 169.97 82.3317C171.132 81.1695 171.785 79.5931 171.785 77.9495C171.785 76.3058 171.132 74.7295 169.97 73.5672C168.808 72.405 167.231 71.7521 165.588 71.7521V71.7521Z" fill="white"/>
<path d="M197.676 89.9311C197.676 92.0012 197.062 94.0248 195.912 95.7461C194.762 97.4673 193.128 98.8089 191.215 99.6011C189.303 100.393 187.198 100.601 185.168 100.197C183.137 99.7928 181.272 98.796 179.809 97.3322C178.345 95.8684 177.348 94.0034 176.944 91.973C176.54 89.9427 176.747 87.8382 177.54 85.9256C178.332 84.0131 179.673 82.3784 181.395 81.2283C183.116 80.0782 185.139 79.4644 187.21 79.4644C189.971 79.5104 192.607 80.6279 194.56 82.5809C196.513 84.5339 197.63 87.1695 197.676 89.9311V89.9311Z" fill="white"/>
<path d="M713.024 106.044C713.024 96.1286 707.378 90.8952 698.564 87.3145C691.678 84.5601 685.618 82.2188 680.936 80.2908C676.253 78.3627 672.397 75.3328 672.397 71.8898C672.397 67.2074 678.181 64.453 685.894 64.453C694.983 64.453 702.145 65.6924 708.893 66.381H709.168C709.416 66.3839 709.662 66.3348 709.889 66.2371C710.117 66.1393 710.322 65.995 710.49 65.8135C710.659 65.6319 710.788 65.417 710.868 65.1827C710.949 64.9484 710.98 64.6998 710.959 64.453V56.7406C710.926 56.2399 710.713 55.7681 710.358 55.4133C710.003 55.0585 709.531 54.845 709.031 54.8126C701.625 53.0753 694.051 52.1517 686.445 52.0582C667.164 52.0582 657.937 60.3214 657.937 71.8898C657.779 75.8301 658.882 79.718 661.087 82.9876C663.291 86.2573 666.482 88.738 670.194 90.0689C679.283 93.7873 697.875 98.1944 697.875 105.907C697.875 111.966 695.121 115.272 685.756 115.272C677.872 115.143 670.006 114.498 662.206 113.344H661.93C661.676 113.338 661.422 113.384 661.186 113.479C660.95 113.574 660.735 113.716 660.555 113.896C660.374 114.076 660.233 114.291 660.138 114.527C660.043 114.764 659.997 115.017 660.002 115.272V122.709C660.031 123.224 660.239 123.714 660.592 124.091C660.944 124.469 661.418 124.711 661.93 124.774C669.666 126.493 677.557 127.416 685.481 127.529C706.552 127.804 713.024 116.511 713.024 106.044Z" fill="white"/>
<path d="M509.199 65.0038H488.403V124.774C488.389 125.318 488.167 125.835 487.783 126.22C487.398 126.604 486.881 126.826 486.337 126.84H476.008C475.465 126.826 474.948 126.604 474.563 126.22C474.179 125.835 473.957 125.318 473.943 124.774V65.0038H453.147C452.882 65.0249 452.615 64.9905 452.365 64.9029C452.114 64.8153 451.884 64.6764 451.689 64.495C451.495 64.3136 451.34 64.0937 451.236 63.8494C451.131 63.605 451.078 63.3416 451.081 63.0757V54.8125C451.09 54.5503 451.151 54.2923 451.259 54.0534C451.368 53.8145 451.523 53.5994 451.714 53.4203C451.906 53.2412 452.132 53.1017 452.377 53.0098C452.623 52.9179 452.885 52.8753 453.147 52.8845H509.199C509.461 52.8753 509.723 52.9179 509.969 53.0098C510.214 53.1017 510.44 53.2412 510.632 53.4203C510.823 53.5994 510.978 53.8145 511.087 54.0534C511.195 54.2923 511.256 54.5503 511.265 54.8125V63.0757C511.268 63.3416 511.215 63.605 511.11 63.8494C511.006 64.0937 510.851 64.3136 510.657 64.495C510.462 64.6764 510.232 64.8153 509.981 64.9029C509.731 64.9905 509.464 65.0249 509.199 65.0038Z" fill="white"/>
<path d="M441.992 98.332V54.9502C441.983 54.688 441.922 54.43 441.814 54.1911C441.705 53.9522 441.55 53.7371 441.358 53.558C441.166 53.3789 440.941 53.2394 440.695 53.1475C440.45 53.0555 440.188 53.013 439.926 53.0222H429.597C429.334 53.013 429.073 53.0555 428.827 53.1475C428.581 53.2394 428.356 53.3789 428.164 53.558C427.972 53.7371 427.818 53.9522 427.709 54.1911C427.6 54.43 427.54 54.688 427.531 54.9502V98.1943C427.531 110.038 422.022 115.685 410.867 115.685C399.712 115.685 394.203 110.038 394.203 98.1943V54.9502C394.194 54.688 394.133 54.43 394.025 54.1911C393.916 53.9522 393.761 53.7371 393.57 53.558C393.378 53.3789 393.152 53.2394 392.907 53.1475C392.661 53.0555 392.399 53.013 392.137 53.0222H381.808C381.546 53.013 381.284 53.0555 381.038 53.1475C380.793 53.2394 380.567 53.3789 380.375 53.558C380.184 53.7371 380.029 53.9522 379.92 54.1911C379.812 54.43 379.751 54.688 379.742 54.9502V98.1943C379.742 120.367 394.203 127.666 410.867 127.666C427.531 127.666 441.992 120.505 441.992 98.332Z" fill="white"/>
<path d="M535.228 94.7514H568.556C569.1 94.7374 569.617 94.5153 570.002 94.1309C570.386 93.7464 570.608 93.2291 570.622 92.6856V85.111C570.608 84.5675 570.386 84.0501 570.002 83.6657C569.617 83.2812 569.1 83.0591 568.556 83.0452H535.228V73.5425C535.228 64.8661 535.503 64.5907 543.491 64.5907H569.796C570.339 64.5767 570.857 64.3546 571.241 63.9702C571.625 63.5858 571.848 63.0684 571.862 62.5249V55.9143C571.862 54.3994 571.311 53.9862 569.796 53.7108C562.369 52.5696 554.86 52.0628 547.347 52.1959C530.132 52.1959 520.905 52.0582 520.905 73.5425V106.458C520.905 127.942 530.132 127.804 547.347 127.804C554.86 127.937 562.369 127.43 569.796 126.289C571.311 126.152 571.862 125.601 571.862 124.086V117.475C571.848 116.932 571.625 116.414 571.241 116.03C570.857 115.645 570.339 115.423 569.796 115.409H543.491C535.641 115.409 535.228 115.134 535.228 106.458V94.7514Z" fill="white"/>
<path d="M329.612 94.7514H362.94C363.484 94.7374 364.001 94.5153 364.386 94.1309C364.77 93.7464 364.992 93.2291 365.006 92.6856V85.111C364.992 84.5675 364.77 84.0501 364.386 83.6657C364.001 83.2812 363.484 83.0591 362.94 83.0452H329.612V73.5425C329.612 64.8661 329.888 64.5907 337.875 64.5907H364.18C364.723 64.5767 365.241 64.3546 365.625 63.9702C366.01 63.5858 366.232 63.0684 366.246 62.5249V55.9143C366.246 54.3994 365.695 53.9862 364.18 53.7108C356.754 52.5696 349.244 52.0628 341.731 52.1959C324.516 52.1959 315.289 52.0582 315.289 73.5425V106.458C315.289 127.942 324.516 127.804 341.731 127.804C349.244 127.937 356.754 127.43 364.18 126.289C365.695 126.152 366.246 125.601 366.246 124.086V117.475C366.232 116.932 366.01 116.414 365.625 116.03C365.241 115.645 364.723 115.423 364.18 115.409H337.875C330.025 115.409 329.612 115.134 329.612 106.458V94.7514Z" fill="white"/>
<path d="M649.26 124.774L633.009 96.9549C641.548 93.6496 647.057 87.5899 647.057 76.5723V75.746C647.057 57.9801 632.321 52.1959 616.207 52.1959C607.97 52.1793 599.739 52.6391 591.556 53.5731C589.49 53.8485 588.25 54.6748 588.25 56.7406V124.912C588.264 125.456 588.486 125.973 588.871 126.357C589.255 126.742 589.773 126.964 590.316 126.978H600.783C601.045 126.969 601.303 126.908 601.542 126.8C601.781 126.691 601.996 126.536 602.175 126.345C602.354 126.153 602.494 125.927 602.586 125.682C602.677 125.436 602.72 125.174 602.711 124.912V99.1584C605.052 99.2961 613.453 99.5715 616.207 99.5715H618.549L633.56 124.774C634.111 125.738 634.524 126.84 635.626 126.84H648.296C648.462 126.852 648.629 126.829 648.785 126.771C648.941 126.713 649.082 126.622 649.2 126.504C649.318 126.387 649.409 126.245 649.466 126.089C649.524 125.933 649.548 125.767 649.536 125.601C649.507 125.308 649.413 125.026 649.26 124.774V124.774ZM632.596 76.5723C632.596 85.6618 626.812 87.7276 616.07 87.7276C614.279 87.7276 604.226 87.4522 602.573 87.4522V65.0038C604.363 64.7284 613.866 64.5907 616.07 64.5907C626.536 64.5907 632.596 67.8959 632.596 75.746V76.5723Z" fill="white"/>
<path d="M303.996 124.774L287.607 96.9549C296.146 93.6496 301.655 87.5899 301.655 76.5723V75.746C301.655 57.9801 286.919 52.1959 270.806 52.1959C262.569 52.1793 254.338 52.6391 246.154 53.5731C244.088 53.8485 242.848 54.6748 242.848 56.7406V124.912C242.862 125.456 243.085 125.973 243.469 126.357C243.853 126.742 244.371 126.964 244.914 126.978H255.381C255.643 126.969 255.901 126.908 256.14 126.8C256.379 126.691 256.594 126.536 256.773 126.345C256.952 126.153 257.092 125.927 257.184 125.682C257.276 125.436 257.318 125.174 257.309 124.912V99.1584C259.65 99.2961 268.051 99.5715 270.806 99.5715H273.147L288.158 124.774C288.709 125.738 289.122 126.84 290.224 126.84H302.894C303.06 126.852 303.227 126.829 303.383 126.771C303.539 126.713 303.681 126.622 303.798 126.504C303.916 126.387 304.007 126.245 304.065 126.089C304.123 125.933 304.146 125.767 304.134 125.601C304.156 125.318 304.108 125.035 303.996 124.774ZM287.332 76.5723C287.332 85.6618 281.548 87.7276 270.943 87.7276C269.153 87.7276 259.099 87.4522 257.447 87.4522V65.0038C259.237 64.7284 268.74 64.5907 270.943 64.5907C281.41 64.5907 287.332 67.8959 287.332 75.746V76.5723Z" fill="white"/>
</svg>
