<svg width="32" height="32" viewBox="0 0 32 32" fill="none" xmlns="http://www.w3.org/2000/svg">
<path fill-rule="evenodd" clip-rule="evenodd" d="M25.3793 9.8439C24.6889 10.1498 23.9481 10.3573 23.1697 10.4499C23.9645 9.97401 24.5729 9.21913 24.8612 8.32239C24.1157 8.76313 23.2928 9.08316 22.416 9.25665C21.7138 8.50762 20.7151 8.04108 19.6074 8.04108C17.4822 8.04108 15.7591 9.7642 15.7591 11.8882C15.7591 12.1895 15.7931 12.4837 15.8587 12.765C12.661 12.6044 9.82548 11.0724 7.9277 8.74437C7.59596 9.31173 7.40724 9.97282 7.40724 10.6785C7.40724 12.0136 8.08712 13.1917 9.11866 13.8809C8.48801 13.8598 7.89487 13.6863 7.37561 13.398V13.446C7.37561 15.3098 8.70254 16.8653 10.462 17.2193C10.1396 17.3061 9.7997 17.3541 9.44804 17.3541C9.19955 17.3541 8.95924 17.3295 8.72362 17.2826C9.21359 18.8124 10.6343 19.9248 12.3176 19.9553C11.0012 20.9868 9.34137 21.5999 7.53855 21.5999C7.22793 21.5999 6.92197 21.5811 6.62073 21.5471C8.32393 22.6408 10.346 23.2784 12.5192 23.2784C19.5981 23.2784 23.4675 17.4151 23.4675 12.3301L23.4546 11.832C24.2106 11.2927 24.8647 10.6152 25.3793 9.8439Z" fill="white"/>
</svg>
