<svg width="501" height="100" viewBox="0 0 501 100" fill="none" xmlns="http://www.w3.org/2000/svg">
<path d="M422.069 15.5385V84.7101H456.154C465.678 84.7101 471.191 83.2064 475.201 79.6977C480.214 75.1865 482.72 67.1666 482.72 50.1243C482.72 33.082 480.214 25.0622 475.201 20.551C471.191 17.0423 465.678 15.5385 456.154 15.5385H422.069ZM468.685 50.1243C468.685 65.1616 467.682 68.6703 464.675 70.6753C462.67 72.179 460.164 72.6803 455.151 72.6803H436.104V27.0671H455.151C460.164 27.0671 462.67 27.0671 464.675 29.0721C467.682 31.5783 468.685 35.087 468.685 50.1243ZM500.263 100H400.263V0H500.263V100ZM318.565 27.0671V15.5385H377.711V37.5932H365.176V27.0671H341.117V43.6082H360.164V54.6355H341.117V73.1815H365.682V61.1517H378.209V84.7101H318.569V73.1815H328.088V27.0671H318.565ZM264.932 66.6653C264.932 74.184 265.429 79.6977 266.431 84.2088H279.969C279.464 80.7001 278.966 74.184 278.966 65.6628C278.461 55.638 275.454 54.1343 268.436 52.6305C276.456 51.1268 279.969 47.6181 279.969 35.087C279.969 25.0622 278.461 21.0522 275.454 18.546C273.449 16.541 269.944 15.5385 264.426 15.5385H222.322V84.7101H236.357V57.643H255.909C259.919 57.643 261.419 58.1442 262.927 59.1467C264.434 60.1492 264.932 61.6529 264.932 66.6653V66.6653ZM236.357 46.6156V27.5684H258.917C261.924 27.5684 262.927 28.0696 263.424 28.5709C264.426 29.5733 265.429 31.0771 265.429 37.092C265.429 43.1069 264.426 45.1119 263.424 46.1144C262.927 46.6156 261.924 47.1169 258.917 47.1169L236.357 46.6156ZM300.019 100H199.77V0H299.766V100H300.019ZM173.705 73.1815V84.7101H126.083V73.1815H143.126V27.0671H126.083V15.5385H173.701V27.0671H156.659V73.1815H173.705ZM93.2539 15.5385H80.2216L70.698 70.174L59.6706 19.5485C59.1694 16.0398 57.6657 15.5385 54.6582 15.5385H47.6408C44.6333 15.5385 43.1296 16.541 42.6284 19.5485L31.601 70.174L22.0774 15.5385H8.04259L21.5762 81.2014C22.0774 84.2088 23.0799 84.7101 26.5886 84.7101H36.1122C39.1197 84.7101 40.1221 84.2088 41.1246 81.2014L51.6507 33.5833L62.1768 81.2014C62.6781 84.2088 63.6806 84.7101 67.1893 84.7101H76.2116C79.2191 84.7101 80.7228 84.2088 81.2241 81.2014L93.2539 15.5385ZM100.271 100H0.0227051V0H100.023V100H100.271Z" fill="white"/>
</svg>
