<svg width="48" height="48" viewBox="0 0 48 48" fill="none" xmlns="http://www.w3.org/2000/svg">
<path d="M0 24C0 10.7452 10.7452 0 24 0V0C37.2548 0 48 10.7452 48 24V24C48 37.2548 37.2548 48 24 48V48C10.7452 48 0 37.2548 0 24V24Z" fill="#FAC800"/>
<path fill-rule="evenodd" clip-rule="evenodd" d="M34.349 15.5601C34.5471 15.6678 34.769 15.7243 34.9945 15.7243H35.5177C35.9748 15.7243 36.3453 16.0948 36.3453 16.5518C36.3453 17.0089 35.9748 17.3794 35.5177 17.3794H12.4819C12.0248 17.3794 11.6543 17.0089 11.6543 16.5518C11.6543 16.0948 12.0248 15.7243 12.4819 15.7243H13.0052C13.2307 15.7243 13.4525 15.6678 13.6506 15.5601L23.9998 9.93115L34.349 15.5601ZM11.6543 36.8277C11.6543 36.1421 12.2101 35.5863 12.8957 35.5863H35.104C35.7895 35.5863 36.3453 36.1421 36.3453 36.8277C36.3453 37.5133 35.7895 38.0691 35.104 38.0691H12.8957C12.2101 38.0691 11.6543 37.5133 11.6543 36.8277ZM14.4775 20.5803C14.4919 20.1796 14.8209 19.8622 15.2219 19.8622H17.5833C17.9843 19.8622 18.3133 20.1796 18.3276 20.5803L18.749 32.332C18.7642 32.7536 18.4265 33.1036 18.0047 33.1036H14.8004C14.3786 33.1036 14.041 32.7536 14.0561 32.332L14.4775 20.5803ZM22.0748 20.5803C22.0891 20.1796 22.4181 19.8622 22.8191 19.8622H25.1805C25.5815 19.8622 25.9105 20.1796 25.9249 20.5803L26.3463 32.332C26.3614 32.7536 26.0238 33.1036 25.6019 33.1036H22.3977C21.9759 33.1036 21.6382 32.7536 21.6533 32.332L22.0748 20.5803ZM29.672 20.5803C29.6864 20.1796 30.0154 19.8622 30.4163 19.8622H32.7778C33.1787 19.8622 33.5077 20.1796 33.5221 20.5803L33.9435 32.332C33.9586 32.7536 33.621 33.1036 33.1992 33.1036H29.9949C29.5731 33.1036 29.2355 32.7536 29.2506 32.332L29.672 20.5803Z" fill="white"/>
</svg>
